<svg width="1920" height="850" viewBox="0 0 1920 850" fill="none" xmlns="http://www.w3.org/2000/svg">
<g clip-path="url(#clip0)">
<rect width="1920" height="850"/>
<path d="M1651.86 629L1637.01 643.85L1622.16 629L1612 639.155L1626.85 654.005L1612 668.845L1622.16 679L1637.01 664.15L1651.86 679L1662 668.845L1647.16 654.005L1662 639.155L1651.86 629Z" stroke="#74ACFF" stroke-width="1.9044" stroke-miterlimit="10"/>
<path d="M602.855 164L588.005 178.85L573.155 164L563 174.155L577.85 189.005L563 203.845L573.155 214L588.005 199.15L602.855 214L613 203.845L598.161 189.005L613 174.155L602.855 164Z" stroke="#74ACFF" stroke-width="1.9044" stroke-miterlimit="10"/>
<path d="M511.102 629L501.004 639.098L490.906 629L484 635.906L494.098 646.004L484 656.094L490.906 663L501.004 652.902L511.102 663L518 656.094L507.909 646.004L518 635.906L511.102 629Z" fill="#74ACFF"/>
<path d="M1527.1 455L1517 465.098L1506.91 455L1500 461.906L1510.1 472.004L1500 482.094L1506.91 489L1517 478.902L1527.1 489L1534 482.094L1523.91 472.004L1534 461.906L1527.1 455Z" fill="#74ACFF"/>
<path d="M960 713.5L624.5 377.5V363L731.5 230H753L1219 707.5L960 713.5Z" fill="#4E8FF0"/>
<path d="M960 713.5L624.5 377.5V363L731.5 230H753L1219 707.5L960 713.5Z" fill="url(#paint0_linear)"/>
<path d="M1342.5 713.5L1007 377.5V363L1114 230H1135.5L1601.5 707.5L1342.5 713.5Z" fill="#4E8FF0"/>
<path d="M1342.5 713.5L1007 377.5V363L1114 230H1135.5L1601.5 707.5L1342.5 713.5Z" fill="url(#paint1_linear)"/>
<path d="M1180 746.5L846.5 411.5L823 294L871 231.5L944 243.5L1422.5 726L1180 746.5Z" fill="#4E8FF0"/>
<path d="M1180 746.5L846.5 411.5L823 294L871 231.5L944 243.5L1422.5 726L1180 746.5Z" fill="url(#paint2_linear)"/>
<path d="M1080 774.5L738 431L744.5 424L758.5 377L800 359L1178.5 745L1080 774.5Z" fill="#4E8FF0"/>
<path d="M1080 774.5L738 431L744.5 424L758.5 377L800 359L1178.5 745L1080 774.5Z" fill="url(#paint3_linear)"/>
<path d="M1462.5 774.5L1120.5 431L1127 424L1141 377L1182.5 359L1561 745L1462.5 774.5Z" fill="#4E8FF0"/>
<path d="M1462.5 774.5L1120.5 431L1127 424L1141 377L1182.5 359L1561 745L1462.5 774.5Z" fill="url(#paint4_linear)"/>
<path d="M799.336 378.008H759.016V431H738.28V378.008H624.52V363.032L731.368 229.4H754.408L651.304 359.576H738.856V312.92H759.016V359.576H799.336V378.008ZM898.734 432.728C883.182 432.728 869.262 428.6 856.974 420.344C844.878 412.088 835.374 400.28 828.462 384.92C821.742 369.368 818.382 351.128 818.382 330.2C818.382 309.272 821.742 291.128 828.462 275.768C835.374 260.216 844.878 248.312 856.974 240.056C869.262 231.8 883.182 227.672 898.734 227.672C914.286 227.672 928.11 231.8 940.206 240.056C952.494 248.312 962.094 260.216 969.006 275.768C975.918 291.128 979.374 309.272 979.374 330.2C979.374 351.128 975.918 369.368 969.006 384.92C962.094 400.28 952.494 412.088 940.206 420.344C928.11 428.6 914.286 432.728 898.734 432.728ZM898.734 413.72C910.446 413.72 920.718 410.456 929.55 403.928C938.574 397.4 945.582 387.896 950.574 375.416C955.566 362.936 958.062 347.864 958.062 330.2C958.062 312.536 955.566 297.464 950.574 284.984C945.582 272.504 938.574 263 929.55 256.472C920.718 249.944 910.446 246.68 898.734 246.68C887.022 246.68 876.654 249.944 867.63 256.472C858.798 263 851.886 272.504 846.894 284.984C841.902 297.464 839.406 312.536 839.406 330.2C839.406 347.864 841.902 362.936 846.894 375.416C851.886 387.896 858.798 397.4 867.63 403.928C876.654 410.456 887.022 413.72 898.734 413.72ZM1180.43 378.008H1140.11V431H1119.37V378.008H1005.61V363.032L1112.46 229.4H1135.5L1032.4 359.576H1119.95V312.92H1140.11V359.576H1180.43V378.008Z" fill="white"/>
<path d="M1550 288L1527 266C1529.44 266.213 1531.86 266.766 1534.17 267.651L1548.27 281.143C1549.2 283.347 1549.78 285.662 1550 288Z" fill="#74ACFF"/>
<path d="M1548.2 295.25L1519.75 266.797C1521.1 266.402 1522.48 266.142 1523.86 266L1549 291.138C1548.86 292.524 1548.59 293.902 1548.2 295.25Z" fill="#74ACFF"/>
<path d="M1545.03 300.875L1514.12 269.971C1515.1 269.313 1516.12 268.734 1517.17 268.25L1546.75 297.831C1546.27 298.879 1545.69 299.892 1545.03 300.875Z" fill="#74ACFF"/>
<path d="M1542.53 305.014C1542.02 305.537 1541.49 306.03 1540.95 306.5L1509.62 274.134C1510.07 273.574 1510.55 273.029 1511.06 272.499C1511.36 272.192 1511.66 271.901 1511.96 271.625L1543.38 304.088C1543.1 304.402 1542.83 304.708 1542.53 305.014Z" fill="#74ACFF"/>
<path d="M1534.56 309.875L1505.12 280.441C1505.58 279.343 1506.12 278.275 1506.76 277.25L1537.75 308.243C1536.73 308.872 1535.66 309.421 1534.56 309.875Z" fill="#74ACFF"/>
<path d="M1527.86 311L1504 288.099C1504.07 286.721 1504.27 285.35 1504.61 284L1532.12 310.41C1530.72 310.737 1529.28 310.936 1527.86 311Z" fill="#74ACFF"/>
<path d="M1515.63 308.436L1506.57 299.374C1505.27 297.011 1504.41 294.477 1504 291.875L1523.12 311C1520.53 310.589 1518 309.736 1515.63 308.436Z" fill="#74ACFF"/>
<path d="M354 293.133L370.867 277C369.074 277.156 367.3 277.562 365.61 278.211L355.266 288.105C354.587 289.721 354.164 291.419 354 293.133Z" fill="#74ACFF"/>
<path d="M355.318 298.45L376.183 277.584C375.195 277.295 374.184 277.104 373.168 277L354.733 295.435C354.837 296.451 355.034 297.461 355.318 298.45Z" fill="#74ACFF"/>
<path d="M357.646 302.575L380.309 279.912C379.593 279.429 378.845 279.005 378.076 278.65L356.384 300.343C356.739 301.111 357.163 301.854 357.646 302.575Z" fill="#74ACFF"/>
<path d="M359.478 305.61C359.849 305.994 360.241 306.355 360.639 306.7L383.608 282.965C383.28 282.554 382.93 282.154 382.554 281.766C382.337 281.541 382.119 281.328 381.897 281.125L358.858 304.931C359.06 305.161 359.261 305.386 359.478 305.61Z" fill="#74ACFF"/>
<path d="M365.323 309.175L386.908 287.59C386.576 286.785 386.179 286.001 385.712 285.25L362.983 307.978C363.735 308.44 364.518 308.842 365.323 309.175Z" fill="#74ACFF"/>
<path d="M370.239 310L387.733 293.206C387.685 292.195 387.533 291.19 387.283 290.2L367.108 309.568C368.139 309.807 369.192 309.953 370.239 310Z" fill="#74ACFF"/>
<path d="M379.202 308.12L385.847 301.474C386.801 299.742 387.431 297.883 387.733 295.975L373.708 310C375.611 309.699 377.469 309.074 379.202 308.12Z" fill="#74ACFF"/>
<circle cx="459" cy="507" r="13.5" stroke="#74ACFF" stroke-width="3"/>
<circle cx="1319" cy="199" r="13.5" stroke="#74ACFF" stroke-width="3"/>
</g>
<defs>
<linearGradient id="paint0_linear" x1="706.539" y1="462.232" x2="977.773" y2="720.587" gradientUnits="userSpaceOnUse">
<stop stop-color="#3280F2"/>
<stop offset="0.979941" stop-color="#599CFF"/>
</linearGradient>
<linearGradient id="paint1_linear" x1="1089.04" y1="462.232" x2="1455.59" y2="676.436" gradientUnits="userSpaceOnUse">
<stop stop-color="#3280F2"/>
<stop offset="0.979941" stop-color="#599CFF"/>
</linearGradient>
<linearGradient id="paint2_linear" x1="896" y1="445" x2="1227.5" y2="632.5" gradientUnits="userSpaceOnUse">
<stop stop-color="#2C79EB"/>
<stop offset="0.979941" stop-color="#599CFF"/>
</linearGradient>
<linearGradient id="paint3_linear" x1="798.787" y1="558.571" x2="1089.37" y2="704.982" gradientUnits="userSpaceOnUse">
<stop stop-color="#3280F2"/>
<stop offset="0.979941" stop-color="#599CFF"/>
</linearGradient>
<linearGradient id="paint4_linear" x1="1181.29" y1="558.571" x2="1471.87" y2="704.982" gradientUnits="userSpaceOnUse">
<stop stop-color="#3280F2"/>
<stop offset="0.979941" stop-color="#599CFF"/>
</linearGradient>
<clipPath id="clip0">
<rect width="1920" height="850" fill="white"/>
</clipPath>
</defs>
</svg>
