<svg width="383" height="511" viewBox="0 0 383 511" fill="none" xmlns="http://www.w3.org/2000/svg">
<circle cx="191.5" cy="271.5" r="57" stroke="#74ACFF"/>
<circle cx="191.5" cy="271.5" r="166" fill="#599CFF"/>
<circle cx="191.5" cy="271.5" r="166" fill="url(#paint0_radial)"/>
<circle cx="191.5" cy="271.5" r="166" stroke="#74ACFF"/>
<circle cx="191.5" cy="272.5" r="191" stroke="#74ACFF"/>
<circle cx="191.5" cy="271.5" r="117" stroke="#74ACFF"/>
<circle cx="191.5" cy="271.5" r="143" stroke="#74ACFF"/>
<path d="M261.637 61.806C258.255 71.7662 254.982 81.7715 251.465 91.6868C248.695 99.5037 245.979 107.519 241.095 114.228C227.299 133.185 216.138 153.916 201.812 172.504C200.373 174.377 200.238 175.503 201.91 177.556C211.678 189.578 213.512 203.447 210.67 218.262C206.416 240.37 205.211 262.569 208.125 284.967C209.906 298.655 213.413 312.02 215.419 325.672C217.991 343.116 220.329 360.569 221.247 378.202C221.858 390.027 221.822 401.779 220.572 413.559C220.275 416.386 219.142 417.683 216.651 418.611C200.193 424.735 183.42 429.967 167.096 436.478C149.406 443.53 132.048 451.328 114.961 459.731C112.946 460.721 112.451 461.577 113.27 463.747C115.131 468.682 115.464 473.933 115.446 479.39C111.12 472.789 106.794 466.197 102.253 459.262C94.8599 469.808 87.6561 480.075 80.4702 490.35C79.9666 491.07 79.6608 491.701 79.9936 492.782C81.8193 498.698 80.839 504.768 80.3353 511C78.8064 507.74 77.2685 504.489 75.7486 501.22C74.3366 498.167 73.0415 495.06 71.5216 492.061C70.4784 490.008 71.018 488.747 73.1764 489.242C77.9161 490.323 79.1482 487.117 80.767 483.893C92.4677 460.541 104.663 437.406 114.223 413.054C116.139 408.182 118.819 404.58 123.136 401.833C127.489 399.06 131.626 395.962 135.862 393.008C136.671 392.44 137.552 392.062 137.624 390.783C138.155 381.426 141.402 372.592 142.94 363.433C145.098 350.609 147.221 337.767 148.902 324.871C151.663 303.671 156.403 283.039 164.146 263.056C168.427 252.033 170.703 240.488 170.703 228.537C170.703 224.521 169.48 221.053 167.519 217.748C162.941 209.994 156.961 203.213 152.086 195.666C150.71 193.541 150.072 195.621 149.46 196.324C143.704 202.934 138.092 209.679 132.264 216.226C126.508 222.683 120.564 228.987 114.619 235.282C113.71 236.237 112.82 238.263 111.174 237.273C109.025 235.958 105.778 235.877 105.149 232.563C103.889 225.952 104.42 219.324 105.328 212.759C107.343 198.206 110.572 183.896 114.808 169.829C115.914 166.146 117.722 162.778 120.024 159.707C121.904 157.194 124.44 156.086 127.606 156.519C127.884 158.419 125.942 158.212 125.393 159.229C127.489 160.184 127.498 160.193 125.843 161.832C125.06 162.606 125.753 162.751 126.221 163.255C127.956 165.11 127.372 166.938 125.69 168.442C124.017 169.937 122.371 171.594 120.411 172.567C117.91 173.792 117.353 175.413 117.389 178.051C117.551 188.741 117.173 199.422 116.624 210.093C116.615 210.201 116.606 210.319 116.615 210.427C116.822 211.94 114.988 214.227 116.418 214.695C118.297 215.317 118.819 212.552 119.808 211.219C129.287 198.395 138.353 185.247 149.631 173.864C152.095 171.378 153.615 168.172 155.603 165.317C156.448 164.11 156.394 162.958 155.98 161.526C154.289 155.726 152.644 149.899 151.295 144.01C150.791 141.794 149.73 141.047 147.697 140.876C146.366 140.768 145.044 140.444 143.758 140.074C143.021 139.867 142.4 139.255 141.663 139.048C138.407 138.12 142.148 133.077 137.606 132.573C134.414 132.212 133.64 129.006 132.822 126.278C131.985 123.468 131.509 120.613 131.491 117.659C131.455 110.689 134.288 105.186 140.098 101.485C149.541 95.4692 159.416 93.9652 169.543 99.8369C174.066 102.458 177.547 105.898 177.727 111.706C177.862 116.236 178.905 120.442 181.702 124.323C183.815 127.268 182.817 131.096 182.574 134.536C182.358 137.661 181.639 140.75 181.324 143.875C181.063 146.495 179.741 147.468 177.178 147.567C175.011 147.648 171.962 146.504 170.892 148.188C169.866 149.791 171.827 152.331 172.376 154.483C172.43 154.7 172.51 154.916 172.573 155.123C175.101 163.408 175.11 163.372 183.51 164.975C184.913 165.245 185.542 164.381 186.451 163.777C194.725 158.302 199.914 150.044 205.661 142.317C213.045 132.383 220.905 122.855 229.539 113.976C230.249 113.246 230.915 112.517 231.158 111.472C234.341 97.7026 241.653 85.8151 248.335 73.6484C250.602 69.5148 253.102 65.5163 255.494 61.4547C256.807 59.4375 259.191 57.7174 258.75 55.1237C258.336 52.7192 258.66 50.4138 258.75 48.0903C258.813 46.6044 258.624 44.0738 260.98 44.488C263.597 44.9473 260.701 46.6314 261.124 47.8382C261.367 48.5316 260.576 49.8194 261.889 49.8734C262.779 49.9095 263.373 48.6937 263.409 47.8922C263.48 46.4243 261.466 46.1091 261.241 44.6862C261.016 43.2543 264.731 45.1995 263.139 42.4798C262.905 42.0835 263.463 41.4441 263.858 41.6873C266.772 43.5154 265.072 39.8231 266.484 39.58C268.211 41.0569 268.733 43.0922 268.445 45.2085C268.004 48.3605 266.682 51.2873 264.776 53.7909C262.914 56.2314 262.122 58.9241 261.637 61.806ZM184.409 331.364C182.116 338.613 179.786 345.025 178.06 351.6C175.155 362.623 169.848 371.961 161.251 379.616C156.412 383.921 151.645 388.622 148.039 393.953C135.223 412.946 121.985 431.624 108.719 450.284C106.785 452.994 104.897 455.732 102.693 458.875C107.064 458.299 110.608 457.813 114.07 455.471C136.176 440.513 158.481 425.842 180.695 411.055C182.304 409.983 183.959 409.173 185.911 408.903C190.597 408.245 195.318 407.903 200.004 408.317C203.17 408.596 203.233 407.183 202.846 404.823C198.844 380.112 191.766 356.174 184.409 331.364ZM191.532 179.438C191.586 177.754 191.262 176.16 189.661 175.404C187.916 174.575 185.857 174.728 184.661 176.16C182.565 178.673 180.407 179.015 177.403 178.015C175.442 177.367 173.023 177.97 172.627 180.438C171.998 184.328 175.137 186.255 177.772 188.002C180.227 189.633 182.763 192.226 186.226 189.912C186.316 189.849 186.397 189.768 186.478 189.696C189.58 186.976 191.073 183.455 191.532 179.438ZM120.986 167.947C123.244 167.704 123.936 166.074 125.051 164.804C122.398 164.128 121.067 165.047 120.986 167.947Z" fill="#FCFDFC"/>
<path d="M261.637 61.8059C262.122 58.9241 262.914 56.2314 264.758 53.8089C266.664 51.3053 267.986 48.3785 268.427 45.2265C268.724 43.1102 268.193 41.0749 266.466 39.598C265.045 39.8411 266.754 43.5334 263.84 41.7053C263.445 41.4621 262.896 42.1015 263.121 42.4978C264.704 45.2175 260.998 43.2723 261.223 44.7042C261.439 46.1271 263.463 46.4423 263.391 47.9102C263.355 48.7117 262.761 49.9275 261.871 49.8914C260.558 49.8374 261.349 48.5496 261.106 47.8562C260.684 46.6494 263.579 44.9653 260.962 44.506C258.606 44.0918 258.786 46.6224 258.732 48.1083C258.642 50.4318 258.318 52.7372 258.732 55.1417C259.173 57.7354 256.789 59.4555 255.476 61.4727C248.236 55.7902 243.281 48.9458 244.045 39.1477C244.171 37.4906 244.603 35.9417 245.601 33.9064C246.339 37.0764 246.806 39.724 248.281 41.9664C249.262 43.4524 250.341 45.2445 252.508 44.3529C254.667 43.4704 254.298 41.5432 253.821 39.715C252.976 36.455 252.095 33.2129 251.348 29.9349C250.053 24.2613 251.267 18.993 254.244 14.1029C257.572 8.62744 261.196 3.41315 267.788 0C262.977 8.10511 262.644 16.1652 264.29 24.4594C264.488 25.441 264.83 26.4226 265.279 27.3142C266.251 29.2324 267.339 31.4478 269.848 31.1416C272.456 30.8264 273.841 28.6471 274.345 26.2515C274.848 23.865 274.884 21.3795 275.136 18.9119C287.233 32.0872 279.606 56.2855 261.637 61.8059Z" fill="#FF3857"/>
<path d="M191.532 179.438C191.073 183.455 189.589 186.976 186.478 189.696C186.397 189.768 186.316 189.849 186.226 189.912C182.763 192.217 180.227 189.624 177.772 188.003C175.137 186.255 171.998 184.328 172.627 180.438C173.023 177.97 175.442 177.367 177.403 178.015C180.407 179.015 182.565 178.673 184.661 176.16C185.857 174.728 187.916 174.575 189.661 175.404C191.262 176.169 191.577 177.754 191.532 179.438Z" fill="#FF3857"/>
<defs>
<radialGradient id="paint0_radial" cx="0" cy="0" r="1" gradientUnits="userSpaceOnUse" gradientTransform="translate(192.097 273.887) rotate(90.2083) scale(164.114)">
<stop stop-color="#8FD0FF"/>
<stop offset="0.635417" stop-color="#599CFF"/>
<stop offset="0.958333" stop-color="#599CFF"/>
</radialGradient>
</defs>
</svg>
