<svg width="21" height="21" viewBox="0 0 21 21" fill="none" xmlns="http://www.w3.org/2000/svg">
<circle cx="10.4999" cy="10.5" r="10" fill="#FF3857" stroke="#FF3857"/>
<path d="M11.0499 8.31087C11.4875 8.31087 11.9072 8.48532 12.2167 8.79583C12.5261 9.10635 12.6999 9.5275 12.6999 9.96663C12.6999 10.113 12.7579 10.2534 12.861 10.3569C12.9642 10.4604 13.1041 10.5186 13.2499 10.5186C13.3958 10.5186 13.5357 10.4604 13.6388 10.3569C13.742 10.2534 13.7999 10.113 13.7999 9.96663C13.7999 9.23474 13.5102 8.53283 12.9945 8.0153C12.4788 7.49777 11.7793 7.20703 11.0499 7.20703C10.9041 7.20703 10.7642 7.26518 10.661 7.36869C10.5579 7.47219 10.4999 7.61257 10.4999 7.75895C10.4999 7.90533 10.5579 8.04571 10.661 8.14922C10.7642 8.25272 10.9041 8.31087 11.0499 8.31087Z" fill="white"/>
<path d="M11.0499 6.10352C12.071 6.10352 13.0503 6.51044 13.7723 7.23476C14.4943 7.95908 14.8999 8.94147 14.8999 9.96582C14.8999 10.1122 14.9579 10.2525 15.061 10.356C15.1642 10.4594 15.3041 10.5176 15.4499 10.5176C15.5958 10.5176 15.7357 10.4594 15.8388 10.356C15.942 10.2525 15.9999 10.1122 15.9999 9.96582C15.9999 8.6488 15.4784 7.38573 14.5501 6.45446C13.6218 5.52318 12.3628 5 11.0499 5C10.9041 5 10.7642 5.05813 10.661 5.16161C10.5579 5.26508 10.4999 5.40542 10.4999 5.55176C10.4999 5.69809 10.5579 5.83843 10.661 5.94191C10.7642 6.04538 10.9041 6.10352 11.0499 6.10352ZM15.8624 12.675C15.8322 12.5864 15.78 12.507 15.7107 12.4442C15.6414 12.3815 15.5574 12.3375 15.4664 12.3163L12.1664 11.5604C12.0769 11.54 11.9836 11.5425 11.8952 11.5675C11.8069 11.5926 11.7261 11.6395 11.6604 11.7039C11.5834 11.7756 11.5779 11.7811 11.2204 12.4653C10.0342 11.9169 9.08368 10.9595 8.54194 9.76719C9.24044 9.41406 9.24594 9.41406 9.31744 9.3313C9.38163 9.2654 9.42834 9.18441 9.45332 9.09574C9.4783 9.00708 9.48075 8.91354 9.46044 8.82368L8.70694 5.55176C8.68584 5.46055 8.64196 5.37623 8.57942 5.30673C8.51688 5.23723 8.43773 5.18484 8.34944 5.15449C8.221 5.10847 8.08836 5.0752 7.95344 5.05518C7.81443 5.02284 7.67257 5.00436 7.52994 5C6.85894 5 6.21543 5.2674 5.74096 5.74339C5.26649 6.21937 4.99994 6.86494 4.99994 7.53809C5.00285 9.79075 5.89616 11.9503 7.48396 13.5432C9.07176 15.1361 11.2244 16.0322 13.4699 16.0352C13.8022 16.0352 14.1312 15.9695 14.4381 15.842C14.7451 15.7144 15.024 15.5275 15.2589 15.2918C15.4938 15.0561 15.6802 14.7763 15.8074 14.4684C15.9345 14.1604 15.9999 13.8304 15.9999 13.4971C16.0001 13.3566 15.9891 13.2164 15.9669 13.0777C15.9438 12.9407 15.9089 12.8059 15.8624 12.675ZM13.4699 14.9316C11.5157 14.9302 9.642 14.1507 8.26017 12.7645C6.87834 11.3783 6.1014 9.49853 6.09994 7.53809C6.10139 7.15806 6.25251 6.79402 6.52038 6.5253C6.78824 6.25658 7.15112 6.10497 7.52994 6.10352H7.71144L8.29994 8.66367L8.00294 8.81816C7.52994 9.06645 7.15594 9.26509 7.35394 9.69546C7.67636 10.6111 8.19806 11.4433 8.88114 12.1314C9.56422 12.8195 10.3915 13.3464 11.3029 13.6736C11.7649 13.8612 11.9464 13.5136 12.1939 13.0336L12.3534 12.7301L14.8999 13.315V13.4971C14.8985 13.8771 14.7474 14.2411 14.4795 14.5099C14.2116 14.7786 13.8488 14.9302 13.4699 14.9316Z" fill="white"/>
</svg>
