<svg width="29" height="40" viewBox="0 0 29 40" fill="none" xmlns="http://www.w3.org/2000/svg">
<path d="M12.8223 40L22.7393 14.5965L11.0047 9.98694L1.09004 35.3905L8.99526 32.4736L12.8223 40Z" fill="#4A82D4"/>
<path d="M16.718 40L6.80332 14.5965L18.5356 9.98694L28.4526 35.3905L20.5474 32.4736L16.718 40Z" fill="#599CFF"/>
<path d="M14.8531 29.3213C1.53792 24.9329 2.4763 8.11841 2.4763 8.11841C7.83649 2.74339 14.7725 2.02783 14.7725 2.02783C14.7725 2.02783 21.7085 2.74339 27.0663 8.12078C27.0663 8.12078 28.0047 24.9329 14.6919 29.3237H14.8531V29.3213Z" fill="#FFD34D"/>
<path d="M14.7725 27.4052L14.5545 27.3196C5.18483 23.6111 4.29384 12.483 4.2417 9.16199L4.23697 8.89098L4.43839 8.71031C8.54502 5.01127 13.3128 4.0461 14.6777 3.83928L14.7678 3.82501L14.8578 3.83928C16.2299 4.05561 21.0237 5.04455 25.1019 8.71031L25.3033 8.89098L25.2986 9.16199C25.2749 10.6216 25.0924 13.5385 24.1374 16.6623C22.5118 21.9802 19.4336 25.5652 14.9881 27.3196L14.7725 27.4052ZM5.43365 9.41398C5.52606 12.8135 6.52606 22.6958 14.7725 26.1238C18.7488 24.4788 21.519 21.1791 23.0047 16.3128C23.8602 13.5124 24.0663 10.8808 24.1066 9.41398C20.3294 6.12859 15.8531 5.20859 14.7654 5.02791C13.6825 5.20383 9.2346 6.09768 5.43365 9.41398Z" fill="#F2BA49"/>
<path d="M14.7725 20.3067C11.3033 20.3067 8.48104 17.4753 8.48104 13.995C8.48104 10.5147 11.3033 7.68335 14.7725 7.68335C18.2417 7.68335 21.064 10.5147 21.064 13.995C21.064 17.4753 18.2393 20.3067 14.7725 20.3067ZM14.7725 8.17307C11.5735 8.17307 8.96919 10.7857 8.96919 13.995C8.96919 17.2043 11.5735 19.817 14.7725 19.817C17.9716 19.817 20.5758 17.2043 20.5758 13.995C20.5735 10.7857 17.9716 8.17307 14.7725 8.17307Z" fill="#F2BA49"/>
<path d="M18.0569 12.1193H11.4881V12.609H18.0569V12.1193Z" fill="#F2BA49"/>
<path d="M18.0569 13.7502H11.4881V14.2399H18.0569V13.7502Z" fill="#F2BA49"/>
<path d="M18.0569 15.381H11.4881V15.8707H18.0569V15.381Z" fill="#F2BA49"/>
<path d="M1.31517 7.31723C1.77323 7.31723 2.14455 6.94471 2.14455 6.48518C2.14455 6.02566 1.77323 5.65314 1.31517 5.65314C0.857114 5.65314 0.485786 6.02566 0.485786 6.48518C0.485786 6.94471 0.857114 7.31723 1.31517 7.31723Z" fill="#F2BA49"/>
<path d="M24.2678 1.83287H23.4123V0.977051H22.9408V1.83287H22.0877V2.30595H22.9408V3.16177H23.4123V2.30595H24.2678V1.83287Z" fill="#F2BA49"/>
<path d="M3.16825 21.2362C3.16825 21.7496 2.75356 22.1657 2.24171 22.1657C1.72987 22.1657 1.31517 21.7496 1.31517 21.2362C1.31517 20.7227 1.72987 20.3066 2.24171 20.3066C2.75356 20.3066 3.16825 20.7227 3.16825 21.2362Z" fill="#FFD34D"/>
<path d="M2.18009 17.6227H1.32701V16.7669H0.853081V17.6227H0V18.0982H0.853081V18.954H1.32701V18.0982H2.18009V17.6227Z" fill="#FFD34D"/>
<path d="M29 16.1964C29 16.5126 28.7465 16.7669 28.4313 16.7669C28.1161 16.7669 27.8626 16.5126 27.8626 16.1964C27.8626 15.8802 28.1161 15.6259 28.4313 15.6259C28.7465 15.6259 29 15.8826 29 16.1964Z" fill="#FFD34D"/>
<path d="M27.8626 21.9042C27.8626 22.4771 27.4005 22.9407 26.8294 22.9407C26.2583 22.9407 25.7962 22.4771 25.7962 21.9042C25.7962 21.3312 26.2583 20.8677 26.8294 20.8677C27.4005 20.8677 27.8626 21.3336 27.8626 21.9042Z" fill="#F2BA49"/>
<path d="M11.9787 0.984191C12.2496 0.984191 12.4692 0.763873 12.4692 0.492096C12.4692 0.220319 12.2496 0 11.9787 0C11.7078 0 11.4881 0.220319 11.4881 0.492096C11.4881 0.763873 11.7078 0.984191 11.9787 0.984191Z" fill="#FFD34D"/>
</svg>
