<svg width="12" height="7" viewBox="0 0 12 7" fill="none" xmlns="http://www.w3.org/2000/svg">
<path fill-rule="evenodd" clip-rule="evenodd" d="M8.14539 0.146862C8.19183 0.100308 8.24701 0.0633735 8.30775 0.0381725C8.36849 0.0129716 8.4336 0 8.49936 0C8.56513 0 8.63024 0.0129716 8.69098 0.0381725C8.75172 0.0633735 8.8069 0.100308 8.85334 0.146862L11.8531 3.14621C11.8997 3.19264 11.9366 3.24781 11.9618 3.30854C11.987 3.36927 12 3.43438 12 3.50013C12 3.56588 11.987 3.63099 11.9618 3.69172C11.9366 3.75245 11.8997 3.80762 11.8531 3.85405L8.85334 6.8534C8.75946 6.94727 8.63213 7 8.49936 7C8.3666 7 8.23927 6.94727 8.14539 6.8534C8.05151 6.75953 7.99877 6.63223 7.99877 6.49948C7.99877 6.36673 8.05151 6.23942 8.14539 6.14556L10.7922 3.50013L8.14539 0.854708C8.09883 0.808272 8.06189 0.753108 8.03669 0.692376C8.01148 0.631645 7.99851 0.566537 7.99851 0.500785C7.99851 0.435032 8.01148 0.369924 8.03669 0.309193C8.06189 0.248461 8.09883 0.193297 8.14539 0.146862Z" fill="#202B55"/>
<path fill-rule="evenodd" clip-rule="evenodd" d="M0 3.50009C0 3.36751 0.0526746 3.24036 0.146436 3.14662C0.240197 3.05287 0.367365 3.0002 0.499963 3.0002H10.9992C11.1318 3.0002 11.259 3.05287 11.3527 3.14662C11.4465 3.24036 11.4992 3.36751 11.4992 3.50009C11.4992 3.63267 11.4465 3.75982 11.3527 3.85357C11.259 3.94732 11.1318 3.99998 10.9992 3.99998H0.499963C0.367365 3.99998 0.240197 3.94732 0.146436 3.85357C0.0526746 3.75982 0 3.63267 0 3.50009Z" fill="#202B55"/>
</svg>
