<svg width="27" height="30" viewBox="0 0 27 30" fill="none" xmlns="http://www.w3.org/2000/svg">
<path d="M0.000140251 15.0155C0.000140251 10.5867 0.000140251 6.15969 0.000140251 1.73092C0.000140251 0.260004 0.238952 0.00535455 1.63059 0.00535455C5.45157 0.00535455 9.27256 0.0160392 13.0935 1.2246e-05C13.6949 -0.00176852 14.1209 0.190555 14.5539 0.649993C16.5142 2.73527 18.5209 4.77247 20.5104 6.82926C21.0568 7.39376 21.5774 7.98854 22.1512 8.52099C22.6477 8.98221 22.7955 9.52178 22.7663 10.186C22.7285 11.0301 22.7645 11.876 22.7542 12.7218C22.7456 13.4929 22.3453 13.9577 21.7045 13.9684C21.0585 13.979 20.6462 13.5249 20.6221 12.7574C20.6101 12.3354 20.5946 11.9098 20.6273 11.4895C20.6685 10.9428 20.4744 10.7505 19.9332 10.7576C17.8938 10.7843 15.8545 10.7701 13.8151 10.7648C12.664 10.7612 12.3771 10.4567 12.3754 9.25645C12.3737 7.16404 12.3582 5.07342 12.3857 2.98102C12.3926 2.40405 12.2242 2.20282 11.6538 2.20817C8.71247 2.2331 5.77113 2.22953 2.83152 2.20995C2.29376 2.20638 2.13226 2.40049 2.13226 2.9454C2.14429 10.9784 2.14601 19.0097 2.13055 27.0428C2.12883 27.6375 2.3161 27.796 2.87275 27.7943C8.51832 27.7764 14.1639 27.7729 19.8112 27.7996C20.4761 27.8032 20.7011 27.5877 20.6307 26.9235C20.5878 26.505 20.6049 26.0776 20.6273 25.6555C20.6633 25.0002 21.1083 24.5711 21.7097 24.5817C22.2835 24.5906 22.7267 25.002 22.7422 25.6324C22.7714 26.7222 22.7731 27.8138 22.7491 28.9019C22.7319 29.6338 22.2955 29.9953 21.4915 29.9971C18.9161 30.0024 16.339 29.9988 13.7636 29.9988C9.66428 29.9988 5.56325 29.9971 1.46393 29.9953C0.323137 29.9953 0.00701252 29.6783 0.00701252 28.4959C-0.00157782 24.0048 0.000140251 19.5101 0.000140251 15.0155ZM14.6724 3.90702C14.6209 3.93907 14.5694 3.97291 14.5178 4.00496C14.5178 5.39752 14.5161 6.7883 14.5195 8.18086C14.5195 8.46935 14.7034 8.55482 14.9491 8.55482C16.15 8.55482 17.3509 8.55838 18.5518 8.55482C18.8989 8.55304 18.9281 8.39812 18.703 8.16127C18.3268 7.76594 17.9385 7.38308 17.564 6.98597C16.5984 5.96024 15.6363 4.93274 14.6724 3.90702Z" fill="white"/>
<path d="M16.4936 19.2555C16.4936 18.39 16.5056 17.5228 16.4884 16.6573C16.4799 16.1979 16.6637 16.0198 17.1001 16.0305C17.8921 16.0501 18.6876 16.0145 19.4779 16.0465C20.8901 16.1053 21.72 16.9921 21.9072 18.796C22.0911 20.5697 21.4863 22.1011 19.9418 22.4306C18.9298 22.646 17.8921 22.5107 16.8647 22.5C16.5022 22.4965 16.4953 22.1955 16.4936 21.9213C16.4919 21.0327 16.4953 20.1441 16.4936 19.2555ZM18.234 19.2786C18.2357 19.2786 18.2357 19.2786 18.2374 19.2786C18.2374 19.6348 18.2357 19.9891 18.2374 20.3453C18.2409 21.0968 18.4195 21.2392 19.1291 21.0576C19.7717 20.8938 20.0809 20.5002 20.1033 19.6811C20.1239 18.8957 20.2648 18.0196 19.3748 17.5869C18.5656 17.1915 18.2374 17.4284 18.234 18.3455C18.234 18.6571 18.234 18.9688 18.234 19.2786Z" fill="white"/>
<path d="M12.719 16.0358C13.0403 16.0358 13.3616 16.0322 13.6828 16.0358C14.9645 16.0501 15.8854 16.9939 15.8854 18.2903C15.8854 19.6383 14.9783 20.6017 13.6742 20.6373C12.6778 20.664 12.6778 20.664 12.6554 21.7129C12.6383 22.5036 12.6159 22.4982 11.7002 22.5267C11.1452 22.5427 10.8154 22.4537 10.8326 21.7485C10.8704 20.128 10.8669 18.5057 10.8291 16.887C10.8137 16.2068 11.0542 15.9575 11.6899 16.0269C12.0283 16.0625 12.3754 16.034 12.7173 16.034C12.719 16.034 12.719 16.034 12.719 16.0358ZM13.2138 17.4123C12.731 17.3928 12.5163 17.5049 12.6142 17.8397C12.7499 18.3045 12.2826 19.0542 13.0867 19.2109C13.6382 19.3178 14.0436 18.8868 14.0608 18.3294C14.0797 17.7382 13.8014 17.4373 13.2138 17.4123Z" fill="white"/>
<path d="M22.6821 19.3036C22.6821 18.4381 22.6975 17.5709 22.6769 16.7072C22.6649 16.2317 22.823 16.0198 23.304 16.0305C24.3314 16.0537 25.3605 16.0519 26.3879 16.0305C26.8879 16.0198 27.0082 16.2745 26.9996 16.7304C26.991 17.1613 26.9205 17.4729 26.4034 17.448C25.9327 17.4249 25.4602 17.464 24.9912 17.4391C24.5238 17.4142 24.4087 17.6475 24.4087 18.0837C24.4087 18.5254 24.5445 18.7533 24.998 18.7337C25.3605 18.7177 25.7265 18.7533 26.089 18.7355C26.5958 18.7106 26.7642 18.9545 26.7539 19.4603C26.7436 19.9215 26.6697 20.226 26.1285 20.2349C25.6011 20.2438 24.9568 19.9945 24.5737 20.3631C24.182 20.7424 24.4603 21.4191 24.4225 21.9623C24.3967 22.3487 24.2421 22.5 23.8693 22.525C22.7371 22.6033 22.6872 22.5677 22.6821 21.3657C22.6786 20.6783 22.6821 19.9892 22.6821 19.3018C22.6804 19.3036 22.6804 19.3036 22.6821 19.3036Z" fill="white"/>
</svg>
