<svg width="1920" height="665" viewBox="0 0 1920 665" fill="none" xmlns="http://www.w3.org/2000/svg">
<path d="M916 206.25L895.75 186C897.902 186.196 900.033 186.705 902.061 187.52L914.48 199.939C915.295 201.967 915.804 204.098 916 206.25Z" fill="#E3EBFB"/>
<path d="M915.203 215.25L886.75 186.797C888.098 186.402 889.476 186.142 890.862 186L916 211.138C915.858 212.524 915.59 213.902 915.203 215.25Z" fill="#E3EBFB"/>
<path d="M912.029 220.875L881.125 189.971C882.101 189.313 883.121 188.734 884.169 188.25L913.75 217.831C913.266 218.879 912.687 219.892 912.029 220.875Z" fill="#E3EBFB"/>
<path d="M909.53 225.014C909.024 225.537 908.489 226.03 907.947 226.5L876.625 194.134C877.073 193.574 877.55 193.029 878.063 192.499C878.359 192.192 878.655 191.901 878.959 191.625L910.375 224.088C910.1 224.402 909.826 224.708 909.53 225.014Z" fill="#E3EBFB"/>
<path d="M901.559 229.875L872.125 200.441C872.579 199.343 873.12 198.275 873.757 197.25L904.75 228.243C903.725 228.872 902.657 229.421 901.559 229.875Z" fill="#E3EBFB"/>
<path d="M894.856 231L871 208.099C871.067 206.721 871.274 205.35 871.614 204L899.125 230.41C897.719 230.737 896.284 230.936 894.856 231Z" fill="#E3EBFB"/>
<path d="M882.633 228.436L873.572 219.374C872.271 217.011 871.411 214.477 871 211.875L890.125 231C887.531 230.589 884.996 229.736 882.633 228.436Z" fill="#E3EBFB"/>
<path d="M1226 432.1L1252.1 406C1249.33 406.253 1246.58 406.909 1243.97 407.959L1227.96 423.965C1226.91 426.58 1226.25 429.326 1226 432.1Z" fill="#E3EBFB"/>
<path d="M1227.03 443.7L1263.7 407.027C1261.96 406.518 1260.19 406.182 1258.4 406L1226 438.401C1226.18 440.186 1226.53 441.962 1227.03 443.7Z" fill="#E3EBFB"/>
<path d="M1231.12 450.95L1270.95 411.118C1269.69 410.27 1268.38 409.524 1267.03 408.9L1228.9 447.026C1229.52 448.378 1230.27 449.682 1231.12 450.95Z" fill="#E3EBFB"/>
<path d="M1234.34 456.285C1234.99 456.959 1235.68 457.594 1236.38 458.2L1276.75 416.483C1276.17 415.762 1275.56 415.059 1274.9 414.376C1274.51 413.981 1274.13 413.606 1273.74 413.25L1233.25 455.092C1233.6 455.496 1233.96 455.89 1234.34 456.285Z" fill="#E3EBFB"/>
<path d="M1244.61 462.55L1282.55 424.613C1281.97 423.198 1281.27 421.821 1280.45 420.5L1240.5 460.447C1241.82 461.258 1243.2 461.965 1244.61 462.55Z" fill="#E3EBFB"/>
<path d="M1253.25 464L1284 434.483C1283.91 432.707 1283.65 430.94 1283.21 429.2L1247.75 463.24C1249.56 463.661 1251.41 463.918 1253.25 464Z" fill="#E3EBFB"/>
<path d="M1269.01 460.695L1280.69 449.015C1282.36 445.97 1283.47 442.704 1284 439.35L1259.35 464C1262.69 463.47 1265.96 462.372 1269.01 460.695Z" fill="#E3EBFB"/>
</svg>
