<svg width="1920" height="640" viewBox="0 0 1920 640" fill="none" xmlns="http://www.w3.org/2000/svg">
<path d="M1269.94 100.943C1274.91 95.9752 1274.92 87.9306 1269.96 82.9743C1265 78.018 1256.96 78.0269 1251.99 82.9942C1247.03 87.9615 1247.02 96.0062 1251.97 100.962C1256.93 105.919 1264.97 105.91 1269.94 100.943Z" stroke="#74ACFF" stroke-width="2.4368" stroke-miterlimit="10"/>
<path d="M254.855 494L240.005 508.85L225.155 494L215 504.155L229.85 519.005L215 533.845L225.155 544L240.005 529.15L254.855 544L265 533.845L250.161 519.005L265 504.155L254.855 494Z" stroke="#74ACFF" stroke-width="1.9044" stroke-miterlimit="10"/>
<path d="M177.102 97L167.004 107.098L156.906 97L150 103.906L160.098 114.004L150 124.094L156.906 131L167.004 120.902L177.102 131L184 124.094L173.909 114.004L184 103.906L177.102 97Z" fill="#74ACFF"/>
<path d="M258.099 326.101C261.805 322.395 261.812 316.393 258.114 312.695C254.417 308.998 248.415 309.004 244.71 312.71C241.004 316.416 240.997 322.418 244.695 326.116C248.392 329.814 254.394 329.807 258.099 326.101Z" stroke="#74ACFF" stroke-width="2.4368" stroke-miterlimit="10"/>
<path d="M782 156L800 138C798.087 138.175 796.193 138.627 794.39 139.351L783.351 150.39C782.627 152.193 782.175 154.087 782 156Z" fill="#74ACFF"/>
<path d="M782.708 164L808 138.708C806.802 138.358 805.577 138.126 804.345 138L782 160.345C782.126 161.577 782.364 162.802 782.708 164Z" fill="#74ACFF"/>
<path d="M785.53 169L813 141.53C812.132 140.945 811.226 140.431 810.294 140L784 166.294C784.431 167.226 784.945 168.126 785.53 169Z" fill="#74ACFF"/>
<path d="M787.751 172.679C788.201 173.144 788.676 173.582 789.158 174L817 145.23C816.602 144.732 816.178 144.248 815.722 143.776C815.459 143.504 815.195 143.246 814.926 143L787 171.856C787.244 172.135 787.488 172.407 787.751 172.679Z" fill="#74ACFF"/>
<path d="M794.836 177L821 150.836C820.597 149.86 820.115 148.911 819.549 148L792 175.549C792.911 176.109 793.86 176.597 794.836 177Z" fill="#74ACFF"/>
<path d="M800.795 178L822 157.643C821.941 156.418 821.757 155.2 821.454 154L797 177.476C798.25 177.766 799.526 177.943 800.795 178Z" fill="#74ACFF"/>
<path d="M811.659 175.72L819.714 167.666C820.87 165.566 821.634 163.313 822 161L805 178C807.306 177.634 809.559 176.877 811.659 175.72Z" fill="#74ACFF"/>
<path d="M1739 295.25L1718.75 275C1720.9 275.196 1723.03 275.705 1725.06 276.52L1737.48 288.939C1738.29 290.967 1738.8 293.098 1739 295.25Z" fill="#74ACFF"/>
<path d="M1738.2 304.25L1709.75 275.797C1711.1 275.402 1712.48 275.142 1713.86 275L1739 300.138C1738.86 301.524 1738.59 302.902 1738.2 304.25Z" fill="#74ACFF"/>
<path d="M1735.03 309.875L1704.13 278.971C1705.1 278.313 1706.12 277.734 1707.17 277.25L1736.75 306.831C1736.27 307.879 1735.69 308.892 1735.03 309.875Z" fill="#74ACFF"/>
<path d="M1732.53 314.014C1732.02 314.537 1731.49 315.03 1730.95 315.5L1699.62 283.134C1700.07 282.574 1700.55 282.029 1701.06 281.499C1701.36 281.192 1701.66 280.901 1701.96 280.625L1733.38 313.088C1733.1 313.402 1732.83 313.708 1732.53 314.014Z" fill="#74ACFF"/>
<path d="M1724.56 318.875L1695.12 289.441C1695.58 288.343 1696.12 287.275 1696.76 286.25L1727.75 317.243C1726.73 317.872 1725.66 318.421 1724.56 318.875Z" fill="#74ACFF"/>
<path d="M1717.86 320L1694 297.099C1694.07 295.721 1694.27 294.35 1694.61 293L1722.12 319.41C1720.72 319.737 1719.28 319.936 1717.86 320Z" fill="#74ACFF"/>
<path d="M1705.63 317.436L1696.57 308.374C1695.27 306.011 1694.41 303.477 1694 300.875L1713.12 320C1710.53 319.589 1708 318.736 1705.63 317.436Z" fill="#74ACFF"/>
<path d="M1086.1 434L1076 444.098L1065.91 434L1059 440.906L1069.1 451.004L1059 461.094L1065.91 468L1076 457.902L1086.1 468L1093 461.094L1082.91 451.004L1093 440.906L1086.1 434Z" fill="#74ACFF"/>
</svg>
