<svg width="320" height="541" viewBox="0 0 320 541" fill="none" xmlns="http://www.w3.org/2000/svg">
<path d="M92.7393 101L86.5023 107.237L80.2653 101L76 105.265L82.237 111.502L76 117.735L80.2653 122L86.5023 115.763L92.7393 122L97 117.735L90.7675 111.502L97 105.265L92.7393 101Z" stroke="#74ACFF" stroke-width="1.9044" stroke-miterlimit="10"/>
<path d="M54.7393 451L48.5023 457.237L42.2653 451L38 455.265L44.237 461.502L38 467.735L42.2653 472L48.5023 465.763L54.7393 472L59 467.735L52.7675 461.502L59 455.265L54.7393 451Z" fill="#74ACFF"/>
<path d="M6.73926 150L0.502261 156.237L-5.73474 150L-10 154.265L-3.76301 160.502L-10 166.735L-5.73474 171L0.502261 164.763L6.73926 171L11 166.735L4.76753 160.502L11 154.265L6.73926 150Z" stroke="#74ACFF" stroke-width="1.9044" stroke-miterlimit="10"/>
<path d="M284.739 462L278.502 468.237L272.265 462L268 466.265L274.237 472.502L268 478.735L272.265 483L278.502 476.763L284.739 483L289 478.735L282.768 472.502L289 466.265L284.739 462Z" stroke="#74ACFF" stroke-width="1.9044" stroke-miterlimit="10"/>
<path d="M266.739 279L260.502 285.237L254.265 279L250 283.265L256.237 289.502L250 295.735L254.265 300L260.502 293.763L266.739 300L271 295.735L264.768 289.502L271 283.265L266.739 279Z" fill="#74ACFF"/>
<circle cx="295.5" cy="89.5" r="5" stroke="#74ACFF" stroke-width="3"/>
<circle cx="319.5" cy="176.5" r="10" stroke="#74ACFF" stroke-width="3"/>
<circle cx="167" cy="483" r="8.5" stroke="#74ACFF" stroke-width="3"/>
<path d="M22 260.043L32.5 250C31.384 250.097 30.2794 250.35 29.2275 250.754L22.788 256.913C22.3657 257.919 22.1018 258.976 22 260.043Z" fill="#74ACFF"/>
<path d="M22.8204 263.353L35.8098 250.364C35.1943 250.184 34.5653 250.065 33.9328 250L22.4565 261.476C22.5211 262.109 22.6436 262.738 22.8204 263.353Z" fill="#74ACFF"/>
<path d="M24.2693 265.921L38.3777 251.813C37.9321 251.512 37.4666 251.248 36.988 251.027L23.4837 264.531C23.7049 265.01 23.9689 265.472 24.2693 265.921Z" fill="#74ACFF"/>
<path d="M25.4104 267.811C25.6413 268.049 25.8854 268.274 26.1328 268.489L40.4321 253.713C40.2276 253.457 40.0099 253.209 39.7757 252.967C39.6404 252.827 39.5052 252.694 39.3666 252.568L25.0245 267.388C25.1498 267.531 25.2752 267.671 25.4104 267.811Z" fill="#74ACFF"/>
<path d="M29.0491 270.03L42.4864 256.593C42.2793 256.092 42.032 255.604 41.7414 255.136L27.5924 269.285C28.0601 269.572 28.5479 269.823 29.0491 270.03Z" fill="#74ACFF"/>
<path d="M32.1094 270.543L43 260.088C42.9696 259.459 42.875 258.833 42.7196 258.217L30.1603 270.274C30.8021 270.423 31.4575 270.514 32.1094 270.543Z" fill="#74ACFF"/>
<path d="M37.6891 269.373L41.8259 265.236C42.4198 264.157 42.8123 263 43 261.812L34.269 270.543C35.4534 270.356 36.6105 269.967 37.6891 269.373Z" fill="#74ACFF"/>
<path d="M186 132.043L196.5 122C195.384 122.097 194.279 122.35 193.227 122.754L186.788 128.913C186.366 129.919 186.102 130.976 186 132.043Z" fill="#74ACFF"/>
<path d="M186.82 135.353L199.81 122.364C199.194 122.184 198.565 122.065 197.933 122L186.457 133.476C186.521 134.109 186.644 134.738 186.82 135.353Z" fill="#74ACFF"/>
<path d="M188.269 137.921L202.378 123.813C201.932 123.512 201.467 123.248 200.988 123.027L187.484 136.531C187.705 137.01 187.969 137.472 188.269 137.921Z" fill="#74ACFF"/>
<path d="M189.41 139.811C189.641 140.049 189.885 140.274 190.133 140.489L204.432 125.713C204.228 125.457 204.01 125.209 203.776 124.967C203.64 124.827 203.505 124.694 203.367 124.568L189.024 139.388C189.15 139.531 189.275 139.671 189.41 139.811Z" fill="#74ACFF"/>
<path d="M193.049 142.03L206.486 128.593C206.279 128.092 206.032 127.604 205.741 127.136L191.592 141.285C192.06 141.572 192.548 141.823 193.049 142.03Z" fill="#74ACFF"/>
<path d="M196.109 142.543L207 132.088C206.97 131.459 206.875 130.833 206.72 130.217L194.16 142.274C194.802 142.423 195.457 142.514 196.109 142.543Z" fill="#74ACFF"/>
<path d="M201.689 141.373L205.826 137.236C206.42 136.157 206.812 135 207 133.812L198.269 142.543C199.453 142.356 200.61 141.967 201.689 141.373Z" fill="#74ACFF"/>
</svg>
