<svg width="1920" height="850" viewBox="0 0 1920 850" fill="none" xmlns="http://www.w3.org/2000/svg">
<g clip-path="url(#clip0)">
<rect width="1920" height="850"/>
<path d="M1651.86 629L1637.01 643.85L1622.16 629L1612 639.155L1626.85 654.005L1612 668.845L1622.16 679L1637.01 664.15L1651.86 679L1662 668.845L1647.16 654.005L1662 639.155L1651.86 629Z" stroke="#74ACFF" stroke-width="1.9044" stroke-miterlimit="10"/>
<path d="M602.855 164L588.005 178.85L573.155 164L563 174.155L577.85 189.005L563 203.845L573.155 214L588.005 199.15L602.855 214L613 203.845L598.161 189.005L613 174.155L602.855 164Z" stroke="#74ACFF" stroke-width="1.9044" stroke-miterlimit="10"/>
<path d="M511.102 629L501.004 639.098L490.906 629L484 635.906L494.098 646.004L484 656.094L490.906 663L501.004 652.902L511.102 663L518 656.094L507.909 646.004L518 635.906L511.102 629Z" fill="#74ACFF"/>
<path d="M1527.1 455L1517 465.098L1506.91 455L1500 461.906L1510.1 472.004L1500 482.094L1506.91 489L1517 478.902L1527.1 489L1534 482.094L1523.91 472.004L1534 461.906L1527.1 455Z" fill="#74ACFF"/>
<path d="M1021 722.5L685.5 386.5V372L792.5 239H814L1280 716.5L1021 722.5Z" fill="#4E8FF0"/>
<path d="M1021 722.5L685.5 386.5V372L792.5 239H814L1280 716.5L1021 722.5Z" fill="url(#paint0_linear)"/>
<path d="M1403.5 722.5L1068 386.5V372L1175 239H1196.5L1662.5 716.5L1403.5 722.5Z" fill="#4E8FF0"/>
<path d="M1403.5 722.5L1068 386.5V372L1175 239H1196.5L1662.5 716.5L1403.5 722.5Z" fill="url(#paint1_linear)"/>
<path d="M1241 755.5L907.5 420.5L884 303L932 240.5L1005 252.5L1483.5 735L1241 755.5Z" fill="#4E8FF0"/>
<path d="M1241 755.5L907.5 420.5L884 303L932 240.5L1005 252.5L1483.5 735L1241 755.5Z" fill="url(#paint2_linear)"/>
<path d="M1141 783.5L799 440L805.5 433L819.5 386L861 368L1239.5 754L1141 783.5Z" fill="#4E8FF0"/>
<path d="M1141 783.5L799 440L805.5 433L819.5 386L861 368L1239.5 754L1141 783.5Z" fill="url(#paint3_linear)"/>
<path d="M1523.5 783.5L1181.5 440L1188 433L1202 386L1243.5 368L1622 754L1523.5 783.5Z" fill="#4E8FF0"/>
<path d="M1523.5 783.5L1181.5 440L1188 433L1202 386L1243.5 368L1622 754L1523.5 783.5Z" fill="url(#paint4_linear)"/>
<path d="M860.336 387.008H820.016V440H799.28V387.008H685.52V372.032L792.368 238.4H815.408L712.304 368.576H799.856V321.92H820.016V368.576H860.336V387.008ZM959.734 441.728C944.182 441.728 930.262 437.6 917.974 429.344C905.878 421.088 896.374 409.28 889.462 393.92C882.742 378.368 879.382 360.128 879.382 339.2C879.382 318.272 882.742 300.128 889.462 284.768C896.374 269.216 905.878 257.312 917.974 249.056C930.262 240.8 944.182 236.672 959.734 236.672C975.286 236.672 989.11 240.8 1001.21 249.056C1013.49 257.312 1023.09 269.216 1030.01 284.768C1036.92 300.128 1040.37 318.272 1040.37 339.2C1040.37 360.128 1036.92 378.368 1030.01 393.92C1023.09 409.28 1013.49 421.088 1001.21 429.344C989.11 437.6 975.286 441.728 959.734 441.728ZM959.734 422.72C971.446 422.72 981.718 419.456 990.55 412.928C999.574 406.4 1006.58 396.896 1011.57 384.416C1016.57 371.936 1019.06 356.864 1019.06 339.2C1019.06 321.536 1016.57 306.464 1011.57 293.984C1006.58 281.504 999.574 272 990.55 265.472C981.718 258.944 971.446 255.68 959.734 255.68C948.022 255.68 937.654 258.944 928.63 265.472C919.798 272 912.886 281.504 907.894 293.984C902.902 306.464 900.406 321.536 900.406 339.2C900.406 356.864 902.902 371.936 907.894 384.416C912.886 396.896 919.798 406.4 928.63 412.928C937.654 419.456 948.022 422.72 959.734 422.72ZM1241.43 387.008H1201.11V440H1180.37V387.008H1066.61V372.032L1173.46 238.4H1196.5L1093.4 368.576H1180.95V321.92H1201.11V368.576H1241.43V387.008Z" fill="white"/>
<path d="M1550 288L1527 266C1529.44 266.213 1531.86 266.766 1534.17 267.651L1548.27 281.143C1549.2 283.347 1549.78 285.662 1550 288Z" fill="#74ACFF"/>
<path d="M1548.2 295.25L1519.75 266.797C1521.1 266.402 1522.48 266.142 1523.86 266L1549 291.138C1548.86 292.524 1548.59 293.902 1548.2 295.25Z" fill="#74ACFF"/>
<path d="M1545.03 300.875L1514.13 269.971C1515.1 269.313 1516.12 268.734 1517.17 268.25L1546.75 297.831C1546.27 298.879 1545.69 299.892 1545.03 300.875Z" fill="#74ACFF"/>
<path d="M1542.53 305.014C1542.02 305.537 1541.49 306.03 1540.95 306.5L1509.63 274.134C1510.07 273.574 1510.55 273.029 1511.06 272.499C1511.36 272.192 1511.66 271.901 1511.96 271.625L1543.38 304.088C1543.1 304.402 1542.83 304.708 1542.53 305.014Z" fill="#74ACFF"/>
<path d="M1534.56 309.875L1505.13 280.441C1505.58 279.343 1506.12 278.275 1506.76 277.25L1537.75 308.243C1536.73 308.872 1535.66 309.421 1534.56 309.875Z" fill="#74ACFF"/>
<path d="M1527.86 311L1504 288.099C1504.07 286.721 1504.27 285.35 1504.61 284L1532.12 310.41C1530.72 310.737 1529.28 310.936 1527.86 311Z" fill="#74ACFF"/>
<path d="M1515.63 308.436L1506.57 299.374C1505.27 297.011 1504.41 294.477 1504 291.875L1523.12 311C1520.53 310.589 1518 309.736 1515.63 308.436Z" fill="#74ACFF"/>
<path d="M354 293.133L370.867 277C369.074 277.156 367.3 277.562 365.61 278.211L355.266 288.105C354.587 289.721 354.164 291.419 354 293.133Z" fill="#74ACFF"/>
<path d="M355.318 298.45L376.183 277.584C375.195 277.295 374.184 277.104 373.168 277L354.733 295.435C354.837 296.451 355.034 297.461 355.318 298.45Z" fill="#74ACFF"/>
<path d="M357.646 302.575L380.309 279.912C379.593 279.429 378.845 279.005 378.076 278.65L356.384 300.343C356.739 301.111 357.163 301.854 357.646 302.575Z" fill="#74ACFF"/>
<path d="M359.478 305.61C359.849 305.994 360.241 306.355 360.639 306.7L383.608 282.965C383.28 282.554 382.93 282.154 382.554 281.766C382.337 281.541 382.119 281.328 381.897 281.125L358.858 304.931C359.06 305.161 359.261 305.386 359.478 305.61Z" fill="#74ACFF"/>
<path d="M365.323 309.175L386.908 287.59C386.576 286.785 386.179 286.001 385.712 285.25L362.983 307.978C363.735 308.44 364.518 308.842 365.323 309.175Z" fill="#74ACFF"/>
<path d="M370.239 310L387.733 293.206C387.685 292.195 387.533 291.19 387.283 290.2L367.108 309.568C368.139 309.807 369.192 309.953 370.239 310Z" fill="#74ACFF"/>
<path d="M379.202 308.12L385.847 301.474C386.801 299.742 387.431 297.883 387.733 295.975L373.708 310C375.611 309.699 377.469 309.074 379.202 308.12Z" fill="#74ACFF"/>
<circle cx="459" cy="507" r="13.5" stroke="#74ACFF" stroke-width="3"/>
<circle cx="1319" cy="199" r="13.5" stroke="#74ACFF" stroke-width="3"/>
</g>
<defs>
<linearGradient id="paint0_linear" x1="767.539" y1="471.232" x2="1038.77" y2="729.587" gradientUnits="userSpaceOnUse">
<stop stop-color="#3280F2"/>
<stop offset="0.979941" stop-color="#599CFF"/>
</linearGradient>
<linearGradient id="paint1_linear" x1="1150.04" y1="471.232" x2="1516.59" y2="685.436" gradientUnits="userSpaceOnUse">
<stop stop-color="#3280F2"/>
<stop offset="0.979941" stop-color="#599CFF"/>
</linearGradient>
<linearGradient id="paint2_linear" x1="957" y1="454" x2="1288.5" y2="641.5" gradientUnits="userSpaceOnUse">
<stop stop-color="#2C79EB"/>
<stop offset="0.979941" stop-color="#599CFF"/>
</linearGradient>
<linearGradient id="paint3_linear" x1="859.787" y1="567.571" x2="1150.37" y2="713.982" gradientUnits="userSpaceOnUse">
<stop stop-color="#3280F2"/>
<stop offset="0.979941" stop-color="#599CFF"/>
</linearGradient>
<linearGradient id="paint4_linear" x1="1242.29" y1="567.571" x2="1532.87" y2="713.982" gradientUnits="userSpaceOnUse">
<stop stop-color="#3280F2"/>
<stop offset="0.979941" stop-color="#599CFF"/>
</linearGradient>
<clipPath id="clip0">
<rect width="1920" height="850" fill="white"/>
</clipPath>
</defs>
</svg>
