<svg width="402" height="203" viewBox="0 0 402 203" fill="none" xmlns="http://www.w3.org/2000/svg">
<path d="M297.243 199.66C297.243 199.66 271.466 156.819 270.326 156.819C269.191 156.819 244.549 170.087 243.031 170.465C241.512 170.843 203.987 139 203.987 139L175.841 142.789C175.841 142.789 36.8002 200.238 37.9403 200.238C39.0805 200.238 297.243 199.66 297.243 199.66Z" fill="#599CFF"/>
<path d="M239.211 199.66L243.031 170.465L270.326 156.819L239.211 199.66Z" fill="#599CFF"/>
<path d="M203.987 139C205.485 140.266 239.894 200 239.894 200H181.4L203.987 139Z" fill="url(#paint0_linear)"/>
<path d="M175.846 142.789L190.925 175.326L203.987 139L175.846 142.789Z" fill="url(#paint1_linear)"/>
<path d="M134.748 159.625L190.946 175.326L175.846 142.789L134.748 159.625Z" fill="#599CFF"/>
<path d="M182.5 200L134.748 159.625L190.946 175.326L182.5 200Z" fill="url(#paint2_linear)"/>
<path d="M108.5 200L134.748 159.625L182.599 200H108.5Z" fill="url(#paint3_linear)"/>
<path d="M33.1065 200.104L109 200L134.748 159.703L33.1065 200.104Z" fill="url(#paint4_linear)"/>
<path d="M333.018 28.2335L347.651 17.8607L336.991 0L333.018 28.2335Z" fill="#599CFF"/>
<path d="M323.246 6.23733L336.991 0L333.018 28.2335L323.246 6.23733Z" fill="url(#paint5_linear)"/>
<path d="M394 15L329.983 51.4971L295.042 113.755L237.021 119.331L182.5 200H396L394 15Z" fill="url(#paint6_linear)"/>
<path d="M396 74L330 51.5L396 14V74Z" fill="#599CFF"/>
<path d="M344 105L396 74L330 51.5L344 105Z" fill="url(#paint7_linear)"/>
<path d="M344 104L396 139V74L344 104Z" fill="url(#paint8_linear)"/>
<path d="M295 114L344 104L330 51.5L295 114Z" fill="url(#paint9_linear)"/>
<path d="M396 139L324 142L344 104L396 139Z" fill="url(#paint10_linear)"/>
<path d="M295 114C295 114 321.747 142.083 324 142C326.253 141.917 344 104 344 104L295 114Z" fill="#599CFF"/>
<path d="M396 139L372 176.982L396 199.5V139Z" fill="url(#paint11_linear)"/>
<path d="M324 142L372 177L396 139L324 142Z" fill="url(#paint12_linear)"/>
<path d="M295.064 114L261 133L324 142L295.064 114Z" fill="url(#paint13_linear)"/>
<path d="M237 119.4L261 133.027L295 114.027L237 119.4Z" fill="#599CFF"/>
<path d="M204 168C204.618 167.06 261 133 261 133L236.857 119L204 168Z" fill="url(#paint14_linear)"/>
<path d="M324 142C321.615 141.682 280.103 170 280.103 170L261 133L324 142Z" fill="#599CFF"/>
<path d="M182.5 200L280 170.021L204.154 168L182.5 200Z" fill="url(#paint15_linear)"/>
<path d="M316.382 200L280 170L370.5 176L316.382 200Z" fill="url(#paint16_linear)"/>
<path d="M323.75 49.1313L298.819 96.8125L287.701 50.2033L323.75 49.1313Z" fill="url(#paint17_linear)"/>
<path d="M305.639 13.9302L287.701 50.2033L323.75 49.1314L305.639 13.9302Z" fill="#599CFF"/>
<path d="M274.324 27.4085L287.701 50.2033L305.639 13.9302L274.324 27.4085Z" fill="url(#paint18_linear)"/>
<path d="M298.819 96.8125L274.324 27.4084L287.701 50.2033L298.819 96.8125Z" fill="url(#paint19_linear)"/>
<path d="M259.77 29.7205C259.77 29.1057 259.702 28.5067 259.581 27.9287L253.008 21.3551C252.43 21.2342 251.831 21.1659 251.217 21.1659C250.775 21.1659 250.344 21.1974 249.924 21.2657L259.676 31.0184C259.739 30.5928 259.77 30.1619 259.77 29.7205Z" fill="url(#paint20_linear)"/>
<path d="M245.821 23.0839L257.853 35.1171C258.31 34.5549 258.693 33.9348 258.998 33.2727L247.665 21.9384C247.003 22.2431 246.383 22.6267 245.821 23.0839Z" fill="url(#paint21_linear)"/>
<path d="M243.299 26.4836L254.453 37.6446C255.136 37.3661 255.777 36.9983 256.36 36.5621L244.381 24.5814C243.94 25.1594 243.577 25.8005 243.299 26.4836Z" fill="url(#paint22_linear)"/>
<path d="M251.217 38.2805C251.516 38.2805 251.816 38.2647 252.11 38.2332L242.705 28.8273C242.673 29.1215 242.658 29.4211 242.658 29.7206C242.658 30.5508 242.778 31.3548 242.999 32.1167L248.821 37.9389C249.583 38.1596 250.386 38.2805 251.217 38.2805Z" fill="url(#paint23_linear)"/>
<path d="M153.479 108.41L146.249 115.64L139.02 108.41L134.075 113.354L141.305 120.585L134.075 127.81L139.02 132.755L146.249 125.524L153.479 132.755L158.418 127.81L151.193 120.585L158.418 113.354L153.479 108.41Z" stroke="#599CFF" stroke-width="1.9044" stroke-miterlimit="10"/>
<path d="M201.099 72.1014C204.805 68.3954 204.812 62.3934 201.114 58.6956C197.417 54.9977 191.415 55.0044 187.71 58.7104C184.004 62.4164 183.997 68.4185 187.695 72.1163C191.392 75.8141 197.394 75.8075 201.099 72.1014Z" stroke="url(#paint24_linear)" stroke-width="2.4368" stroke-miterlimit="10"/>
<path d="M124 44.4773L138.633 29.843C137.078 29.9849 135.538 30.3527 134.072 30.9412L125.098 39.9163C124.51 41.3823 124.142 42.922 124 44.4773Z" fill="url(#paint25_linear)"/>
<path d="M124.578 50.494L144.649 30.421C143.698 30.1425 142.726 29.9586 141.749 29.8588L124.016 47.5934C124.116 48.5708 124.305 49.5429 124.578 50.494Z" fill="url(#paint26_linear)"/>
<path d="M126.685 54.9868L149.141 32.5282C148.432 32.05 147.691 31.6297 146.929 31.2776L125.434 52.7745C125.786 53.5365 126.207 54.2721 126.685 54.9868Z" fill="url(#paint27_linear)"/>
<path d="M128.671 57.3987C129.039 57.7665 129.428 58.1133 129.822 58.4443L152.598 35.6652C152.273 35.2711 151.926 34.8875 151.553 34.5145C151.337 34.299 151.122 34.0941 150.901 33.8997L128.056 56.7471C128.256 56.9678 128.456 57.1832 128.671 57.3987Z" fill="url(#paint28_linear)"/>
<path d="M133.941 60.9193L155.073 39.7849C154.747 38.9967 154.358 38.2296 153.901 37.4939L131.65 59.7475C132.386 60.1994 133.153 60.5935 133.941 60.9193Z" fill="url(#paint29_linear)"/>
<path d="M139.332 62.1174L156.271 45.1762C156.224 44.1568 156.077 43.1427 155.835 42.1443L136.3 61.6813C137.298 61.923 138.318 62.0701 139.332 62.1174Z" fill="url(#paint30_linear)"/>
<path d="M147.917 60.1311L154.285 53.7624C155.199 52.1019 155.803 50.3206 156.092 48.4919L142.652 61.9335C144.475 61.6444 146.257 61.0454 147.917 60.1311Z" fill="url(#paint31_linear)"/>
<defs>
<linearGradient id="paint0_linear" x1="162.117" y1="170.462" x2="212.932" y2="170.462" gradientUnits="userSpaceOnUse">
<stop offset="1.18052e-06" stop-color="#4834F7"/>
<stop offset="0.0247" stop-color="#4938F7"/>
<stop offset="0.3307" stop-color="#5063FB"/>
<stop offset="0.606" stop-color="#5582FD"/>
<stop offset="0.8385" stop-color="#5895FE"/>
<stop offset="1" stop-color="#599CFF"/>
</linearGradient>
<linearGradient id="paint1_linear" x1="164.79" y1="134.549" x2="193.798" y2="154.625" gradientUnits="userSpaceOnUse">
<stop offset="1.18052e-06" stop-color="#4834F7"/>
<stop offset="0.0247" stop-color="#4938F7"/>
<stop offset="0.3307" stop-color="#5063FB"/>
<stop offset="0.606" stop-color="#5582FD"/>
<stop offset="0.8385" stop-color="#5895FE"/>
<stop offset="1" stop-color="#599CFF"/>
</linearGradient>
<linearGradient id="paint2_linear" x1="156.591" y1="185.587" x2="174.016" y2="143.652" gradientUnits="userSpaceOnUse">
<stop offset="5.8563e-07" stop-color="#98FFAB"/>
<stop offset="0.1147" stop-color="#8CEDBB"/>
<stop offset="0.3684" stop-color="#76CAD8"/>
<stop offset="0.6078" stop-color="#66B1EE"/>
<stop offset="0.8249" stop-color="#5CA1FA"/>
<stop offset="1" stop-color="#599CFF"/>
</linearGradient>
<linearGradient id="paint3_linear" x1="108.671" y1="180.773" x2="182.465" y2="180.773" gradientUnits="userSpaceOnUse">
<stop offset="1.18052e-06" stop-color="#4834F7"/>
<stop offset="0.0247" stop-color="#4938F7"/>
<stop offset="0.3307" stop-color="#5063FB"/>
<stop offset="0.606" stop-color="#5582FD"/>
<stop offset="0.8385" stop-color="#5895FE"/>
<stop offset="1" stop-color="#599CFF"/>
</linearGradient>
<linearGradient id="paint4_linear" x1="91.1451" y1="193.405" x2="81.2787" y2="176.318" gradientUnits="userSpaceOnUse">
<stop stop-color="#84E0C5"/>
<stop offset="0.3486" stop-color="#77CCD6"/>
<stop offset="1" stop-color="#599CFF"/>
</linearGradient>
<linearGradient id="paint5_linear" x1="326.744" y1="14.1176" x2="338.688" y2="14.1176" gradientUnits="userSpaceOnUse">
<stop offset="0.00540541" stop-color="#94D1FF"/>
<stop offset="0.1078" stop-color="#88C6FA"/>
<stop offset="0.4978" stop-color="#60A1EA"/>
<stop offset="0.8068" stop-color="#478AE1"/>
<stop offset="0.9946" stop-color="#3E81DD"/>
</linearGradient>
<linearGradient id="paint6_linear" x1="272.18" y1="110.387" x2="385.435" y2="107.239" gradientUnits="userSpaceOnUse">
<stop offset="1.18052e-06" stop-color="#4834F7"/>
<stop offset="0.0247" stop-color="#4938F7"/>
<stop offset="0.3307" stop-color="#5063FB"/>
<stop offset="0.606" stop-color="#5582FD"/>
<stop offset="0.8385" stop-color="#5895FE"/>
<stop offset="1" stop-color="#599CFF"/>
</linearGradient>
<linearGradient id="paint7_linear" x1="337.494" y1="77.6499" x2="399.666" y2="42.0196" gradientUnits="userSpaceOnUse">
<stop offset="1.18052e-06" stop-color="#4834F7"/>
<stop offset="0.0247" stop-color="#4938F7"/>
<stop offset="0.3307" stop-color="#5063FB"/>
<stop offset="0.606" stop-color="#5582FD"/>
<stop offset="0.8385" stop-color="#5895FE"/>
<stop offset="1" stop-color="#599CFF"/>
</linearGradient>
<linearGradient id="paint8_linear" x1="344.057" y1="107.238" x2="397.471" y2="106.357" gradientUnits="userSpaceOnUse">
<stop offset="5.8563e-07" stop-color="#98FFAB"/>
<stop offset="0.1147" stop-color="#8CEDBB"/>
<stop offset="0.3684" stop-color="#76CAD8"/>
<stop offset="0.6078" stop-color="#66B1EE"/>
<stop offset="0.8249" stop-color="#5CA1FA"/>
<stop offset="1" stop-color="#599CFF"/>
</linearGradient>
<linearGradient id="paint9_linear" x1="269.287" y1="110.214" x2="331.684" y2="74.6028" gradientUnits="userSpaceOnUse">
<stop stop-color="#D1FF76"/>
<stop offset="0.445" stop-color="#AAFD9D"/>
<stop offset="0.8001" stop-color="#75DEB0"/>
<stop offset="1" stop-color="#5CCFB9"/>
</linearGradient>
<linearGradient id="paint10_linear" x1="323.7" y1="123.135" x2="397.726" y2="121.925" gradientUnits="userSpaceOnUse">
<stop offset="1.18052e-06" stop-color="#4834F7"/>
<stop offset="0.0247" stop-color="#4938F7"/>
<stop offset="0.3307" stop-color="#5063FB"/>
<stop offset="0.606" stop-color="#5582FD"/>
<stop offset="0.8385" stop-color="#5895FE"/>
<stop offset="1" stop-color="#599CFF"/>
</linearGradient>
<linearGradient id="paint11_linear" x1="371.865" y1="167.867" x2="398.549" y2="167.43" gradientUnits="userSpaceOnUse">
<stop offset="1.18052e-06" stop-color="#4834F7"/>
<stop offset="0.0247" stop-color="#4938F7"/>
<stop offset="0.3307" stop-color="#5063FB"/>
<stop offset="0.606" stop-color="#5582FD"/>
<stop offset="0.8385" stop-color="#5895FE"/>
<stop offset="1" stop-color="#599CFF"/>
</linearGradient>
<linearGradient id="paint12_linear" x1="364.043" y1="156.965" x2="296.64" y2="168.534" gradientUnits="userSpaceOnUse">
<stop offset="1.18052e-06" stop-color="#4834F7"/>
<stop offset="0.0247" stop-color="#4938F7"/>
<stop offset="0.3307" stop-color="#5063FB"/>
<stop offset="0.606" stop-color="#5582FD"/>
<stop offset="0.8385" stop-color="#5895FE"/>
<stop offset="1" stop-color="#599CFF"/>
</linearGradient>
<linearGradient id="paint13_linear" x1="260.928" y1="128.666" x2="323.769" y2="127.618" gradientUnits="userSpaceOnUse">
<stop offset="5.8563e-07" stop-color="#98FFAB"/>
<stop offset="0.1147" stop-color="#8CEDBB"/>
<stop offset="0.3684" stop-color="#76CAD8"/>
<stop offset="0.6078" stop-color="#66B1EE"/>
<stop offset="0.8249" stop-color="#5CA1FA"/>
<stop offset="1" stop-color="#599CFF"/>
</linearGradient>
<linearGradient id="paint14_linear" x1="213.905" y1="157.485" x2="265.337" y2="102.418" gradientUnits="userSpaceOnUse">
<stop offset="5.8563e-07" stop-color="#98FFAB"/>
<stop offset="0.1147" stop-color="#8CEDBB"/>
<stop offset="0.3684" stop-color="#76CAD8"/>
<stop offset="0.6078" stop-color="#66B1EE"/>
<stop offset="0.8249" stop-color="#5CA1FA"/>
<stop offset="1" stop-color="#599CFF"/>
</linearGradient>
<linearGradient id="paint15_linear" x1="181.736" y1="185.156" x2="280.229" y2="183.551" gradientUnits="userSpaceOnUse">
<stop stop-color="#D1FF76"/>
<stop offset="0.445" stop-color="#AAFD9D"/>
<stop offset="0.8001" stop-color="#75DEB0"/>
<stop offset="1" stop-color="#5CCFB9"/>
</linearGradient>
<linearGradient id="paint16_linear" x1="301.096" y1="192.572" x2="346.708" y2="149.974" gradientUnits="userSpaceOnUse">
<stop offset="1.18052e-06" stop-color="#4834F7"/>
<stop offset="0.0247" stop-color="#4938F7"/>
<stop offset="0.3307" stop-color="#5063FB"/>
<stop offset="0.606" stop-color="#5582FD"/>
<stop offset="0.8385" stop-color="#5895FE"/>
<stop offset="1" stop-color="#599CFF"/>
</linearGradient>
<linearGradient id="paint17_linear" x1="303.512" y1="69.1481" x2="311.509" y2="-1.21876" gradientUnits="userSpaceOnUse">
<stop offset="1.18052e-06" stop-color="#4834F7"/>
<stop offset="0.0247" stop-color="#4938F7"/>
<stop offset="0.3307" stop-color="#5063FB"/>
<stop offset="0.606" stop-color="#5582FD"/>
<stop offset="0.8385" stop-color="#5895FE"/>
<stop offset="1" stop-color="#599CFF"/>
</linearGradient>
<linearGradient id="paint18_linear" x1="274.323" y1="32.0683" x2="305.641" y2="32.0683" gradientUnits="userSpaceOnUse">
<stop stop-color="#D1FF76"/>
<stop offset="0.445" stop-color="#AAFD9D"/>
<stop offset="0.8001" stop-color="#75DEB0"/>
<stop offset="1" stop-color="#5CCFB9"/>
</linearGradient>
<linearGradient id="paint19_linear" x1="313.267" y1="83.9956" x2="278.414" y2="55.4303" gradientUnits="userSpaceOnUse">
<stop offset="5.8563e-07" stop-color="#98FFAB"/>
<stop offset="0.1147" stop-color="#8CEDBB"/>
<stop offset="0.3684" stop-color="#76CAD8"/>
<stop offset="0.6078" stop-color="#66B1EE"/>
<stop offset="0.8249" stop-color="#5CA1FA"/>
<stop offset="1" stop-color="#599CFF"/>
</linearGradient>
<linearGradient id="paint20_linear" x1="249.923" y1="26.0916" x2="259.772" y2="26.0916" gradientUnits="userSpaceOnUse">
<stop stop-color="#B5FE92"/>
<stop offset="0.8204" stop-color="#AAFD9D"/>
</linearGradient>
<linearGradient id="paint21_linear" x1="245.82" y1="28.5296" x2="259" y2="28.5296" gradientUnits="userSpaceOnUse">
<stop stop-color="#B5FE92"/>
<stop offset="0.8204" stop-color="#AAFD9D"/>
</linearGradient>
<linearGradient id="paint22_linear" x1="243.296" y1="31.111" x2="256.361" y2="31.111" gradientUnits="userSpaceOnUse">
<stop stop-color="#B5FE92"/>
<stop offset="0.8204" stop-color="#AAFD9D"/>
</linearGradient>
<linearGradient id="paint23_linear" x1="242.661" y1="33.5544" x2="252.11" y2="33.5544" gradientUnits="userSpaceOnUse">
<stop stop-color="#B5FE92"/>
<stop offset="0.8204" stop-color="#AAFD9D"/>
</linearGradient>
<linearGradient id="paint24_linear" x1="187.251" y1="72.5621" x2="201.562" y2="58.2518" gradientUnits="userSpaceOnUse">
<stop stop-color="#FFFF00"/>
<stop offset="0.00837721" stop-color="#FFFF00"/>
<stop offset="0.0196" stop-color="#FFFE00"/>
<stop offset="0.4077" stop-color="#FBE10C"/>
<stop offset="0.7436" stop-color="#F8CF13"/>
<stop offset="0.9874" stop-color="#F7C915"/>
<stop offset="1" stop-color="#F7C915"/>
</linearGradient>
<linearGradient id="paint25_linear" x1="124.001" y1="37.1608" x2="138.632" y2="37.1608" gradientUnits="userSpaceOnUse">
<stop offset="5.8563e-07" stop-color="#98FFAB"/>
<stop offset="0.1147" stop-color="#8CEDBB"/>
<stop offset="0.3684" stop-color="#76CAD8"/>
<stop offset="0.6078" stop-color="#66B1EE"/>
<stop offset="0.8249" stop-color="#5CA1FA"/>
<stop offset="1" stop-color="#599CFF"/>
</linearGradient>
<linearGradient id="paint26_linear" x1="124.016" y1="40.1767" x2="144.648" y2="40.1767" gradientUnits="userSpaceOnUse">
<stop offset="5.8563e-07" stop-color="#98FFAB"/>
<stop offset="0.1147" stop-color="#8CEDBB"/>
<stop offset="0.3684" stop-color="#76CAD8"/>
<stop offset="0.6078" stop-color="#66B1EE"/>
<stop offset="0.8249" stop-color="#5CA1FA"/>
<stop offset="1" stop-color="#599CFF"/>
</linearGradient>
<linearGradient id="paint27_linear" x1="125.433" y1="43.1302" x2="149.138" y2="43.1302" gradientUnits="userSpaceOnUse">
<stop offset="5.8563e-07" stop-color="#98FFAB"/>
<stop offset="0.1147" stop-color="#8CEDBB"/>
<stop offset="0.3684" stop-color="#76CAD8"/>
<stop offset="0.6078" stop-color="#66B1EE"/>
<stop offset="0.8249" stop-color="#5CA1FA"/>
<stop offset="1" stop-color="#599CFF"/>
</linearGradient>
<linearGradient id="paint28_linear" x1="128.055" y1="46.1702" x2="152.596" y2="46.1702" gradientUnits="userSpaceOnUse">
<stop offset="5.8563e-07" stop-color="#98FFAB"/>
<stop offset="0.1147" stop-color="#8CEDBB"/>
<stop offset="0.3684" stop-color="#76CAD8"/>
<stop offset="0.6078" stop-color="#66B1EE"/>
<stop offset="0.8249" stop-color="#5CA1FA"/>
<stop offset="1" stop-color="#599CFF"/>
</linearGradient>
<linearGradient id="paint29_linear" x1="131.648" y1="49.2048" x2="155.071" y2="49.2048" gradientUnits="userSpaceOnUse">
<stop offset="5.8563e-07" stop-color="#98FFAB"/>
<stop offset="0.1147" stop-color="#8CEDBB"/>
<stop offset="0.3684" stop-color="#76CAD8"/>
<stop offset="0.6078" stop-color="#66B1EE"/>
<stop offset="0.8249" stop-color="#5CA1FA"/>
<stop offset="1" stop-color="#599CFF"/>
</linearGradient>
<linearGradient id="paint30_linear" x1="136.304" y1="52.1343" x2="156.273" y2="52.1343" gradientUnits="userSpaceOnUse">
<stop offset="5.8563e-07" stop-color="#98FFAB"/>
<stop offset="0.1147" stop-color="#8CEDBB"/>
<stop offset="0.3684" stop-color="#76CAD8"/>
<stop offset="0.6078" stop-color="#66B1EE"/>
<stop offset="0.8249" stop-color="#5CA1FA"/>
<stop offset="1" stop-color="#599CFF"/>
</linearGradient>
<linearGradient id="paint31_linear" x1="142.649" y1="55.2146" x2="156.089" y2="55.2146" gradientUnits="userSpaceOnUse">
<stop offset="5.8563e-07" stop-color="#98FFAB"/>
<stop offset="0.1147" stop-color="#8CEDBB"/>
<stop offset="0.3684" stop-color="#76CAD8"/>
<stop offset="0.6078" stop-color="#66B1EE"/>
<stop offset="0.8249" stop-color="#5CA1FA"/>
<stop offset="1" stop-color="#599CFF"/>
</linearGradient>
</defs>
</svg>
