<svg id="Слой_1" data-name="Слой 1" xmlns="http://www.w3.org/2000/svg" xmlns:xlink="http://www.w3.org/1999/xlink" viewBox="0 0 362.94 200.12"><defs><style>.cls-1{fill:#599cff;}.cls-2{fill:url(#Безымянный_градиент);}.cls-3{fill:url(#Безымянный_градиент_2);}.cls-4{fill:url(#Безымянный_градиент_3);}.cls-5{fill:url(#Безымянный_градиент_4);}.cls-6{fill:url(#Безымянный_градиент_5);}.cls-7{fill:url(#Безымянный_градиент_6);}.cls-8{fill:url(#Безымянный_градиент_7);}.cls-9{fill:url(#Безымянный_градиент_8);}.cls-10{fill:url(#Безымянный_градиент_9);}.cls-11{fill:url(#Безымянный_градиент_10);}.cls-12{fill:url(#Безымянный_градиент_11);}.cls-13{fill:url(#Безымянный_градиент_12);}.cls-14{fill:url(#Безымянный_градиент_13);}.cls-15{fill:url(#Безымянный_градиент_14);}.cls-16{fill:url(#Безымянный_градиент_15);}.cls-17{fill:url(#Безымянный_градиент_16);}.cls-18{fill:url(#Безымянный_градиент_17);}.cls-19{fill:url(#Безымянный_градиент_18);}.cls-20{fill:url(#Безымянный_градиент_19);}.cls-21{fill:url(#Безымянный_градиент_20);}.cls-22{fill:url(#Безымянный_градиент_21);}.cls-23{fill:url(#Безымянный_градиент_22);}.cls-24{fill:url(#Безымянный_градиент_23);}.cls-25{fill:url(#Безымянный_градиент_24);}.cls-26,.cls-27{fill:none;stroke-miterlimit:10;}.cls-26{stroke:#599cff;stroke-width:1.9px;}.cls-27{stroke-width:2.44px;stroke:url(#Безымянный_градиент_25);}.cls-28{fill:url(#Безымянный_градиент_26);}.cls-29{fill:url(#Безымянный_градиент_27);}.cls-30{fill:url(#Безымянный_градиент_28);}.cls-31{fill:url(#Безымянный_градиент_29);}.cls-32{fill:url(#Безымянный_градиент_30);}.cls-33{fill:url(#Безымянный_градиент_31);}.cls-34{fill:url(#Безымянный_градиент_32);}</style><linearGradient id="Безымянный_градиент" x1="936.12" y1="31.62" x2="986.93" y2="31.62" gradientTransform="matrix(1, 0, 0, -1, 0, 248)" gradientUnits="userSpaceOnUse"><stop offset="0" stop-color="#4834f7"/><stop offset="0.02" stop-color="#4938f7"/><stop offset="0.33" stop-color="#5063fb"/><stop offset="0.61" stop-color="#5582fd"/><stop offset="0.84" stop-color="#5895fe"/><stop offset="1" stop-color="#599cff"/></linearGradient><linearGradient id="Безымянный_градиент_2" x1="938.79" y1="66.57" x2="967.8" y2="46.49" xlink:href="#Безымянный_градиент"/><linearGradient id="Безымянный_градиент_3" x1="930.28" y1="15.66" x2="947.7" y2="57.6" gradientTransform="matrix(1, 0, 0, -1, 0, 248)" gradientUnits="userSpaceOnUse"><stop offset="0" stop-color="#98ffab"/><stop offset="0.11" stop-color="#8cedbb"/><stop offset="0.37" stop-color="#76cad8"/><stop offset="0.61" stop-color="#66b1ee"/><stop offset="0.82" stop-color="#5ca1fa"/><stop offset="1" stop-color="#599cff"/></linearGradient><linearGradient id="Безымянный_градиент_4" x1="882.67" y1="21.25" x2="956.47" y2="21.25" xlink:href="#Безымянный_градиент"/><linearGradient id="Безымянный_градиент_5" x1="865.53" y1="7.95" x2="855.67" y2="25.04" gradientTransform="matrix(1, 0, 0, -1, 0, 248)" gradientUnits="userSpaceOnUse"><stop offset="0" stop-color="#84e0c5"/><stop offset="0.35" stop-color="#77ccd6"/><stop offset="1" stop-color="#599cff"/></linearGradient><linearGradient id="Безымянный_градиент_6" x1="1100.74" y1="187" x2="1112.69" y2="187" gradientTransform="matrix(1, 0, 0, -1, 0, 248)" gradientUnits="userSpaceOnUse"><stop offset="0.01" stop-color="#94d1ff"/><stop offset="0.11" stop-color="#88c6fa"/><stop offset="0.5" stop-color="#60a1ea"/><stop offset="0.81" stop-color="#478ae1"/><stop offset="0.99" stop-color="#3e81dd"/></linearGradient><linearGradient id="Безымянный_градиент_7" x1="1046.19" y1="90.15" x2="1159.45" y2="93.29" xlink:href="#Безымянный_градиент"/><linearGradient id="Безымянный_градиент_8" x1="1111.63" y1="123.23" x2="1173.81" y2="158.86" xlink:href="#Безымянный_градиент"/><linearGradient id="Безымянный_градиент_9" x1="1118.06" y1="93.76" x2="1171.47" y2="94.64" xlink:href="#Безымянный_градиент_3"/><linearGradient id="Безымянный_градиент_10" x1="1045.95" y1="86.24" x2="1108.34" y2="121.85" gradientTransform="matrix(1, 0, 0, -1, 0, 248)" gradientUnits="userSpaceOnUse"><stop offset="0" stop-color="#d1ff76"/><stop offset="0.45" stop-color="#aafd9d"/><stop offset="0.8" stop-color="#75deb0"/><stop offset="1" stop-color="#5ccfb9"/></linearGradient><linearGradient id="Безымянный_градиент_11" x1="1097.69" y1="77.95" x2="1171.72" y2="79.16" xlink:href="#Безымянный_градиент"/><linearGradient id="Безымянный_градиент_12" x1="1145.88" y1="31.47" x2="1172.57" y2="31.91" xlink:href="#Безымянный_градиент"/><linearGradient id="Безымянный_градиент_13" x1="1138" y1="44.37" x2="1070.6" y2="32.8" xlink:href="#Безымянный_градиент"/><linearGradient id="Безымянный_градиент_14" x1="1034.93" y1="72.31" x2="1097.76" y2="73.36" xlink:href="#Безымянный_градиент_3"/><linearGradient id="Безымянный_градиент_15" x1="990.9" y1="40.83" x2="1042.34" y2="95.9" xlink:href="#Безымянный_градиент_3"/><linearGradient id="Безымянный_градиент_16" x1="955.72" y1="16.93" x2="1054.21" y2="18.53" xlink:href="#Безымянный_градиент_10"/><linearGradient id="Безымянный_градиент_17" x1="1076.58" y1="6.94" x2="1122.19" y2="49.54" xlink:href="#Безымянный_градиент"/><linearGradient id="Безымянный_градиент_18" x1="1077.51" y1="131.97" x2="1085.51" y2="202.34" xlink:href="#Безымянный_градиент"/><linearGradient id="Безымянный_градиент_19" x1="1048.32" y1="169.05" x2="1079.64" y2="169.05" xlink:href="#Безымянный_градиент_10"/><linearGradient id="Безымянный_градиент_20" x1="1087.27" y1="117.13" x2="1052.41" y2="145.69" xlink:href="#Безымянный_градиент_3"/><linearGradient id="Безымянный_градиент_21" x1="1023.92" y1="175.03" x2="1033.77" y2="175.03" gradientTransform="matrix(1, 0, 0, -1, 0, 248)" gradientUnits="userSpaceOnUse"><stop offset="0" stop-color="#b5fe92"/><stop offset="0.82" stop-color="#aafd9d"/></linearGradient><linearGradient id="Безымянный_градиент_22" x1="1019.82" y1="172.59" x2="1033" y2="172.59" xlink:href="#Безымянный_градиент_21"/><linearGradient id="Безымянный_градиент_23" x1="1017.3" y1="170.01" x2="1030.36" y2="170.01" xlink:href="#Безымянный_градиент_21"/><linearGradient id="Безымянный_градиент_24" x1="1016.66" y1="167.57" x2="1026.11" y2="167.57" xlink:href="#Безымянный_градиент_21"/><linearGradient id="Безымянный_градиент_25" x1="961.25" y1="128.56" x2="975.56" y2="142.87" gradientTransform="matrix(1, 0, 0, -1, 0, 248)" gradientUnits="userSpaceOnUse"><stop offset="0" stop-color="#ff0"/><stop offset="0.01" stop-color="#ff0"/><stop offset="0.02" stop-color="#fffe00"/><stop offset="0.41" stop-color="#fbe10c"/><stop offset="0.74" stop-color="#f8cf13"/><stop offset="0.99" stop-color="#f7c915"/><stop offset="1" stop-color="#f7c915"/></linearGradient><linearGradient id="Безымянный_градиент_26" x1="898" y1="163.96" x2="912.63" y2="163.96" xlink:href="#Безымянный_градиент_3"/><linearGradient id="Безымянный_градиент_27" x1="898.02" y1="160.94" x2="918.65" y2="160.94" xlink:href="#Безымянный_градиент_3"/><linearGradient id="Безымянный_градиент_28" x1="899.43" y1="157.99" x2="923.14" y2="157.99" xlink:href="#Безымянный_градиент_3"/><linearGradient id="Безымянный_градиент_29" x1="902.06" y1="154.95" x2="926.6" y2="154.95" xlink:href="#Безымянный_градиент_3"/><linearGradient id="Безымянный_градиент_30" x1="905.65" y1="151.91" x2="929.07" y2="151.91" xlink:href="#Безымянный_градиент_3"/><linearGradient id="Безымянный_градиент_31" x1="910.3" y1="148.99" x2="930.27" y2="148.99" xlink:href="#Безымянный_градиент_3"/><linearGradient id="Безымянный_градиент_32" x1="916.65" y1="145.91" x2="930.09" y2="145.91" xlink:href="#Безымянный_градиент_3"/></defs><path class="cls-1" d="M1071.65,247s-26.18-43.3-27.32-43.3S1018.55,217,1017,217.35s-39-31.47-39-31.47l-28.15,3.79S810.82,247,812,247Z" transform="translate(-807.06 -46.88)"/><path class="cls-1" d="M1013.21,246.54l3.82-29.19,27.3-13.65Z" transform="translate(-807.06 -46.88)"/><path class="cls-2" d="M978,185.88c1.49,1.27,35.9,61,35.9,61H955.4Z" transform="translate(-807.06 -46.88)"/><path class="cls-3" d="M949.85,189.67l15.07,32.54L978,185.88Z" transform="translate(-807.06 -46.88)"/><path class="cls-1" d="M908.75,206.51l56.2,15.7-15.1-32.54Z" transform="translate(-807.06 -46.88)"/><path class="cls-4" d="M956.5,246.88l-47.75-40.37,56.2,15.7Z" transform="translate(-807.06 -46.88)"/><path class="cls-5" d="M882.5,247l26.25-40.48L956.6,247Z" transform="translate(-807.06 -46.88)"/><path class="cls-6" d="M807.06,247l75.89-.1,25.75-40.3Z" transform="translate(-807.06 -46.88)"/><path class="cls-1" d="M1107,75.11l14.63-10.37L1111,46.88Z" transform="translate(-807.06 -46.88)"/><path class="cls-7" d="M1097.25,53.12,1111,46.88l-4,28.23Z" transform="translate(-807.06 -46.88)"/><path class="cls-8" d="M1168,61.88,1104,98.4,1069,160.7l-58,5.58L956.5,247H1170Z" transform="translate(-807.06 -46.88)"/><path class="cls-1" d="M1170,120.88l-66-22.5,66-37.5Z" transform="translate(-807.06 -46.88)"/><path class="cls-9" d="M1118,151.88l52-31-66-22.5Z" transform="translate(-807.06 -46.88)"/><path class="cls-10" d="M1118,150.88l52,35v-65Z" transform="translate(-807.06 -46.88)"/><path class="cls-11" d="M1069,160.88l49-10-14-52.5Z" transform="translate(-807.06 -46.88)"/><path class="cls-12" d="M1170,185.88l-72,3,20-38Z" transform="translate(-807.06 -46.88)"/><path class="cls-1" d="M1069,160.88s26.75,28.08,29,28,20-38,20-38Z" transform="translate(-807.06 -46.88)"/><path class="cls-13" d="M1170,185.88l-24,38,24,22.52Z" transform="translate(-807.06 -46.88)"/><path class="cls-14" d="M1098,188.88l48,35,24-38Z" transform="translate(-807.06 -46.88)"/><path class="cls-15" d="M1069.06,160.88l-34.06,19,63,9Z" transform="translate(-807.06 -46.88)"/><path class="cls-1" d="M1011,166.28l24,13.63,34-19Z" transform="translate(-807.06 -46.88)"/><path class="cls-16" d="M978,214.88c.62-.94,57-35,57-35l-24.14-14Z" transform="translate(-807.06 -46.88)"/><path class="cls-1" d="M1098,188.88c-2.38-.32-43.9,28-43.9,28l-19.1-37Z" transform="translate(-807.06 -46.88)"/><path class="cls-17" d="M956.5,246.88l97.5-30-75.85-2Z" transform="translate(-807.06 -46.88)"/><path class="cls-18" d="M1090.38,246.88l-36.38-30,90.5,6Z" transform="translate(-807.06 -46.88)"/><path class="cls-19" d="M1097.75,96l-24.93,47.68L1061.7,97.08Z" transform="translate(-807.06 -46.88)"/><path class="cls-1" d="M1079.64,60.81,1061.7,97.08l36-1.07Z" transform="translate(-807.06 -46.88)"/><path class="cls-20" d="M1048.32,74.29l13.38,22.79,17.94-36.27Z" transform="translate(-807.06 -46.88)"/><path class="cls-21" d="M1072.82,143.69l-24.5-69.4,13.38,22.79Z" transform="translate(-807.06 -46.88)"/><path class="cls-22" d="M1033.77,76.6a8.84,8.84,0,0,0-.19-1.79L1027,68.24a8.84,8.84,0,0,0-1.79-.19,8,8,0,0,0-1.3.1l9.76,9.75A9.36,9.36,0,0,0,1033.77,76.6Z" transform="translate(-807.06 -46.88)"/><path class="cls-23" d="M1019.82,70l12,12a8.56,8.56,0,0,0,1.15-1.85l-11.34-11.33A8.7,8.7,0,0,0,1019.82,70Z" transform="translate(-807.06 -46.88)"/><path class="cls-24" d="M1017.3,73.36l11.15,11.17a8.37,8.37,0,0,0,1.91-1.09l-12-12A8.48,8.48,0,0,0,1017.3,73.36Z" transform="translate(-807.06 -46.88)"/><path class="cls-25" d="M1025.22,85.16a6.55,6.55,0,0,0,.89,0l-9.41-9.4A8.95,8.95,0,0,0,1017,79l5.82,5.82A8.64,8.64,0,0,0,1025.22,85.16Z" transform="translate(-807.06 -46.88)"/><path class="cls-26" d="M927.48,155.29l-7.23,7.23L913,155.29l-4.94,5,7.22,7.23-7.22,7.22,4.94,4.95,7.23-7.24,7.23,7.24,4.94-4.95-7.23-7.22,7.23-7.23Z" transform="translate(-807.06 -46.88)"/><path class="cls-27" d="M975.1,119a9.47,9.47,0,1,0-13.4,0A9.48,9.48,0,0,0,975.1,119Z" transform="translate(-807.06 -46.88)"/><path class="cls-28" d="M898,91.36l14.63-14.64a16.51,16.51,0,0,0-4.56,1.1l-9,9A16,16,0,0,0,898,91.36Z" transform="translate(-807.06 -46.88)"/><path class="cls-29" d="M898.58,97.38,918.65,77.3a16,16,0,0,0-2.9-.56L898,94.47A16.25,16.25,0,0,0,898.58,97.38Z" transform="translate(-807.06 -46.88)"/><path class="cls-30" d="M900.68,101.87l22.46-22.46a15.62,15.62,0,0,0-2.21-1.25l-21.5,21.5A18.64,18.64,0,0,0,900.68,101.87Z" transform="translate(-807.06 -46.88)"/><path class="cls-31" d="M902.67,104.28c.37.37.76.71,1.15,1L926.6,82.55a14.15,14.15,0,0,0-1.05-1.15c-.21-.22-.43-.42-.65-.62l-22.84,22.85Z" transform="translate(-807.06 -46.88)"/><path class="cls-32" d="M907.94,107.8l21.13-21.13a15.08,15.08,0,0,0-1.17-2.3l-22.25,22.26A17,17,0,0,0,907.94,107.8Z" transform="translate(-807.06 -46.88)"/><path class="cls-33" d="M913.33,109l16.94-16.94a16.27,16.27,0,0,0-.43-3L910.3,108.56A16.53,16.53,0,0,0,913.33,109Z" transform="translate(-807.06 -46.88)"/><path class="cls-34" d="M921.92,107l6.36-6.37a16,16,0,0,0,1.81-5.27l-13.44,13.44A15.85,15.85,0,0,0,921.92,107Z" transform="translate(-807.06 -46.88)"/></svg>