<svg id="Слой_1" data-name="Слой 1" xmlns="http://www.w3.org/2000/svg" viewBox="0 0 425.08 302.19"><defs><style>.cls-1{fill:#fefefe;}</style></defs><path class="cls-1" d="M767,590.67c-.29-1.79-1.8-15.12-2.61-21.64-1.14-9.16-2.78-18.26-4.72-27.31a298.52,298.52,0,0,0-18.73-57.85,305.43,305.43,0,0,0-23.31-43.3,339.93,339.93,0,0,0-25.28-33.91,285.35,285.35,0,0,0-23.48-24.45A305.06,305.06,0,0,0,624,347.4a310.16,310.16,0,0,0-112-43.53c-8.19-1.49-27.51-3.28-30.63-4.11,1,0,2-.05,3-.05H767Z" transform="translate(-481.35 -299.71)"/><path class="cls-1" d="M906.43,601.91a9.77,9.77,0,0,1,0-8.24Z" transform="translate(-481.35 -299.71)"/></svg>