<?xml version="1.0" encoding="UTF-8"?>
<!DOCTYPE svg PUBLIC "-//W3C//DTD SVG 1.1//EN" "http://www.w3.org/Graphics/SVG/1.1/DTD/svg11.dtd">
<!-- Creator: CorelDRAW 2019 (64-Bit) -->
<svg xmlns="http://www.w3.org/2000/svg" xml:space="preserve" width="245.386mm" height="249.952mm" version="1.1" style="shape-rendering:geometricPrecision; text-rendering:geometricPrecision; image-rendering:optimizeQuality; fill-rule:evenodd; clip-rule:evenodd"
viewBox="0 0 24523.87 24980.2"
 xmlns:xlink="http://www.w3.org/1999/xlink"
 xmlns:xodm="http://www.corel.com/coreldraw/odm/2003">
 <defs>
  <style type="text/css">
   <![CDATA[
    .fil0 {fill:#FEFEFE;fill-rule:nonzero}
   ]]>
  </style>
 </defs>
 <g id="Слой_x0020_1">
  <metadata id="CorelCorpID_0Corel-Layer"/>
  <path class="fil0" d="M24523.87 24980.2c-24.91,-153.71 -155.1,-1290.15 -224.66,-1850.02 -97.89,-786.58 -238.72,-1568 -405.31,-2345.13 -363.6,-1701.76 -908.11,-3375.95 -1609.08,-4968.79 -564.92,-1285.98 -1235.98,-2535.42 -1999.7,-3717.72 -659.98,-1011.25 -1389.68,-1990.11 -2169.21,-2912.02 -631.04,-734.29 -1310.62,-1443.93 -2020.28,-2102.47 -1183.86,-1111.95 -2481.23,-2115.34 -3852.07,-2987.71 -2925.78,-1856.82 -6201.21,-3133.14 -9615.79,-3739.91 -705.13,-125.3 -2359.86,-283.84 -2627.78,-355.12l24523.34 -1.33 0.53 24980.2z"/>
 </g>
</svg>
