<svg width="1920" height="933" viewBox="0 0 1920 933" fill="none" xmlns="http://www.w3.org/2000/svg">
<path d="M172 389.25L151.75 369C153.902 369.196 156.033 369.705 158.061 370.52L170.48 382.939C171.295 384.967 171.804 387.098 172 389.25Z" fill="#E3EBFB"/>
<path d="M171.203 398.25L142.75 369.797C144.098 369.402 145.476 369.142 146.862 369L172 394.138C171.858 395.524 171.59 396.902 171.203 398.25Z" fill="#E3EBFB"/>
<path d="M168.029 403.875L137.125 372.971C138.101 372.313 139.121 371.734 140.169 371.25L169.75 400.831C169.266 401.879 168.687 402.892 168.029 403.875Z" fill="#E3EBFB"/>
<path d="M165.53 408.014C165.024 408.537 164.489 409.03 163.947 409.5L132.625 377.134C133.073 376.574 133.55 376.029 134.063 375.499C134.359 375.192 134.655 374.901 134.959 374.625L166.375 407.088C166.1 407.402 165.826 407.708 165.53 408.014Z" fill="#E3EBFB"/>
<path d="M157.559 412.875L128.125 383.441C128.579 382.343 129.12 381.275 129.757 380.25L160.75 411.243C159.725 411.872 158.657 412.421 157.559 412.875Z" fill="#E3EBFB"/>
<path d="M150.856 414L127 391.099C127.067 389.721 127.274 388.35 127.614 387L155.125 413.41C153.719 413.737 152.284 413.936 150.856 414Z" fill="#E3EBFB"/>
<path d="M138.633 411.436L129.572 402.374C128.271 400.011 127.411 397.477 127 394.875L146.125 414C143.531 413.589 140.996 412.737 138.633 411.436Z" fill="#E3EBFB"/>
<path d="M647 825.85L670.85 802C668.315 802.231 665.806 802.831 663.417 803.79L648.79 818.417C647.831 820.806 647.231 823.315 647 825.85Z" fill="#E3EBFB"/>
<path d="M647.939 836.45L681.45 802.939C679.862 802.474 678.239 802.167 676.608 802L647 831.608C647.167 833.239 647.482 834.862 647.939 836.45Z" fill="#E3EBFB"/>
<path d="M651.677 843.075L688.075 806.677C686.925 805.902 685.725 805.221 684.49 804.65L649.65 839.49C650.221 840.725 650.902 841.917 651.677 843.075Z" fill="#E3EBFB"/>
<path d="M654.621 847.95C655.216 848.566 655.846 849.146 656.484 849.7L693.375 811.58C692.847 810.92 692.286 810.278 691.682 809.654C691.333 809.293 690.984 808.95 690.626 808.625L653.625 846.86C653.948 847.229 654.272 847.59 654.621 847.95Z" fill="#E3EBFB"/>
<path d="M664.008 853.675L698.675 819.008C698.141 817.715 697.503 816.457 696.753 815.25L660.25 851.753C661.457 852.494 662.715 853.141 664.008 853.675Z" fill="#E3EBFB"/>
<path d="M671.903 855L700 828.027C699.922 826.404 699.678 824.79 699.277 823.2L666.875 854.306C668.531 854.69 670.221 854.925 671.903 855Z" fill="#E3EBFB"/>
<path d="M686.298 851.98L696.971 841.307C698.503 838.524 699.516 835.539 700 832.475L677.475 855C680.531 854.516 683.516 853.512 686.298 851.98Z" fill="#E3EBFB"/>
<path d="M1207.63 780.828C1201.66 776.953 1196 772.608 1189.89 768.93C1189.35 768.251 1188.49 767.873 1187.35 768.178C1173.88 771.774 1160.26 774.564 1146.53 776.96C1145.9 776.837 1145.22 776.997 1144.59 777.552C1144.27 777.764 1144.03 778.034 1143.84 778.337C1138.57 784 1134 790.577 1129.93 797.132C1129.23 798.245 1129.38 799.386 1129.95 800.254C1129.95 800.27 1129.97 800.286 1129.97 800.298C1130.01 800.349 1130.04 800.397 1130.07 800.443C1130.15 800.566 1130.22 800.689 1130.32 800.808C1144.08 817.153 1160.72 833.869 1178.53 845.768C1178.84 845.973 1179.15 846.096 1179.45 846.175C1180.53 846.641 1181.77 846.454 1182.52 845.085C1193.07 825.687 1202.14 805.344 1208.66 784.191C1208.7 784.061 1208.71 783.94 1208.73 783.818C1209.07 782.787 1208.84 781.608 1207.63 780.828ZM1201.03 783.308C1195.7 785.614 1190.13 787.439 1184.49 789.013C1186.16 784.434 1187.67 779.758 1188.78 775.009C1192.93 777.656 1196.95 780.524 1201.03 783.308ZM1180.74 789.252C1176.65 785.733 1172.46 782.303 1168.56 778.577C1174.19 777.373 1179.78 776.043 1185.36 774.602C1184.18 779.578 1182.53 784.482 1180.74 789.252ZM1177.37 790.884C1174.85 791.512 1172.34 792.113 1169.84 792.702C1166.77 793.424 1163.61 794.168 1160.38 794.846C1162.34 790.237 1164.39 785.624 1166.02 780.891C1169.67 784.372 1173.54 787.616 1177.37 790.884ZM1157.22 793.493C1154.22 789.999 1151.51 786.228 1148.97 782.374C1153.59 781.558 1158.19 780.684 1162.78 779.759C1161.17 784.413 1159.15 788.958 1157.22 793.493ZM1170.42 796.11C1173.52 795.41 1176.65 794.672 1179.79 793.881C1180.2 808.169 1179.38 822.526 1178.9 836.817C1172.15 824.364 1166.34 811.25 1160.71 798.262C1164.01 797.571 1167.26 796.826 1170.42 796.11ZM1183.18 792.99C1189.53 791.286 1195.83 789.295 1201.82 786.746C1196.63 802.627 1190.05 818.08 1182.46 832.955C1182.97 819.647 1183.63 806.289 1183.18 792.99ZM1146.17 784.318C1148.8 788.349 1151.63 792.288 1154.77 795.919C1148.73 796.975 1142.59 797.623 1136.63 797.288C1139.52 792.786 1142.67 788.327 1146.17 784.318ZM1137.87 800.788C1144.29 800.988 1150.84 800.152 1157.27 798.939C1162.63 811.323 1168.14 823.836 1174.46 835.797C1161.12 825.734 1148.75 813.33 1137.87 800.788Z" fill="#E3EBFB"/>
<path d="M377.974 805.513C376.311 800.046 375.087 794.455 373.247 789.044C373.265 788.348 372.93 787.668 372.072 787.265C361.955 782.509 352.16 777.178 342.503 771.551C342.177 771.146 341.679 770.894 341.004 770.908C340.701 770.874 340.411 770.913 340.141 771.004C333.982 771.752 327.778 773.423 321.889 775.335C320.888 775.659 320.391 776.437 320.287 777.26C320.283 777.274 320.282 777.289 320.28 777.3C320.275 777.349 320.268 777.394 320.265 777.44C320.249 777.555 320.231 777.669 320.23 777.793C320.219 794.932 321.778 813.785 326.55 830.292C326.634 830.578 326.759 830.812 326.906 831.019C327.323 831.859 328.185 832.389 329.349 831.936C345.851 825.495 361.932 817.71 376.863 808.105C376.954 808.045 377.025 807.978 377.102 807.915C377.842 807.457 378.309 806.614 377.974 805.513ZM372.64 803.618C368.178 802.276 363.819 800.516 359.547 798.566C362.943 796.624 366.282 794.534 369.417 792.194C370.598 795.967 371.579 799.803 372.64 803.618ZM357.123 796.772C356.438 792.502 355.638 788.229 355.173 783.929C359.247 786.1 363.368 788.179 367.534 790.18C364.239 792.622 360.688 794.774 357.123 796.772ZM354.216 796.033C352.347 795.117 350.492 794.184 348.658 793.255C346.403 792.112 344.075 790.93 341.748 789.679C345.332 787.865 348.977 786.098 352.423 784.038C352.857 788.056 353.555 792.047 354.216 796.033ZM340.512 787.217C340.475 783.521 340.761 779.805 341.201 776.133C344.453 778.018 347.726 779.86 351.018 781.665C347.626 783.689 344.038 785.433 340.512 787.217ZM347.253 795.646C349.512 796.816 351.816 797.985 354.15 799.122C347.012 808.095 339.09 816.479 331.406 824.995C333.705 813.868 336.921 802.82 340.185 791.946C342.563 793.226 344.942 794.45 347.253 795.646ZM356.688 800.327C361.462 802.564 366.36 804.605 371.349 806.136C359.955 813.192 347.931 819.268 335.587 824.468C342.776 816.566 350.088 808.716 356.688 800.327ZM338.475 775.874C338.004 779.706 337.702 783.585 337.754 787.439C333.501 784.961 329.4 782.182 325.918 778.895C330.019 777.629 334.256 776.524 338.475 775.874ZM324.873 781.686C328.705 785.127 333.153 788 337.722 790.579C334.607 800.947 331.517 811.469 329.21 822.073C326.231 809.003 325.055 794.998 324.873 781.686Z" fill="#E3EBFB"/>
<path d="M1685.4 154.688C1681.79 150.26 1678.54 145.551 1674.78 141.243C1674.54 140.591 1673.97 140.089 1673.02 140.042C1661.86 139.477 1650.77 138.259 1639.7 136.714C1639.25 136.463 1638.69 136.419 1638.07 136.687C1637.78 136.771 1637.52 136.917 1637.31 137.103C1631.89 140.131 1626.79 144.03 1622.06 148.032C1621.26 148.712 1621.09 149.62 1621.31 150.421C1621.31 150.435 1621.32 150.45 1621.32 150.461C1621.33 150.508 1621.34 150.552 1621.36 150.596C1621.39 150.709 1621.41 150.821 1621.46 150.936C1627.95 166.799 1636.54 183.653 1647.22 197.117C1647.4 197.35 1647.61 197.519 1647.82 197.655C1648.53 198.274 1649.52 198.438 1650.43 197.577C1663.26 185.36 1675.18 172.058 1685.36 157.508C1685.42 157.418 1685.46 157.33 1685.51 157.242C1686.02 156.538 1686.13 155.58 1685.4 154.688ZM1679.75 154.958C1675.11 155.408 1670.41 155.432 1665.72 155.248C1668.12 152.164 1670.42 148.963 1672.43 145.609C1674.96 148.652 1677.32 151.83 1679.75 154.958ZM1662.79 154.507C1660.54 150.816 1658.18 147.166 1656.12 143.363C1660.71 143.827 1665.31 144.188 1669.93 144.459C1667.81 147.969 1665.34 151.306 1662.79 154.507ZM1659.82 154.926C1657.75 154.787 1655.68 154.627 1653.63 154.463C1651.11 154.26 1648.51 154.049 1645.88 153.775C1648.51 150.737 1651.21 147.72 1653.62 144.507C1655.54 148.06 1657.7 151.488 1659.82 154.926ZM1643.8 151.965C1642.36 148.559 1641.22 145.013 1640.24 141.447C1643.96 141.959 1647.69 142.422 1651.42 142.844C1649.05 146.003 1646.39 148.977 1643.8 151.965ZM1653.24 157.209C1655.77 157.434 1658.34 157.642 1660.93 157.809C1657.73 168.819 1653.58 179.581 1649.7 190.374C1647.61 179.206 1646.39 167.764 1645.29 156.464C1647.98 156.747 1650.64 156.978 1653.24 157.209ZM1663.74 157.962C1669.01 158.222 1674.31 158.252 1679.51 157.777C1671.64 168.627 1662.82 178.809 1653.37 188.301C1657.02 178.263 1660.81 168.227 1663.74 157.962ZM1637.61 142.242C1638.63 145.966 1639.82 149.67 1641.33 153.216C1636.46 152.536 1631.61 151.52 1627.14 149.799C1630.46 147.072 1633.96 144.443 1637.61 142.242ZM1627.23 152.778C1632.08 154.508 1637.29 155.48 1642.49 156.134C1643.54 166.908 1644.67 177.816 1646.56 188.504C1638.85 177.54 1632.45 165.027 1627.23 152.778Z" fill="#E3EBFB"/>
<path d="M1564.19 705.843C1551.7 697.662 1535.56 702.34 1527.87 714.523C1519.87 727.211 1524.09 743.452 1536.57 751.214C1548.75 758.788 1563.72 755.196 1572.13 744.024C1580.8 731.064 1577.23 714.373 1564.19 705.843ZM1570.25 742.561C1562.57 752.766 1550.41 755.439 1539.01 749.863C1526.51 743.753 1523.33 728.835 1529.19 716.996C1535.28 704.687 1550.06 701.182 1561.8 707.181C1574.84 713.85 1578.09 730.857 1570.25 742.561Z" fill="#E3EBFB"/>
<path d="M1594.97 734.239C1595.31 732.209 1592.9 730.342 1591.63 729.18C1590.12 727.795 1588.31 726.827 1586.38 726.214C1588.24 725.346 1589.91 724.144 1591.31 722.531C1592.52 721.137 1594.5 718.901 1593.8 716.853C1593.12 714.859 1590.63 714.129 1588.86 713.486C1586.81 712.74 1584.68 712.557 1582.56 712.771C1584.13 711.089 1585.31 709.121 1586.02 706.833C1586.59 705.01 1587.17 702.932 1586.1 701.198C1585.15 699.661 1582.63 699.817 1581.12 699.841C1578.65 699.879 1576.36 700.471 1574.25 701.546C1574.97 699.606 1575.31 697.562 1575.16 695.422C1575.03 693.567 1574.86 690.817 1573.06 689.727C1571.35 688.695 1569.18 689.768 1567.57 690.493C1565.37 691.484 1563.57 692.912 1562.1 694.686C1562.08 693.728 1561.96 692.774 1561.76 691.842C1566.42 688.944 1568.25 683.648 1566.23 678.511C1566.94 678.065 1567.63 677.635 1568.29 677.253C1574.71 673.575 1580.95 670.755 1583.14 663.292C1584.39 659.027 1584.8 654.423 1585.37 650.016C1585.49 649.477 1585.61 648.927 1585.71 648.346C1585.75 648.129 1585.73 647.943 1585.67 647.777C1586.41 642.428 1587.25 637.033 1587.6 631.664C1588.1 624.143 1579.06 623.83 1573.84 623.134C1566.24 622.121 1558.64 621.108 1551.04 620.095C1542.78 619.301 1540.26 623.54 1539.2 631.029C1539.05 632.108 1538.87 633.205 1538.69 634.313C1538.61 634.449 1538.57 634.614 1538.56 634.809C1538.55 634.924 1538.55 635.032 1538.55 635.145C1537.13 643.433 1535.19 652.399 1536.37 660.516C1537.26 666.658 1543.78 671.811 1548.38 676.056C1545.19 680.547 1545.34 686.237 1549.25 690.158C1548.85 690.938 1548.51 691.752 1548.24 692.592C1547.38 690.727 1546.17 689.055 1544.56 687.657C1543.17 686.45 1540.93 684.47 1538.89 685.169C1536.89 685.851 1536.16 688.34 1535.52 690.11C1534.77 692.168 1534.59 694.298 1534.8 696.417C1533.12 694.847 1531.15 693.669 1528.87 692.956C1527.05 692.387 1524.97 691.802 1523.24 692.875C1521.7 693.826 1521.85 696.344 1521.88 697.86C1521.91 700.331 1522.51 702.618 1523.58 704.727C1521.64 704.01 1519.6 703.67 1517.46 703.822C1515.6 703.953 1512.85 704.123 1511.76 705.921C1510.73 707.628 1511.8 709.805 1512.53 711.411C1513.52 713.613 1514.95 715.412 1516.72 716.886C1514.87 716.931 1513.03 717.281 1511.34 718.024C1509.32 718.91 1506.44 720.301 1506.03 722.726C1505.69 724.756 1508.1 726.622 1509.37 727.784C1510.88 729.169 1512.69 730.138 1514.62 730.75C1512.76 731.617 1511.09 732.82 1509.69 734.434C1508.48 735.827 1506.5 738.063 1507.2 740.111C1507.88 742.106 1510.37 742.835 1512.14 743.478C1514.19 744.225 1516.32 744.408 1518.44 744.193C1516.87 745.875 1515.7 747.842 1514.98 750.132C1514.41 751.954 1513.83 754.033 1514.9 755.766C1515.85 757.303 1518.37 757.147 1519.88 757.124C1522.35 757.086 1524.64 756.494 1526.75 755.418C1526.03 757.358 1525.69 759.402 1525.84 761.544C1525.97 763.399 1526.14 766.149 1527.94 767.239C1529.65 768.273 1531.82 767.198 1533.43 766.476C1535.63 765.483 1537.43 764.054 1538.9 762.28C1538.95 764.129 1539.3 765.966 1540.04 767.66C1540.93 769.678 1542.32 772.563 1544.74 772.968C1546.77 773.307 1548.63 770.9 1549.8 769.629C1551.18 768.115 1552.15 766.307 1552.76 764.375C1553.63 766.24 1554.83 767.911 1556.44 769.31C1557.84 770.517 1560.07 772.497 1562.12 771.797C1564.11 771.116 1564.85 768.629 1565.49 766.859C1566.23 764.8 1566.42 762.67 1566.2 760.55C1567.88 762.12 1569.85 763.297 1572.14 764.011C1573.96 764.58 1576.04 765.165 1577.77 764.092C1579.31 763.139 1579.15 760.623 1579.13 759.107C1579.09 756.636 1578.5 754.349 1577.42 752.242C1579.36 752.958 1581.41 753.299 1583.55 753.145C1585.4 753.014 1588.15 752.844 1589.24 751.045C1590.27 749.338 1589.2 747.161 1588.48 745.555C1587.48 743.353 1586.06 741.555 1584.29 740.081C1586.13 740.036 1587.97 739.686 1589.66 738.943C1591.68 738.055 1594.56 736.663 1594.97 734.239ZM1536.7 755.923C1520.53 748.37 1515.83 729.294 1523.51 713.948C1531.14 698.672 1549.44 693.864 1564.27 701.208C1581.04 709.513 1585.69 731.257 1575.5 746.306C1566.1 758.935 1550.91 762.557 1536.7 755.923ZM1552.73 680.416C1553.96 681.532 1555.33 682.431 1556.86 682.425C1558.23 682.418 1559.59 682.043 1560.92 681.48C1561.37 683.272 1560.82 685.084 1559.33 686.245C1558.55 685.132 1557.55 684.214 1556.26 683.999C1555.1 683.804 1553.99 684.514 1553.04 685.392C1551.87 683.915 1551.88 682.032 1552.73 680.416ZM1551.78 690.435C1552.55 689.128 1554.39 686.739 1555.94 686.371C1557.15 686.087 1558.69 690.058 1559.02 690.804C1559.79 692.56 1559.86 694.707 1559.64 696.655C1558.78 696.388 1557.9 696.16 1557.03 695.973C1557.5 694.626 1558 693.234 1558.09 691.833C1558.09 691.77 1558.01 691.726 1557.97 691.783C1557.12 692.976 1556.58 694.401 1556.04 695.774C1555.81 695.734 1555.59 695.702 1555.37 695.668C1555.63 693.479 1555.93 691.264 1555.83 689.071C1555.83 689.006 1555.73 688.994 1555.7 689.054C1554.99 691.121 1554.7 693.344 1554.38 695.519C1554.16 695.492 1553.94 695.475 1553.72 695.453C1553.55 693.99 1553.41 692.475 1552.9 691.107C1552.88 691.041 1552.79 691.063 1552.77 691.124C1552.49 692.487 1552.61 693.946 1552.71 695.358C1551.82 695.295 1550.93 695.276 1550.04 695.291C1550.34 693.585 1550.9 691.938 1551.78 690.435ZM1587.27 715.445C1588.38 715.772 1590.89 716.383 1591.52 717.505C1592.02 718.416 1589.92 720.483 1589.44 721.068C1587.8 723.028 1585.49 724.258 1583.05 724.924C1582.94 724 1582.8 723.08 1582.61 722.167C1584.17 722.078 1585.81 722.046 1587.28 721.546C1587.35 721.523 1587.32 721.431 1587.26 721.418C1585.69 721.054 1584 721.156 1582.38 721.156C1582.34 720.976 1582.3 720.795 1582.26 720.616C1584.51 719.97 1586.83 719.397 1588.95 718.412C1589.03 718.38 1589 718.279 1588.92 718.283C1586.58 718.423 1584.26 719.078 1581.98 719.635C1581.93 719.463 1581.89 719.289 1581.84 719.118C1583.24 718.317 1584.76 717.566 1585.96 716.478C1586.01 716.437 1585.98 716.344 1585.91 716.358C1584.37 716.663 1582.93 717.443 1581.51 718.139C1581.21 717.256 1580.88 716.382 1580.5 715.523C1582.69 714.954 1585.08 714.807 1587.27 715.445ZM1584.07 702.51C1584.99 702.902 1583.78 706.068 1583.63 706.557C1582.84 709.082 1581.17 711.109 1579.11 712.712C1578.66 711.899 1578.18 711.1 1577.66 710.321C1579.08 709.633 1580.6 708.965 1581.78 707.935C1581.82 707.893 1581.8 707.803 1581.72 707.815C1580.12 708.092 1578.58 708.836 1577.07 709.465C1576.96 709.32 1576.86 709.172 1576.76 709.028C1578.6 707.552 1580.52 706.11 1582.13 704.383C1582.17 704.333 1582.11 704.251 1582.05 704.281C1579.94 705.334 1578.04 706.815 1576.13 708.213C1576.03 708.077 1575.92 707.938 1575.81 707.803C1576.81 706.515 1577.93 705.229 1578.62 703.751C1578.65 703.687 1578.57 703.637 1578.52 703.673C1577.22 704.539 1576.18 705.82 1575.14 707.006C1574.54 706.304 1573.92 705.618 1573.25 704.958C1576.11 702.878 1580.67 701.066 1584.07 702.51ZM1567.3 693.254C1568.48 692.607 1570.24 691.603 1571.64 691.688C1572.72 691.754 1572.74 695.052 1572.8 695.743C1573.02 698.253 1572.26 700.749 1571.02 702.922C1570.31 702.332 1569.58 701.768 1568.82 701.223C1569.84 700.08 1570.92 698.923 1571.61 697.562C1571.64 697.497 1571.56 697.451 1571.51 697.484C1570.19 698.32 1569.09 699.523 1567.98 700.636C1567.96 700.619 1567.93 700.601 1567.91 700.583C1567.77 700.489 1567.62 700.405 1567.48 700.312C1568.59 698.309 1569.79 696.306 1570.58 694.161C1570.6 694.088 1570.51 694.037 1570.46 694.093C1568.95 695.792 1567.8 697.82 1566.62 699.771C1566.45 699.667 1566.28 699.57 1566.11 699.471C1566.53 697.982 1567.03 696.451 1567.09 694.914C1567.09 694.853 1567.01 694.804 1566.97 694.864C1566.15 696.085 1565.68 697.559 1565.21 698.97C1564.4 698.533 1563.57 698.144 1562.74 697.788C1563.88 695.953 1565.4 694.292 1567.3 693.254ZM1561.04 689.514C1561.01 689.445 1560.99 689.374 1560.96 689.305C1560.82 688.985 1560.67 688.642 1560.5 688.294C1563.01 686.43 1564.07 683.425 1563.09 680.408C1563.45 680.206 1563.82 679.998 1564.17 679.784C1565.43 683.473 1564.3 687.287 1561.04 689.514ZM1539.84 643.452C1540.43 644.788 1541.24 646.067 1542.29 647.392C1541.62 647.917 1540.96 648.457 1540.29 648.994C1539.87 647.382 1539.74 645.63 1539.82 643.585C1539.83 643.541 1539.84 643.495 1539.84 643.452ZM1543.21 648.487C1543.39 648.699 1543.58 648.911 1543.78 649.129C1543.99 649.365 1544.22 649.593 1544.44 649.827C1543.57 650.696 1542.52 651.341 1541.52 652.04C1541.23 651.514 1540.98 650.986 1540.77 650.447C1541.58 649.796 1542.38 649.127 1543.21 648.487ZM1545.4 650.853C1545.91 651.385 1546.42 651.913 1546.94 652.438C1545.71 653.114 1544.54 653.903 1543.44 654.781C1543.01 654.265 1542.62 653.756 1542.28 653.247C1543.35 652.48 1544.45 651.773 1545.4 650.853ZM1547.97 653.492C1548.65 654.174 1549.34 654.85 1550.02 655.524C1548.79 656.314 1547.5 657.023 1546.27 657.823C1545.7 657.228 1545.12 656.642 1544.55 656.041C1544.49 655.977 1544.44 655.916 1544.38 655.852C1545.5 654.959 1546.7 654.156 1547.97 653.492ZM1551.07 656.548C1551.49 656.956 1551.9 657.365 1552.32 657.774C1551.01 658.478 1549.81 659.35 1548.62 660.253C1548.17 659.796 1547.73 659.329 1547.28 658.869C1548.53 658.068 1549.83 657.355 1551.07 656.548ZM1552.92 659.064C1553.08 658.979 1553.17 658.855 1553.24 658.719C1553.83 659.353 1554.45 660.04 1555.13 660.672C1553.88 661.433 1552.63 662.195 1551.45 663.047C1550.84 662.455 1550.24 661.861 1549.64 661.265C1550.69 660.468 1551.75 659.683 1552.92 659.064ZM1556.29 661.626C1556.72 661.939 1557.16 662.218 1557.62 662.414C1556.94 664.055 1556.36 665.738 1555.68 667.378C1554.47 666.301 1553.36 664.926 1552.69 664.281C1552.62 664.21 1552.55 664.138 1552.48 664.067C1553.71 663.197 1555 662.414 1556.29 661.626ZM1559.03 662.753C1559.55 662.81 1560.06 662.813 1560.56 662.743C1560.61 664.654 1560.45 666.561 1560.22 668.458C1559.75 668.61 1559.27 668.744 1558.79 668.833C1558.18 668.943 1557.52 668.7 1556.85 668.276C1557.63 666.458 1558.26 664.576 1559.03 662.753ZM1561.73 667.881C1561.93 666.058 1562.04 664.23 1561.97 662.399C1562.57 662.203 1563.16 661.957 1563.74 661.677C1564.13 663.061 1564.75 664.383 1564.93 665.824C1564.94 665.95 1564.98 666.051 1565.04 666.137C1563.97 666.771 1562.86 667.382 1561.73 667.881ZM1566.3 665.388C1566.07 663.874 1565.39 662.491 1565.03 661.012C1565.4 660.809 1565.77 660.605 1566.14 660.409C1566.31 660.317 1566.47 660.22 1566.64 660.13C1567.2 661.5 1567.6 662.932 1568.19 664.29C1568.02 664.385 1567.86 664.48 1567.69 664.576C1567.23 664.836 1566.77 665.109 1566.3 665.388ZM1569.44 663.58C1568.87 662.219 1568.47 660.792 1567.89 659.43C1568.5 659.095 1569.11 658.758 1569.71 658.417C1570.23 659.789 1570.75 661.165 1571.23 662.553C1570.63 662.897 1570.04 663.24 1569.44 663.58ZM1572.48 661.821C1572 660.444 1571.49 659.076 1570.97 657.713C1571.73 657.276 1572.49 656.829 1573.25 656.384C1573.62 657.788 1573.83 659.321 1574.72 660.469C1573.98 660.929 1573.23 661.379 1572.48 661.821ZM1575.91 659.714C1575.4 659.182 1575.19 658.296 1575.01 657.609C1574.84 656.955 1574.69 656.296 1574.5 655.646C1575.19 655.24 1575.88 654.844 1576.56 654.434C1576.66 654.375 1576.75 654.317 1576.84 654.259C1577.45 655.497 1577.78 656.883 1578.02 658.232C1577.54 658.625 1577.01 659.01 1576.43 659.387C1576.26 659.497 1576.08 659.602 1575.91 659.714ZM1579.26 657.117C1578.99 655.868 1578.61 654.638 1578.04 653.501C1578.58 653.152 1579.09 652.806 1579.57 652.455C1580.02 653.304 1580.5 654.14 1580.95 654.996C1580.47 655.746 1579.92 656.451 1579.26 657.117ZM1582.98 649.869C1582.66 651.218 1582.27 652.416 1581.76 653.511C1581.4 652.869 1581.04 652.222 1580.7 651.569C1581.59 650.831 1582.38 650.062 1583.06 649.22C1583.03 649.438 1583.01 649.654 1582.98 649.869ZM1550.73 622.454C1555.09 623.035 1559.44 623.615 1563.79 624.196C1567.04 624.628 1570.28 625.061 1573.53 625.493C1576.89 625.942 1580.9 625.89 1583.77 627.927C1586.91 630.165 1584.46 638.195 1584.07 641.35C1584.04 641.545 1584.02 641.74 1583.99 641.937C1582.75 646.734 1580.61 649.089 1576.36 651.774C1571.65 654.751 1565.5 659.446 1559.9 660.473C1557.83 660.853 1555.04 657.119 1553.81 655.921C1551.39 653.571 1549.01 651.186 1546.67 648.751C1542.71 644.626 1540.8 641.669 1540.89 635.978C1541.2 633.834 1541.51 631.69 1541.81 629.546C1542.59 624.063 1545.04 621.908 1550.73 622.454ZM1540.02 663.479C1537.85 660.438 1537.94 655.867 1538.53 651.45C1539.21 653.151 1540.23 654.786 1541.71 656.455C1544.41 659.497 1547.35 662.349 1550.25 665.2C1552.14 667.065 1554.56 670.466 1557.35 671.05C1560.12 671.628 1562.67 670.035 1565.02 668.771C1568.98 666.646 1572.87 664.377 1576.69 662.026C1578.89 660.674 1580.57 659.281 1581.87 657.693C1581.01 662.863 1579.59 667.377 1574.74 670.592C1571.53 672.712 1568.17 674.607 1564.83 676.504C1561.89 678.175 1557.93 681.487 1554.73 678.886C1549.47 674.606 1543.95 669.013 1540.02 663.479ZM1550.12 677.718C1550.4 678.009 1550.69 678.326 1551 678.654C1549.24 681.353 1549.33 684.66 1551.4 687.121C1551.34 687.195 1551.27 687.267 1551.21 687.336C1550.98 687.585 1550.77 687.847 1550.56 688.113C1547.85 685.136 1547.9 681.043 1550.12 677.718ZM1537.47 691.707C1537.8 690.59 1538.41 688.08 1539.53 687.455C1540.45 686.948 1542.51 689.046 1543.1 689.535C1544.94 691.074 1546.15 693.216 1546.83 695.499C1545.94 695.603 1545.05 695.747 1544.17 695.925C1544.09 694.499 1544.03 693.027 1543.58 691.694C1543.55 691.626 1543.46 691.652 1543.45 691.711C1543.11 693.137 1543.17 694.662 1543.18 696.138C1542.96 696.189 1542.74 696.245 1542.52 696.302C1541.93 694.179 1541.37 692.01 1540.44 690.017C1540.41 689.946 1540.31 689.976 1540.31 690.052C1540.44 692.245 1541.03 694.422 1541.56 696.564C1541.35 696.624 1541.14 696.689 1540.93 696.753C1540.21 695.457 1539.5 694.103 1538.51 693.014C1538.47 692.969 1538.38 692.993 1538.39 693.063C1538.67 694.459 1539.34 695.78 1539.98 697.066C1539.12 697.361 1538.28 697.686 1537.44 698.049C1536.96 695.977 1536.88 693.748 1537.47 691.707ZM1524.54 694.908C1524.94 693.986 1528.1 695.197 1528.59 695.348C1530.98 696.093 1532.92 697.626 1534.48 699.53C1533.7 699.972 1532.93 700.442 1532.17 700.949C1531.55 699.639 1530.91 698.278 1529.96 697.198C1529.92 697.151 1529.83 697.177 1529.85 697.247C1530.1 698.726 1530.75 700.145 1531.34 701.537C1531.17 701.663 1530.99 701.784 1530.81 701.912C1529.42 700.161 1528.05 698.366 1526.41 696.844C1526.37 696.798 1526.28 696.864 1526.31 696.922C1527.31 698.923 1528.69 700.731 1530.02 702.534C1529.86 702.663 1529.69 702.787 1529.53 702.92C1528.34 701.984 1527.14 700.986 1525.78 700.353C1525.72 700.323 1525.67 700.402 1525.7 700.456C1526.5 701.654 1527.65 702.631 1528.76 703.587C1528.08 704.18 1527.43 704.8 1526.8 705.451C1524.8 702.593 1523.14 698.207 1524.54 694.908ZM1515.29 711.682C1514.64 710.502 1513.64 708.74 1513.72 707.343C1513.79 706.26 1517.08 706.24 1517.78 706.179C1520.19 705.963 1522.59 706.663 1524.71 707.821C1524.14 708.525 1523.6 709.254 1523.08 710.012C1522 709.037 1520.89 708.02 1519.6 707.371C1519.53 707.339 1519.48 707.421 1519.52 707.474C1520.32 708.743 1521.46 709.803 1522.53 710.865C1522.42 711.047 1522.3 711.229 1522.18 711.414C1520.23 710.324 1518.28 709.168 1516.19 708.403C1516.12 708.378 1516.07 708.468 1516.13 708.517C1517.79 709.994 1519.77 711.13 1521.68 712.283C1521.57 712.467 1521.46 712.649 1521.36 712.834C1519.92 712.422 1518.44 711.948 1516.94 711.886C1516.88 711.884 1516.83 711.965 1516.89 712.006C1518.08 712.813 1519.52 713.272 1520.89 713.734C1520.48 714.549 1520.1 715.371 1519.76 716.203C1517.95 715.073 1516.31 713.558 1515.29 711.682ZM1508.4 723.043C1508.12 721.838 1512.09 720.292 1512.83 719.963C1514.59 719.193 1516.72 719.125 1518.67 719.334C1518.41 720.204 1518.2 721.08 1518.02 721.961C1516.67 721.483 1515.27 720.98 1513.86 720.891C1513.8 720.886 1513.75 720.969 1513.81 721.01C1515.01 721.866 1516.45 722.405 1517.83 722.956C1517.79 723.174 1517.76 723.393 1517.72 723.612C1515.53 723.357 1513.3 723.052 1511.1 723.151C1511.03 723.153 1511.02 723.258 1511.08 723.278C1513.16 723.997 1515.4 724.286 1517.58 724.61C1517.56 724.825 1517.54 725.04 1517.52 725.255C1516.04 725.425 1514.51 725.568 1513.14 726.081C1513.07 726.106 1513.09 726.196 1513.15 726.209C1514.53 726.49 1516 726.372 1517.43 726.266C1517.37 727.16 1517.34 728.052 1517.35 728.943C1515.63 728.648 1513.98 728.097 1512.46 727.205C1511.16 726.437 1508.77 724.6 1508.4 723.043ZM1513.73 741.517C1512.62 741.19 1510.11 740.579 1509.48 739.457C1508.98 738.546 1511.07 736.477 1511.56 735.894C1513.11 734.041 1515.26 732.834 1517.55 732.145C1517.65 733.043 1517.79 733.934 1517.96 734.818C1516.53 734.892 1515.06 734.96 1513.72 735.414C1513.65 735.437 1513.68 735.529 1513.74 735.542C1515.16 735.873 1516.69 735.819 1518.17 735.805C1518.22 736.025 1518.27 736.243 1518.33 736.463C1516.21 737.062 1514.04 737.623 1512.04 738.548C1511.97 738.58 1512 738.682 1512.08 738.676C1514.27 738.546 1516.44 737.962 1518.58 737.43C1518.64 737.641 1518.71 737.851 1518.77 738.06C1517.47 738.781 1516.13 739.491 1515.04 740.478C1514.99 740.519 1515.02 740.613 1515.09 740.599C1516.47 740.324 1517.79 739.66 1519.07 739.021C1519.36 739.875 1519.68 740.72 1520.04 741.551C1517.98 742.027 1515.76 742.111 1513.73 741.517ZM1516.93 754.452C1516.01 754.06 1517.22 750.895 1517.37 750.405C1518.11 748.036 1519.63 746.1 1521.51 744.546C1521.95 745.33 1522.42 746.092 1522.92 746.842C1521.63 747.464 1520.29 748.099 1519.22 749.029C1519.18 749.071 1519.2 749.161 1519.27 749.149C1520.73 748.897 1522.13 748.265 1523.5 747.679C1523.63 747.858 1523.76 748.036 1523.89 748.212C1522.16 749.593 1520.38 750.959 1518.87 752.579C1518.82 752.629 1518.89 752.711 1518.95 752.681C1520.93 751.695 1522.72 750.331 1524.5 749.012C1524.63 749.179 1524.77 749.343 1524.91 749.509C1523.98 750.683 1523 751.869 1522.38 753.212C1522.35 753.277 1522.43 753.327 1522.48 753.291C1523.66 752.502 1524.62 751.374 1525.56 750.283C1526.15 750.953 1526.77 751.604 1527.42 752.231C1524.55 754.211 1520.21 755.841 1516.93 754.452ZM1533.7 763.708C1532.52 764.355 1530.76 765.359 1529.36 765.274C1528.28 765.209 1528.26 761.908 1528.2 761.219C1527.98 758.822 1528.67 756.434 1529.81 754.331C1530.51 754.892 1531.24 755.428 1532 755.94C1531.03 757.018 1530.03 758.118 1529.39 759.398C1529.35 759.463 1529.44 759.509 1529.49 759.476C1530.74 758.683 1531.79 757.559 1532.84 756.494C1532.91 756.535 1532.97 756.578 1533.03 756.618C1533.16 756.696 1533.28 756.765 1533.41 756.841C1532.33 758.777 1531.18 760.721 1530.42 762.798C1530.4 762.87 1530.48 762.922 1530.53 762.865C1532 761.214 1533.13 759.252 1534.27 757.353C1534.46 757.459 1534.65 757.562 1534.84 757.664C1534.43 759.099 1533.96 760.57 1533.9 762.048C1533.9 762.109 1533.98 762.158 1534.02 762.098C1534.82 760.92 1535.28 759.504 1535.74 758.137C1536.55 758.548 1537.37 758.917 1538.2 759.256C1537.07 761.058 1535.56 762.685 1533.7 763.708ZM1549.21 766.527C1548.44 767.834 1546.61 770.223 1545.05 770.59C1543.85 770.875 1542.3 766.904 1541.97 766.158C1541.21 764.415 1541.14 762.29 1541.34 760.356C1542.21 760.611 1543.09 760.828 1543.96 761.008C1543.49 762.348 1542.99 763.735 1542.9 765.128C1542.9 765.191 1542.98 765.236 1543.02 765.179C1543.87 763.991 1544.41 762.569 1544.95 761.201C1545.18 761.24 1545.4 761.268 1545.62 761.301C1545.37 763.486 1545.06 765.699 1545.16 767.888C1545.16 767.953 1545.27 767.966 1545.29 767.905C1546 765.839 1546.3 763.615 1546.62 761.441C1546.83 761.466 1547.05 761.486 1547.27 761.508C1547.44 762.974 1547.58 764.484 1548.09 765.854C1548.11 765.921 1548.2 765.898 1548.22 765.837C1548.5 764.473 1548.38 763.008 1548.28 761.594C1549.17 761.653 1550.06 761.682 1550.95 761.667C1550.65 763.375 1550.1 765.022 1549.21 766.527ZM1563.52 765.255C1563.2 766.372 1562.58 768.882 1561.46 769.507C1560.55 770.012 1558.48 767.915 1557.9 767.427C1556.05 765.885 1554.85 763.738 1554.16 761.45C1555.05 761.344 1555.94 761.202 1556.83 761.024C1556.9 762.455 1556.97 763.931 1557.42 765.27C1557.44 765.338 1557.54 765.312 1557.55 765.253C1557.88 763.82 1557.83 762.285 1557.81 760.801C1558.03 760.749 1558.25 760.704 1558.47 760.647C1559.07 762.773 1559.63 764.948 1560.56 766.945C1560.59 767.016 1560.69 766.986 1560.68 766.91C1560.55 764.709 1559.96 762.525 1559.43 760.375C1559.64 760.315 1559.85 760.256 1560.05 760.192C1560.78 761.494 1561.49 762.853 1562.49 763.948C1562.53 763.993 1562.62 763.969 1562.61 763.899C1562.33 762.496 1561.66 761.169 1561.01 759.875C1561.87 759.578 1562.71 759.244 1563.55 758.878C1564.03 760.962 1564.12 763.204 1563.52 765.255ZM1576.45 762.054C1576.06 762.976 1572.9 761.765 1572.41 761.612C1570.01 760.863 1568.05 759.32 1566.49 757.404C1567.28 756.96 1568.05 756.482 1568.81 755.973C1569.44 757.295 1570.08 758.672 1571.03 759.762C1571.08 759.809 1571.17 759.784 1571.15 759.713C1570.9 758.224 1570.24 756.796 1569.65 755.395C1569.82 755.272 1569.99 755.143 1570.16 755.016C1571.56 756.777 1572.94 758.586 1574.59 760.117C1574.63 760.163 1574.72 760.097 1574.69 760.039C1573.69 758.028 1572.3 756.213 1570.96 754.401C1571.12 754.274 1571.28 754.144 1571.43 754.014C1572.63 754.957 1573.84 755.969 1575.22 756.607C1575.28 756.638 1575.33 756.558 1575.29 756.504C1574.49 755.298 1573.33 754.315 1572.21 753.354C1572.89 752.763 1573.55 752.147 1574.19 751.497C1576.19 754.36 1577.86 758.75 1576.45 762.054ZM1585.71 745.28C1586.36 746.461 1587.36 748.222 1587.28 749.619C1587.21 750.702 1583.91 750.722 1583.22 750.783C1580.81 750.998 1578.41 750.302 1576.3 749.148C1576.67 748.699 1577.03 748.241 1577.38 747.769C1577.56 747.496 1577.73 747.221 1577.91 746.946C1579 747.921 1580.11 748.941 1581.4 749.591C1581.47 749.623 1581.51 749.541 1581.48 749.488C1580.67 748.213 1579.53 747.149 1578.45 746.085C1578.56 745.899 1578.66 745.711 1578.77 745.526C1580.73 746.621 1582.7 747.788 1584.8 748.56C1584.87 748.586 1584.92 748.495 1584.87 748.446C1583.19 746.956 1581.19 745.813 1579.27 744.65C1579.36 744.468 1579.45 744.285 1579.54 744.105C1581.02 744.523 1582.53 745.015 1584.05 745.077C1584.11 745.08 1584.16 744.998 1584.1 744.958C1582.88 744.131 1581.41 743.67 1580.01 743.198C1580.4 742.363 1580.76 741.518 1581.08 740.668C1582.96 741.806 1584.66 743.351 1585.71 745.28ZM1582.08 737.602C1582.33 736.708 1582.54 735.81 1582.71 734.909C1584.15 735.411 1585.64 735.976 1587.13 736.071C1587.2 736.076 1587.24 735.993 1587.18 735.952C1585.9 735.037 1584.35 734.486 1582.89 733.891C1582.92 733.699 1582.95 733.506 1582.97 733.313C1585.27 733.574 1587.6 733.911 1589.9 733.807C1589.96 733.804 1589.97 733.701 1589.91 733.68C1587.73 732.927 1585.38 732.645 1583.09 732.301C1583.11 732.116 1583.14 731.93 1583.15 731.745C1584.73 731.553 1586.38 731.429 1587.86 730.879C1587.93 730.854 1587.91 730.764 1587.84 730.751C1586.36 730.448 1584.75 730.609 1583.22 730.719C1583.28 729.796 1583.29 728.876 1583.27 727.957C1585.12 728.233 1586.91 728.796 1588.53 729.755C1589.84 730.525 1592.23 732.36 1592.6 733.917C1592.88 735.122 1588.91 736.668 1588.16 736.995C1586.34 737.8 1584.09 737.843 1582.08 737.602Z" fill="#E3EBFB"/>
<path d="M1559.03 738.905C1557.65 738.658 1556.28 738.409 1554.9 738.162C1556.05 729.518 1557.2 720.875 1558.36 712.231C1558.44 711.599 1557.98 710.965 1557.34 710.893C1554.02 710.525 1550.79 709.302 1547.92 711.176C1546.07 712.385 1544.22 713.593 1542.36 714.8C1540.39 716.087 1540.74 718.501 1540.42 720.714C1540.33 721.357 1540.81 721.967 1541.45 722.052C1542.99 722.258 1544.54 722.465 1546.09 722.671C1545.44 727.299 1544.83 731.931 1544.22 736.563C1542.68 736.356 1541.13 736.15 1539.58 735.943C1538.94 735.858 1538.32 736.321 1538.24 736.966C1537.93 739.356 1537.62 741.744 1537.36 744.14C1537.29 744.781 1537.73 745.393 1538.39 745.477C1544.83 746.291 1551.27 747.083 1557.71 747.931C1558.36 748.016 1558.94 747.55 1559.04 746.908C1559.39 744.687 1559.74 742.468 1560.06 740.242C1560.15 739.577 1559.67 739.02 1559.03 738.905ZM1544.36 716.332C1545.81 715.384 1547.27 714.438 1548.72 713.489C1550.25 712.492 1550.1 712.456 1551.43 712.617C1552.9 712.795 1554.37 712.956 1555.84 713.12C1554.69 721.739 1553.54 730.356 1552.39 738.975C1552.3 739.641 1552.77 740.197 1553.41 740.313C1554.78 740.559 1556.16 740.807 1557.53 741.053C1557.32 742.511 1557.09 743.967 1556.87 745.423C1551.2 744.684 1545.53 743.978 1539.86 743.264C1540.05 741.662 1540.24 740.064 1540.45 738.464C1541.99 738.67 1543.54 738.877 1545.09 739.083C1545.43 739.128 1545.71 739.041 1545.92 738.882C1546.18 738.724 1546.37 738.454 1546.42 738.059C1547.12 732.639 1547.85 727.22 1548.61 721.807C1548.7 721.164 1548.23 720.555 1547.58 720.469C1546.02 720.261 1544.46 720.052 1542.89 719.844C1542.99 718.316 1542.94 717.255 1544.36 716.332Z" fill="#E3EBFB"/>
<path d="M1565.35 712.176C1565.29 712.124 1565.21 712.142 1565.16 712.189C1565.16 712.195 1565.15 712.202 1565.15 712.209C1565.13 712.226 1565.12 712.245 1565.12 712.267C1565.12 712.276 1565.12 712.286 1565.12 712.295C1565.12 712.313 1565.12 712.328 1565.12 712.346C1566.2 714.651 1567.45 716.729 1568.17 719.197C1568.95 721.875 1569.3 724.649 1569.38 727.433C1569.52 733.076 1567.85 738.708 1565.51 743.79C1565.5 743.804 1565.51 743.815 1565.51 743.828C1565.5 743.838 1565.5 743.847 1565.5 743.858C1565.51 743.878 1565.51 743.894 1565.53 743.91C1565.54 743.918 1565.54 743.924 1565.55 743.931C1565.56 743.937 1565.57 743.94 1565.58 743.945C1565.6 743.955 1565.61 743.959 1565.63 743.956C1565.64 743.956 1565.65 743.951 1565.66 743.949C1565.67 743.945 1565.68 743.947 1565.69 743.938C1570.25 740.285 1571.37 733.759 1571.46 728.242C1571.54 722.956 1570.22 715.291 1565.35 712.176Z" fill="#E3EBFB"/>
<path d="M1564.5 745.054C1563.83 745.346 1563.33 745.759 1562.76 746.21C1562.19 746.658 1561.48 747.088 1561.09 747.721C1561.06 747.771 1561.08 747.854 1561.15 747.858C1561.89 747.905 1562.56 747.474 1563.16 747.084C1563.88 746.621 1564.44 746.056 1564.68 745.23C1564.71 745.125 1564.62 745.001 1564.5 745.054Z" fill="#E3EBFB"/>
<path d="M1531.57 717.664C1531.59 717.584 1531.47 717.539 1531.43 717.604C1527.58 722.908 1526.85 732.569 1530.62 738.04C1530.7 738.157 1530.87 738.066 1530.86 737.941C1530.63 734.447 1529.45 731.289 1529.59 727.711C1529.73 724.235 1530.88 721.031 1531.57 717.664Z" fill="#E3EBFB"/>
<path d="M1531.93 716.718C1532.56 716.476 1532.91 715.863 1533.29 715.345C1533.74 714.745 1533.97 714.159 1534.11 713.432C1534.16 713.217 1533.89 713.16 1533.76 713.284C1533.23 713.814 1532.78 714.293 1532.37 714.932C1532.04 715.448 1531.65 715.98 1531.76 716.622C1531.78 716.701 1531.85 716.747 1531.93 716.718Z" fill="#E3EBFB"/>
<path d="M1544.5 631.409C1544.5 631.417 1544.5 631.422 1544.5 631.428C1544.5 631.444 1544.51 631.446 1544.52 631.455C1544.53 631.465 1544.54 631.472 1544.55 631.478C1544.56 631.481 1544.56 631.473 1544.58 631.469C1544.59 631.465 1544.61 631.473 1544.62 631.46C1545.31 630.425 1545.69 629.292 1546.71 628.494C1548.03 627.458 1550.04 627.352 1551.64 627.252C1561.14 626.661 1570.69 628.862 1580.17 629.096C1580.23 629.098 1580.27 629.08 1580.3 629.052C1580.39 628.97 1580.38 628.797 1580.22 628.763C1579.13 628.539 1578.04 628.342 1576.95 628.154C1572.06 627.282 1567.12 626.631 1562.2 625.907C1558.8 625.407 1555.37 624.8 1551.93 624.666C1547.54 624.493 1544.37 626.591 1544.5 631.403C1544.5 631.404 1544.5 631.408 1544.5 631.409Z" fill="#E3EBFB"/>
<path d="M491.667 169.239C486.984 164.562 477.314 161.678 471.284 165.566C462.755 171.065 460.719 187.979 450.591 190.529C450.156 187.48 449.717 184.447 449.274 181.448C449.87 181.14 450.438 180.715 450.984 180.079C452.369 178.474 452.483 175.97 452.228 173.983C451.939 171.718 450.842 169.54 449.206 167.96C447.106 165.933 444.569 166.08 441.836 166.133C403.521 167.242 362.773 173.774 325.84 183.991C325.719 184.025 325.613 184.076 325.506 184.12C325.387 184.137 325.271 184.153 325.15 184.186C322.647 184.911 320.401 185.74 319.032 188.112C317.895 190.09 317.548 192.349 317.944 194.59C318.308 196.667 319.443 198.686 321.22 199.861C321.743 200.207 322.269 200.424 322.797 200.579C323.147 203.123 323.521 205.776 323.928 208.554C314.488 208.85 306.624 194.729 298.616 190.812C291.6 187.376 281.857 193.549 278.543 199.572C269.956 215.177 274.437 235.46 279.792 251.407C293.352 291.791 327.497 323.169 372.166 316.605C372.293 316.587 372.401 316.547 372.518 316.518C375.97 318.527 379.677 320.128 383.634 321.3C383.741 321.515 383.874 321.731 384.066 321.943C390.129 328.568 393.4 337.311 395.623 345.92C393.362 347.467 391.839 349.521 392.175 352.228C392.654 356.072 393.679 360.996 397.702 362.547C396.612 378.412 388.346 389.974 376.711 400.511C368.182 408.235 365.882 409.962 367.152 421.024C361.04 422.513 360.526 426.39 361.455 432.949C363.308 446.02 365.185 459.092 366.854 472.19C363.825 472.463 360.681 472.821 358.189 473.852C349.439 477.488 355.029 491.274 355.982 498.048C356.186 499.488 357.567 500.525 359.008 500.316C405.419 493.572 451.834 486.832 498.244 480.089C499.003 479.977 499.544 479.624 499.908 479.16C500.376 478.66 500.645 477.959 500.519 477.07C499.614 470.803 500.657 458.707 494.105 455.226C491.606 453.898 486.581 455.022 482.93 455.777C481.008 443.557 479.277 431.31 477.518 419.067C476.458 411.676 476.046 406.532 468.361 406.655C466.796 397.2 465.085 394.603 455.719 390.665C440.669 384.331 428.34 374.41 422.68 358.943C425.89 356.455 425.78 351.814 425.204 348.049C425.164 347.8 425.097 347.583 425.015 347.38C425.014 347.372 425.013 347.364 425.013 347.36C424.253 344.814 422.384 343.308 420.057 342.454C419.797 333.76 420.486 324.672 424.234 316.739C428.034 314.276 431.347 311.232 434.254 307.759C434.314 307.755 434.363 307.76 434.423 307.751C479.642 301.521 502.521 261.957 504.932 219.368C505.871 202.671 504.111 181.673 491.667 169.239ZM404.159 317.938C379.247 321.5 363.362 304.653 351.835 285.332C336.726 260.016 332.073 228.919 328.142 200.166C328.481 200.069 328.82 199.969 329.167 199.875C365.772 189.947 406.003 183.278 443.985 182.229C448.269 211.133 452.27 241.801 445.546 270.666C440.245 293.405 429.69 314.291 404.159 317.938ZM353.754 299.211C324.424 294.801 304.248 267.661 295.28 240.856C293.27 234.851 287.683 217.363 295.358 212.811C297.836 211.338 303.557 219.234 305.063 220.727C311.445 227.056 318.71 230.392 327.61 230.343C332.263 254.178 339.89 280.591 353.754 299.211ZM446.778 176.843C446.805 176.839 446.838 176.842 446.905 176.825C446.862 176.835 446.817 176.833 446.778 176.843ZM449.259 277.299C455.483 256.544 455.399 234.276 453.275 212.435C461.755 209.982 467.759 204.77 472.099 196.951C473.453 194.505 475.886 186.645 479.209 186.642C487.687 186.62 487.142 208.966 487.109 213.546C486.922 241.962 473.353 274.403 446.201 286.347C447.329 283.391 448.341 280.363 449.259 277.299ZM326.949 189.19C363.784 179.027 404.395 172.526 442.589 171.423C443.834 171.399 444.776 171.184 445.723 171.972C446.349 172.494 446.694 173.582 446.864 174.346C447.057 175.217 447.069 176.045 446.73 176.85C445.915 177.022 444.961 176.895 444.151 176.905C405.903 177.875 365.311 184.575 328.41 194.585C326.368 195.159 323.892 196.649 323.241 193.84C322.539 190.821 324.503 189.918 326.949 189.19ZM286.033 252.962C280.401 238.458 276.473 220.828 281.519 205.642C283.455 199.819 289.886 193.766 296.588 195.761C300.733 197 304.539 201.811 307.536 204.693C312.393 209.367 317.646 214.255 324.733 213.865C325.296 217.479 325.923 221.225 326.615 225.067C317.446 224.928 311.274 219.673 305.19 213.216C302.826 210.704 300.1 207.277 296.349 207.212C283.1 206.982 286.725 228.314 288.257 235.406C295.396 268.415 322.567 303.197 358.503 305.037C360.786 307.544 363.221 309.839 365.81 311.91C327.35 314.783 299.512 287.678 286.033 252.962ZM419.954 349.16C420.404 352.151 420.604 354.412 417.616 355.635C415.122 356.653 412.364 357.074 409.718 357.479C404.172 358.329 397.27 359.57 397.491 351.666C397.566 348.948 406.497 347.491 408.23 347.196C411.084 346.713 418.458 345.683 419.954 349.16ZM494.914 475.174C450.219 481.665 405.52 488.161 360.825 494.652C359.47 487.583 357.196 479.156 365.848 477.932C370.628 477.256 375.413 476.579 380.193 475.898C395.352 473.745 410.507 471.588 425.666 469.43C440.824 467.272 455.979 465.115 471.137 462.953C475.917 462.273 480.697 461.589 485.48 460.904C493.998 459.683 494.238 468.145 494.914 475.174ZM473.028 425.459C474.524 435.854 476.013 446.254 477.643 456.626C460.825 459.028 444.005 461.422 427.181 463.817C408.848 466.427 390.514 469.036 372.18 471.638C370.977 462.22 369.655 452.82 368.337 443.419C367.311 436.093 363.729 426.795 373.263 425.447C387.951 423.372 402.636 421.278 417.318 419.188C432.409 417.04 447.5 414.892 462.586 412.736C471.661 411.44 471.865 417.371 473.028 425.459ZM451.421 394.533C454.288 395.93 461.083 397.787 461.9 401.166C462.373 403.121 462.703 405.122 463.019 407.116C448.292 408.662 433.544 411.485 418.914 413.568C403.422 415.773 387.934 417.985 372.439 420.171C371.777 414.124 372.557 410.889 378.154 406.354C382.371 402.938 386.204 398.97 389.827 394.942C397.833 386.051 402.181 375.188 402.989 363.405C405.538 363.43 408.159 363.074 410.479 362.768C412.882 362.45 415.42 361.967 417.829 361.204C421.639 371.65 428.008 379.741 437.05 386.388C441.469 389.639 446.5 392.139 451.421 394.533ZM414.703 341.488C412.091 341.371 409.481 341.629 407.482 341.909C405.709 342.158 403.087 342.677 400.509 343.565C398.571 336.381 395.926 329.196 391.716 323.059C395.174 323.509 398.806 323.652 402.628 323.447C408.015 323.158 412.808 322.083 417.103 320.384C415.051 327.161 414.567 334.411 414.703 341.488ZM499.367 222.596C496.683 259.815 476.429 293.79 438.759 301.563C440.445 298.908 441.956 296.083 443.334 293.148C443.425 293.127 443.517 293.118 443.609 293.084C477.094 281.946 493.422 242.886 492.44 209.871C492.192 201.491 491.095 179.403 477.39 181.354C473.91 181.849 472.168 185.508 470.677 188.244C466.149 196.564 462.214 204.148 452.719 207.105C452.298 203.326 451.829 199.569 451.325 195.834C466.424 192.058 472.089 153.509 490.498 175.895C500.348 187.873 500.421 207.982 499.367 222.596Z" fill="#E3EBFB"/>
<path d="M450.203 432.256C449.808 429.621 449.085 427.192 447.035 425.38C444.623 423.243 440.733 423.538 437.797 423.931C424.88 425.774 411.966 427.612 399.052 429.446C396.666 429.802 394.344 430.521 392.789 432.47C391.193 434.469 391.287 437.328 391.606 439.71C392.137 443.466 392.66 447.227 393.175 450.985C393.641 454.406 394.255 457.976 397.156 460.217C399.592 462.096 402.669 461.581 405.474 461.182C416.966 459.546 428.457 457.91 439.948 456.275C443.254 455.804 447.103 455.564 449.772 453.323C452.966 450.643 452.247 446.275 451.711 442.653C451.202 439.185 450.7 435.721 450.203 432.256ZM446.188 449.358C444.518 450.761 441.226 450.7 439.199 450.988C427.708 452.624 416.217 454.259 404.726 455.895C404.015 455.996 403.299 456.098 402.588 456.199C402.501 456.212 401.838 456.258 401.801 456.279C401.11 456.264 400.652 456.127 400.375 455.944C398.768 454.878 398.714 451.965 398.479 450.23C397.964 446.472 397.441 442.711 396.911 438.955C396.793 438.07 396.735 437.435 396.78 436.785C396.788 436.695 396.901 436.125 396.893 436.069C396.926 435.984 396.953 435.895 396.99 435.812C396.999 435.787 397.002 435.782 397.008 435.765C397.029 435.738 397.042 435.72 397.076 435.675C397.117 435.616 397.115 435.609 397.121 435.592C397.159 435.57 397.218 435.533 397.345 435.43C397.382 435.405 397.371 435.41 397.397 435.394C397.511 435.338 397.624 435.281 397.743 435.232C398.471 434.906 398.777 434.891 399.813 434.735C412.731 432.904 425.645 431.062 438.558 429.224C439.708 429.072 440.838 428.952 441.994 429.038C442.765 429.099 443.301 429.277 443.62 429.495C443.933 429.705 444.119 430.014 444.344 430.541C444.635 431.219 444.767 432.058 444.911 433.013C445.413 436.482 445.913 439.942 446.423 443.41C446.652 444.987 447.668 448.112 446.188 449.358Z" fill="#E3EBFB"/>
<path d="M440.534 194.1C440.424 193.78 440 193.962 440.008 194.248C440.384 216.37 439.933 237.84 434.175 259.419C431.071 271.047 426.456 282.543 419.188 292.227C411.913 301.925 402.306 306.488 391.144 310.266C391.109 310.279 391.097 310.305 391.072 310.329C391.065 310.334 391.061 310.339 391.054 310.344C391.019 310.381 391 310.424 390.991 310.474C390.986 310.495 390.984 310.507 390.983 310.528C390.985 310.544 390.987 310.559 390.989 310.575C390.997 310.627 391.015 310.669 391.052 310.704C391.057 310.711 391.066 310.714 391.071 310.718C391.094 310.738 391.11 310.765 391.144 310.776C391.165 310.785 391.19 310.786 391.211 310.791C391.211 310.791 391.211 310.791 391.215 310.79L391.219 310.789C417.805 318.313 433.764 288.372 439.161 267.59C442.725 253.865 443.939 239.463 443.891 225.317C443.863 215.122 443.859 203.871 440.534 194.1Z" fill="#E3EBFB"/>
<path d="M417.663 370.799C417.584 370.677 417.429 370.667 417.306 370.717C417.184 370.766 417.087 370.885 417.128 371.029C421.612 387.695 434.312 404.178 453.349 401.213C453.476 401.195 453.561 401.082 453.581 400.962C453.6 400.842 453.555 400.723 453.415 400.682C446.724 398.726 440.508 396.155 434.925 391.909C427.507 386.273 422.793 378.391 417.663 370.799Z" fill="#E3EBFB"/>
<path d="M386.499 193.587C386.522 193.58 386.542 193.577 386.565 193.569C386.694 193.531 386.727 193.425 386.709 193.323C386.711 193.31 386.71 193.306 386.709 193.294C386.707 193.282 386.702 193.279 386.701 193.267C386.69 193.163 386.628 193.071 386.494 193.07C386.47 193.069 386.45 193.072 386.426 193.072C386.422 193.072 386.422 193.072 386.422 193.072C376.165 193.1 366.196 195.174 356.239 197.449C348.81 199.146 339.828 200.493 333.282 204.605C333.107 204.711 333.096 204.89 333.17 205.038C333.243 205.185 333.401 205.3 333.577 205.283C341.323 204.585 349.077 201.871 356.677 200.243C366.65 198.108 376.69 196.419 386.498 193.579C386.495 193.588 386.499 193.587 386.499 193.587Z" fill="#E3EBFB"/>
</svg>
