<svg width="19" height="19" viewBox="0 0 19 19" fill="none" xmlns="http://www.w3.org/2000/svg">
<circle cx="9.5" cy="9.5" r="9" fill="#FF3857" stroke="#FF3857"/>
<path d="M9.5 4C6.464 4 4 6.47187 4 9.51758C4 12.5633 6.464 15.0352 9.5 15.0352H12.25V13.9316H9.5C7.113 13.9316 5.1 11.9122 5.1 9.51758C5.1 7.12295 7.113 5.10352 9.5 5.10352C11.887 5.10352 13.9 7.12295 13.9 9.51758V10.3066C13.9 10.7425 13.5095 11.1729 13.075 11.1729C12.6405 11.1729 12.25 10.7425 12.25 10.3066V9.51758C12.25 7.99473 11.018 6.75879 9.5 6.75879C7.982 6.75879 6.75 7.99473 6.75 9.51758C6.75 11.0404 7.982 12.2764 9.5 12.2764C10.259 12.2764 10.952 11.9674 11.447 11.4653C11.8045 11.9563 12.4205 12.2764 13.075 12.2764C14.1585 12.2764 15 11.3936 15 10.3066V9.51758C15 6.47187 12.536 4 9.5 4ZM9.5 11.1729C8.587 11.1729 7.85 10.4335 7.85 9.51758C7.85 8.60166 8.587 7.8623 9.5 7.8623C10.413 7.8623 11.15 8.60166 11.15 9.51758C11.15 10.4335 10.413 11.1729 9.5 11.1729Z" fill="white"/>
</svg>
