<svg width="30" height="39" viewBox="0 0 30 39" fill="none" xmlns="http://www.w3.org/2000/svg">
<path d="M10.8626 11.7653L2.05765 34.8171L9.07637 32.1724L12.4742 38.9999L21.2792 15.9481L10.8626 11.7653Z" fill="#DD304B"/>
<path d="M17.5468 11.7653L26.3518 34.8171L19.333 32.1724L15.9331 38.9999L7.13022 15.9481L17.5468 11.7653Z" fill="#FF3857"/>
<path d="M27.1344 12.7059C26.539 12.2572 26.4065 11.4008 26.8378 10.7838C27.368 10.0245 27.0292 8.95667 26.1666 8.66329C25.466 8.42384 25.081 7.65156 25.3061 6.93106C25.5817 6.04229 24.9379 5.13411 24.0269 5.12764C23.2884 5.12333 22.6909 4.51068 22.6846 3.75135C22.6783 2.81728 21.7925 2.15934 20.9257 2.43977C20.2209 2.66843 19.4677 2.27582 19.2342 1.55748C18.948 0.673025 17.9066 0.325716 17.166 0.86933C16.5643 1.31156 15.7311 1.17565 15.2914 0.565165C14.7507 -0.18554 13.6566 -0.18554 13.1159 0.565165C12.6783 1.17565 11.843 1.31156 11.2413 0.86933C10.5007 0.325716 9.45928 0.673025 9.17314 1.55748C8.93961 2.27582 8.1864 2.67059 7.48368 2.43977C6.61686 2.15718 5.73111 2.81728 5.72479 3.75135C5.72059 4.50852 5.12307 5.12117 4.38248 5.12764C3.47148 5.13411 2.82978 6.04229 3.10329 6.93106C3.32631 7.65372 2.94339 8.426 2.24278 8.66329C1.38017 8.95667 1.04144 10.0245 1.57163 10.7838C2.00293 11.3986 1.87039 12.255 1.27497 12.7059C0.542803 13.2603 0.542803 14.382 1.27497 14.9364C1.87039 15.3851 2.00293 16.2415 1.57163 16.8585C1.04144 17.6178 1.38017 18.6856 2.24278 18.979C2.94339 19.2185 3.32841 19.9907 3.10329 20.7134C2.82768 21.6022 3.47148 22.5104 4.38248 22.5168C5.12096 22.5211 5.71848 23.1338 5.72479 23.8931C5.73111 24.8272 6.61686 25.4851 7.48368 25.2047C8.1885 24.976 8.94171 25.3686 9.17314 26.087C9.45928 26.9714 10.5007 27.3187 11.2413 26.7751C11.8409 26.3329 12.6762 26.4688 13.1159 27.0793C13.6566 27.83 14.7507 27.83 15.2914 27.0793C15.729 26.4688 16.5643 26.3329 17.166 26.7751C17.9066 27.3187 18.948 26.9714 19.2342 26.087C19.4677 25.3686 20.2209 24.9739 20.9257 25.2047C21.7925 25.4873 22.6783 24.8272 22.6846 23.8931C22.6888 23.1359 23.2863 22.5233 24.0269 22.5168C24.9379 22.5104 25.5796 21.6022 25.3061 20.7134C25.0831 19.9907 25.466 19.2185 26.1666 18.979C27.0292 18.6856 27.368 17.6178 26.8378 16.8585C26.4065 16.2415 26.539 15.3873 27.1344 14.9364C27.8666 14.382 27.8666 13.2581 27.1344 12.7059Z" fill="#F2BA49"/>
<path d="M14.2037 25.3837C20.4318 25.3837 25.4808 20.207 25.4808 13.8211C25.4808 7.43529 20.4318 2.25854 14.2037 2.25854C7.9755 2.25854 2.92657 7.43529 2.92657 13.8211C2.92657 20.207 7.9755 25.3837 14.2037 25.3837Z" fill="#FFD34D"/>
<path d="M14.2037 23.6839C8.89964 23.6839 4.58447 19.2594 4.58447 13.8211C4.58447 8.38285 8.89964 3.95844 14.2037 3.95844C19.5077 3.95844 23.8228 8.38285 23.8228 13.8211C23.8228 19.2594 19.5077 23.6839 14.2037 23.6839ZM14.2037 4.72208C9.30991 4.72208 5.32927 8.8035 5.32927 13.8211C5.32927 18.8388 9.30991 22.9202 14.2037 22.9202C19.0974 22.9202 23.0781 18.8388 23.0781 13.8211C23.0781 8.8035 19.0974 4.72208 14.2037 4.72208Z" fill="#F2BA49"/>
<path d="M19.2257 10.8873H9.18156V11.651H19.2257V10.8873Z" fill="#F2BA49"/>
<path d="M19.2257 13.4371H9.18156V14.2008H19.2257V13.4371Z" fill="#F2BA49"/>
<path d="M19.2257 15.9891H9.18156V16.7528H19.2257V15.9891Z" fill="#F2BA49"/>
<path d="M1.78203 3.43206V2.25854H1.14664V3.43206H0V4.08353H1.14664V5.25921H1.78203V4.08353H2.92657V3.43206H1.78203Z" fill="#F2BA49"/>
<path d="M29.0932 8.09815V7.1684H28.5904V8.09815H27.6836V8.61372H28.5904V9.54347H29.0932V8.61372H30V8.09815H29.0932Z" fill="#FFD34D"/>
<path d="M25.9478 26.4084C26.4707 26.4084 26.8946 25.9738 26.8946 25.4377C26.8946 24.9015 26.4707 24.4669 25.9478 24.4669C25.4249 24.4669 25.001 24.9015 25.001 25.4377C25.001 25.9738 25.4249 26.4084 25.9478 26.4084Z" fill="#FFD34D"/>
<path d="M3.35579 25.1335C3.35579 25.5002 3.06544 25.8001 2.70567 25.8001C2.348 25.8001 2.05556 25.5024 2.05556 25.1335C2.05556 24.7668 2.3459 24.4669 2.70567 24.4669C3.06544 24.4691 3.35579 24.7668 3.35579 25.1335Z" fill="#FFD34D"/>
<path d="M2.31643 22.2191C2.31643 22.7886 1.86619 23.2503 1.31075 23.2503C0.755311 23.2503 0.305069 22.7886 0.305069 22.2191C0.305069 21.6496 0.755311 21.188 1.31075 21.188C1.86619 21.188 2.31643 21.6496 2.31643 22.2191Z" fill="#F2BA49"/>
<path d="M27.7383 5.25491C27.7383 5.64752 27.4269 5.96678 27.044 5.96678C26.6611 5.96678 26.3497 5.64752 26.3497 5.25491C26.3497 4.8623 26.6611 4.54303 27.044 4.54303C27.429 4.54519 27.7383 4.8623 27.7383 5.25491Z" fill="#F2BA49"/>
</svg>
