<?xml version="1.0" encoding="utf-8"?><svg width="21" height="21" fill="none" xmlns="http://www.w3.org/2000/svg" viewBox="0 0 21 21"><circle cx="10.5" cy="10.5" r="10" fill="#FF3857" stroke="#FF3857"/><path d="M11.05 8.31a1.659 1.659 0 011.65 1.656.553.553 0 00.55.553.549.549 0 00.55-.552c0-.732-.29-1.434-.806-1.952a2.745 2.745 0 00-1.944-.808.55.55 0 00-.55.552.553.553 0 00.55.552z" fill="#fff"/><path d="M11.05 6.104c1.021 0 2 .406 2.722 1.13A3.869 3.869 0 0114.9 9.967a.553.553 0 00.55.552.55.55 0 00.55-.552c0-1.317-.522-2.58-1.45-3.512A4.942 4.942 0 0011.05 5a.55.55 0 00-.55.552.553.553 0 00.55.552zm4.812 6.571a.552.552 0 00-.396-.359l-3.3-.756a.549.549 0 00-.506.144c-.077.072-.082.077-.44.761a5.46 5.46 0 01-2.678-2.698c.698-.353.704-.353.775-.436a.552.552 0 00.143-.507l-.753-3.272a.552.552 0 00-.358-.398 2.079 2.079 0 00-.396-.099A2.16 2.16 0 007.53 5c-.671 0-1.315.267-1.789.743A2.542 2.542 0 005 7.538a8.522 8.522 0 002.484 6.005 8.468 8.468 0 005.986 2.492 2.524 2.524 0 002.337-1.567 2.546 2.546 0 00.055-1.793zm-2.392 2.257a7.363 7.363 0 01-5.21-2.168A7.411 7.411 0 016.1 7.538a1.433 1.433 0 011.43-1.435h.181l.589 2.56-.297.155c-.473.248-.847.447-.65.877a6.541 6.541 0 001.528 2.436 6.514 6.514 0 002.422 1.543c.462.187.643-.16.89-.64l.16-.304 2.547.585v.182a1.433 1.433 0 01-1.43 1.434z" fill="#fff"/></svg>