<?xml version="1.0" encoding="utf-8"?><svg width="30" height="39" fill="none" xmlns="http://www.w3.org/2000/svg" viewBox="0 0 30 39"><path d="M10.863 11.765L2.058 34.817l7.018-2.645L12.474 39l8.805-23.052-10.416-4.183z" fill="#DD304B"/><path d="M17.547 11.765l8.805 23.052-7.019-2.645-3.4 6.828L7.13 15.948l10.417-4.183z" fill="#FF3857"/><path d="M27.134 12.706a1.407 1.407 0 01-.296-1.922c.53-.76.191-1.827-.671-2.12-.701-.24-1.086-1.012-.86-1.733.275-.889-.37-1.797-1.28-1.803-.739-.005-1.336-.617-1.342-1.377-.007-.934-.892-1.592-1.76-1.311a1.345 1.345 0 01-1.69-.883C18.947.673 17.906.326 17.165.87a1.328 1.328 0 01-1.875-.304 1.332 1.332 0 00-2.175 0A1.328 1.328 0 0111.24.87c-.74-.543-1.782-.196-2.068.688-.233.719-.987 1.114-1.69.883-.866-.283-1.752.377-1.758 1.311-.004.758-.602 1.37-1.343 1.377-.91.006-1.552.914-1.279 1.803.223.723-.16 1.495-.86 1.732-.863.294-1.202 1.361-.671 2.12a1.408 1.408 0 01-.297 1.923 1.407 1.407 0 000 2.23c.595.45.728 1.305.297 1.922-.53.76-.192 1.828.67 2.121.701.24 1.086 1.012.861 1.734-.275.89.368 1.797 1.28 1.804.738.004 1.335.617 1.342 1.376.006.934.892 1.592 1.759 1.312a1.342 1.342 0 011.69.882c.285.884 1.327 1.232 2.067.688a1.329 1.329 0 011.875.304c.54.751 1.635.751 2.175 0a1.328 1.328 0 011.875-.304c.74.544 1.782.196 2.068-.688a1.344 1.344 0 011.692-.882c.867.282 1.752-.378 1.759-1.312.004-.757.601-1.37 1.342-1.376.91-.007 1.553-.915 1.28-1.804-.224-.722.159-1.495.86-1.734.862-.293 1.201-1.361.67-2.12a1.407 1.407 0 01.297-1.923 1.407 1.407 0 000-2.23z" fill="#F2BA49"/><path d="M14.204 25.384c6.228 0 11.277-5.177 11.277-11.563 0-6.386-5.05-11.562-11.277-11.562-6.229 0-11.277 5.176-11.277 11.562 0 6.386 5.049 11.563 11.277 11.563z" fill="#FFD34D"/><path d="M14.204 23.684c-5.304 0-9.62-4.425-9.62-9.863s4.316-9.863 9.62-9.863c5.304 0 9.619 4.425 9.619 9.863s-4.315 9.863-9.62 9.863zm0-18.962c-4.894 0-8.875 4.081-8.875 9.1 0 5.017 3.98 9.098 8.875 9.098 4.893 0 8.874-4.081 8.874-9.099s-3.98-9.099-8.874-9.099z" fill="#F2BA49"/><path d="M19.226 10.887H9.182v.764h10.044v-.764zM19.226 13.437H9.182v.764h10.044v-.764zM19.226 15.99H9.182v.763h10.044v-.764zM1.782 3.432V2.26h-.635v1.173H0v.652h1.147v1.175h.635V4.084h1.145v-.652H1.782z" fill="#F2BA49"/><path d="M29.093 8.098v-.93h-.503v.93h-.906v.516h.906v.93h.503v-.93H30v-.516h-.907zM25.948 26.408a.959.959 0 00.947-.97.959.959 0 00-.947-.971.959.959 0 00-.947.97c0 .537.424.971.947.971zM3.356 25.134c0 .366-.29.666-.65.666a.659.659 0 01-.65-.666c0-.367.29-.667.65-.667.36.002.65.3.65.667z" fill="#FFD34D"/><path d="M2.316 22.22c0 .569-.45 1.03-1.005 1.03a1.019 1.019 0 01-1.006-1.03c0-.57.45-1.032 1.006-1.032.555 0 1.005.462 1.005 1.031zM27.738 5.255a.704.704 0 01-.694.712.704.704 0 01-.694-.712c0-.393.311-.712.694-.712.385.002.694.32.694.712z" fill="#F2BA49"/></svg>