<?xml version="1.0" encoding="utf-8"?><svg width="19" height="19" fill="none" xmlns="http://www.w3.org/2000/svg" viewBox="0 0 19 19"><circle cx="9.5" cy="9.5" r="9" fill="#FF3857" stroke="#FF3857"/><path d="M9.5 4C6.464 4 4 6.472 4 9.518c0 3.045 2.464 5.517 5.5 5.517h2.75v-1.103H9.5c-2.387 0-4.4-2.02-4.4-4.414 0-2.395 2.013-4.414 4.4-4.414 2.387 0 4.4 2.019 4.4 4.414v.789c0 .435-.39.866-.825.866-.434 0-.825-.43-.825-.866v-.79A2.755 2.755 0 009.5 6.76a2.755 2.755 0 00-2.75 2.759 2.755 2.755 0 002.75 2.758 2.73 2.73 0 001.947-.81c.358.49.974.81 1.628.81 1.084 0 1.925-.882 1.925-1.97v-.788C15 6.472 12.536 4 9.5 4zm0 7.173a1.65 1.65 0 01-1.65-1.655 1.65 1.65 0 113.3 0 1.65 1.65 0 01-1.65 1.655z" fill="#fff"/></svg>