<?xml version="1.0" encoding="utf-8"?><svg width="29" height="40" fill="none" xmlns="http://www.w3.org/2000/svg" viewBox="0 0 29 40"><path d="M12.822 40l9.917-25.404-11.734-4.61L1.09 35.392l7.905-2.917L12.822 40z" fill="#4A82D4"/><path d="M16.718 40L6.803 14.596l11.733-4.61 9.917 25.405-7.906-2.917L16.718 40z" fill="#599CFF"/><path d="M14.853 29.321C1.538 24.933 2.476 8.118 2.476 8.118c5.36-5.375 12.297-6.09 12.297-6.09s6.936.715 12.293 6.093c0 0 .939 16.812-12.374 21.203h.161v-.003z" fill="#FFD34D"/><path d="M14.773 27.405l-.218-.085C5.185 23.61 4.294 12.483 4.242 9.162l-.005-.271.201-.18c4.107-3.7 8.875-4.665 10.24-4.872l.09-.014.09.014c1.372.217 6.166 1.206 10.244 4.871l.201.181-.004.271c-.024 1.46-.207 4.377-1.162 7.5-1.625 5.318-4.703 8.903-9.149 10.658l-.215.085zM5.433 9.414c.093 3.4 1.093 13.282 9.34 16.71 3.976-1.645 6.746-4.945 8.232-9.811.855-2.8 1.061-5.432 1.102-6.899-3.778-3.285-8.254-4.205-9.342-4.386-1.083.176-5.53 1.07-9.331 4.386z" fill="#F2BA49"/><path d="M14.773 20.307c-3.47 0-6.292-2.832-6.292-6.312 0-3.48 2.822-6.312 6.292-6.312 3.469 0 6.291 2.832 6.291 6.312 0 3.48-2.825 6.312-6.291 6.312zm0-12.134c-3.2 0-5.804 2.613-5.804 5.822 0 3.21 2.604 5.822 5.804 5.822 3.199 0 5.803-2.613 5.803-5.822-.003-3.21-2.604-5.822-5.803-5.822z" fill="#F2BA49"/><path d="M18.057 12.12h-6.569v.489h6.569v-.49zM18.057 13.75h-6.569v.49h6.569v-.49zM18.057 15.381h-6.569v.49h6.569v-.49zM1.315 7.317a.83.83 0 00.83-.832.83.83 0 00-.83-.832.83.83 0 00-.83.832c0 .46.372.832.83.832zM24.268 1.833h-.856V.977h-.471v.856h-.853v.473h.853v.856h.471v-.856h.856v-.473z" fill="#F2BA49"/><path d="M3.168 21.236c0 .514-.414.93-.926.93a.928.928 0 01-.927-.93.928.928 0 111.853 0zM2.18 17.623h-.853v-.856H.853v.856H0v.475h.853v.856h.474v-.856h.853v-.475zM29 16.196a.568.568 0 11-1.137 0 .568.568 0 111.137 0z" fill="#FFD34D"/><path d="M27.863 21.904a1.034 1.034 0 11-2.067 0 1.034 1.034 0 112.067 0z" fill="#F2BA49"/><path d="M11.979.984a.491.491 0 10-.002-.982.491.491 0 00.002.982z" fill="#FFD34D"/></svg>