<?xml version="1.0" encoding="utf-8"?><svg width="27" height="30" fill="none" xmlns="http://www.w3.org/2000/svg" viewBox="0 0 27 30"><path d="M0 15.015V1.731C0 .26.24.005 1.63.005 5.453.005 9.274.016 13.095 0c.6-.002 1.027.19 1.46.65 1.96 2.085 3.967 4.122 5.956 6.18.547.564 1.067 1.159 1.641 1.691.497.461.645 1 .615 1.665-.037.844-.001 1.69-.012 2.536-.008.77-.409 1.236-1.05 1.246-.646.011-1.058-.443-1.082-1.21-.012-.423-.027-.848.005-1.268.042-.547-.153-.74-.694-.732-2.04.026-4.079.012-6.118.007-1.151-.004-1.438-.308-1.44-1.509-.001-2.092-.017-4.183.01-6.275.008-.577-.16-.778-.731-.773-2.942.025-5.883.022-8.822.002-.538-.004-.7.19-.7.735.012 8.033.014 16.065-.001 24.098-.002.595.185.753.742.751 5.645-.018 11.29-.021 16.938.006.665.003.89-.212.82-.877-.043-.418-.026-.845-.004-1.267.036-.656.481-1.085 1.083-1.074.573.009 1.017.42 1.032 1.05.03 1.09.031 2.182.007 3.27-.017.732-.453 1.093-1.258 1.095-2.575.005-5.152.002-7.727.002-4.1 0-8.2-.002-12.3-.004-1.14 0-1.457-.317-1.457-1.5C-.002 24.006 0 19.51 0 15.016zM14.672 3.907l-.154.098c0 1.393-.002 2.783.002 4.176 0 .288.183.374.43.374 1.2 0 2.4.003 3.602 0 .347-.002.376-.157.151-.394-.376-.395-.764-.778-1.139-1.175-.966-1.026-1.928-2.053-2.892-3.079z" fill="#fff"/><path d="M16.494 19.256c0-.866.012-1.733-.006-2.599-.008-.46.176-.637.612-.627.792.02 1.588-.015 2.378.017 1.412.058 2.242.945 2.43 2.749.183 1.774-.422 3.305-1.966 3.635-1.012.215-2.05.08-3.077.069-.363-.003-.37-.305-.371-.579-.002-.888.001-1.777 0-2.665zm1.74.023h.003v1.066c.004.752.183.894.892.713.643-.164.952-.558.974-1.377.02-.785.162-1.661-.728-2.094-.81-.395-1.138-.159-1.141.759v.933zM12.719 16.036c.321 0 .643-.004.964 0 1.281.014 2.202.958 2.202 2.254 0 1.348-.907 2.312-2.21 2.347-.997.027-.997.027-1.02 1.076-.017.79-.04.785-.955.814-.555.016-.885-.073-.867-.779.037-1.62.034-3.242-.004-4.861-.015-.68.225-.93.86-.86.34.035.686.007 1.028.007.002 0 .002 0 .002.002zm.495 1.376c-.483-.02-.698.093-.6.428.136.465-.331 1.214.473 1.37.551.108.957-.323.974-.88.019-.592-.26-.893-.847-.918zM22.682 19.304c0-.866.016-1.733-.005-2.597-.012-.475.146-.687.627-.677 1.027.024 2.056.022 3.084 0 .5-.01.62.244.612.7-.009.431-.08.743-.597.718-.47-.023-.943.016-1.412-.009-.467-.025-.582.209-.582.645 0 .441.136.67.589.65.362-.016.729.02 1.091.001.507-.024.675.22.665.725-.01.462-.084.766-.626.775-.527.009-1.171-.24-1.554.128-.392.38-.114 1.056-.152 1.6-.025.386-.18.537-.553.562-1.132.078-1.182.043-1.187-1.16-.003-.687 0-1.376 0-2.063-.002.002-.002.002 0 .002z" fill="#fff"/></svg>