<?xml version="1.0" encoding="utf-8"?><svg viewBox="0 0 21 21" xmlns="http://www.w3.org/2000/svg" xmlns:xlink="http://www.w3.org/1999/xlink"><style>:root>svg{display:none}:root>svg:target{display:block}</style><svg fill="none" viewBox="0 0 12 7" id="icon-article-arrow" xmlns="http://www.w3.org/2000/svg"><path fill-rule="evenodd" clip-rule="evenodd" d="M8.145.147a.5.5 0 01.708 0l3 3a.5.5 0 010 .707l-3 3a.5.5 0 01-.708-.708L10.792 3.5 8.145.855a.5.5 0 010-.708z" fill="#202B55"/><path fill-rule="evenodd" clip-rule="evenodd" d="M0 3.5A.5.5 0 01.5 3H11a.5.5 0 110 1H.5a.5.5 0 01-.5-.5z" fill="#202B55"/></svg><svg fill="none" viewBox="0 0 21 21" id="icon-load" xmlns="http://www.w3.org/2000/svg"><path d="M1.746 14.137v2.323c0 .269-.011.564-.343.569-.336.004-.398-.28-.399-.576-.002-1.076-.007-2.153 0-3.228.002-.495.145-.652.6-.656 1.006-.008 2.011-.001 3.015.001.08 0 .163.005.24.025.207.056.334.2.315.432-.018.22-.166.325-.361.329-.562.011-1.123.016-1.684.016-.228 0-.531-.071-.651.095-.14.196.089.444.186.654 1.564 3.367 4.892 5.43 8.372 5.042 3.542-.394 5.984-2.439 7.324-5.98.03-.08.054-.162.081-.244.09-.269.272-.355.509-.26.234.095.26.301.189.536a10.27 10.27 0 01-1.422 2.88C14.6 20.532 8.492 21.31 4.468 17.799c-1.156-1.01-2.014-2.252-2.722-3.662zM19.248 6.77V4.648c0-.172-.012-.35.085-.503.09-.142.217-.219.38-.184.188.04.272.188.275.377.01.505.008 1.01.009 1.518 0 .665-.008 1.33.003 1.994.006.396-.142.587-.524.584-1.035-.008-2.07 0-3.105-.005-.248-.001-.53-.022-.528-.378.002-.359.27-.423.547-.423.618-.002 1.237-.012 1.854.004.31.008.42-.045.264-.406-1.27-2.902-3.364-4.7-6.283-5.282-2.873-.573-5.407.303-7.531 2.446a8.356 8.356 0 00-1.953 3.15 5.037 5.037 0 01-.255.636c-.09.177-.243.28-.44.196-.172-.072-.231-.234-.218-.422.007-.1.032-.199.06-.295 1.024-3.487 4.509-6.411 7.876-6.63 4.236-.275 7.34 1.607 9.329 5.632.024.048.055.091.083.137.023-.01.048-.018.072-.026z" fill="#fff"/><path d="M1.746 14.137v2.323c0 .269-.011.564-.343.569-.336.004-.398-.28-.399-.576-.002-1.076-.007-2.153 0-3.228.002-.495.145-.652.6-.656 1.006-.008 2.011-.001 3.015.001.08 0 .163.005.24.025.207.056.334.2.315.432-.018.22-.166.325-.361.329-.562.011-1.123.016-1.684.016-.228 0-.531-.071-.651.095-.14.196.089.444.186.654 1.564 3.367 4.892 5.43 8.372 5.042 3.542-.394 5.984-2.439 7.324-5.98.03-.08.054-.162.081-.244.09-.269.272-.355.509-.26.234.095.26.301.189.536a10.27 10.27 0 01-1.422 2.88C14.6 20.532 8.492 21.31 4.468 17.799c-1.156-1.01-2.014-2.252-2.722-3.662zM19.248 6.77V4.648c0-.172-.012-.35.085-.503.09-.142.217-.219.38-.184.188.04.272.188.275.377.01.505.008 1.01.009 1.518 0 .665-.008 1.33.003 1.994.006.396-.142.587-.524.584-1.035-.008-2.07 0-3.105-.005-.248-.001-.53-.022-.528-.378.002-.359.27-.423.547-.423.618-.002 1.237-.012 1.854.004.31.008.42-.045.264-.406-1.27-2.902-3.364-4.7-6.283-5.282-2.873-.573-5.407.303-7.531 2.446a8.356 8.356 0 00-1.953 3.15 5.037 5.037 0 01-.255.636c-.09.177-.243.28-.44.196-.172-.072-.231-.234-.218-.422.007-.1.032-.199.06-.295 1.024-3.487 4.509-6.411 7.876-6.63 4.236-.275 7.34 1.607 9.329 5.632.024.048.055.091.083.137.023-.01.048-.018.072-.026z" stroke="#fff" stroke-width=".7"/></svg></svg>