<?xml version="1.0" encoding="utf-8"?><svg viewBox="0 0 30 40" xmlns="http://www.w3.org/2000/svg" xmlns:xlink="http://www.w3.org/1999/xlink"><style>:root>svg{display:none}:root>svg:target{display:block}</style><svg fill="none" viewBox="0 0 16 24" id="icon-arrow-left" xmlns="http://www.w3.org/2000/svg"><path fill-rule="evenodd" clip-rule="evenodd" d="M12.794 24L0 12 12.794 0 16 3l-9.603 9L16 21l-3.206 3z" fill="#599CFF"/></svg><svg fill="none" viewBox="0 0 16 24" id="icon-arrow-right" xmlns="http://www.w3.org/2000/svg"><path fill-rule="evenodd" clip-rule="evenodd" d="M3.206 0L16 12 3.206 24 0 21l9.603-9L0 3l3.206-3z" fill="#599CFF"/></svg><svg fill="none" viewBox="0 0 12 7" id="icon-article-arrow" xmlns="http://www.w3.org/2000/svg"><path fill-rule="evenodd" clip-rule="evenodd" d="M8.145.147a.5.5 0 01.708 0l3 3a.5.5 0 010 .707l-3 3a.5.5 0 01-.708-.708L10.792 3.5 8.145.855a.5.5 0 010-.708z" fill="#202B55"/><path fill-rule="evenodd" clip-rule="evenodd" d="M0 3.5A.5.5 0 01.5 3H11a.5.5 0 110 1H.5a.5.5 0 01-.5-.5z" fill="#202B55"/></svg><svg fill="none" viewBox="0 0 30 39" id="icon-award-federal" xmlns="http://www.w3.org/2000/svg"><path d="M10.863 11.765L2.058 34.817l7.018-2.645L12.474 39l8.805-23.052-10.416-4.183z" fill="#DD304B"/><path d="M17.547 11.765l8.805 23.052-7.019-2.645-3.4 6.828L7.13 15.948l10.417-4.183z" fill="#FF3857"/><path d="M27.134 12.706a1.407 1.407 0 01-.296-1.922c.53-.76.191-1.827-.671-2.12-.701-.24-1.086-1.012-.86-1.733.275-.889-.37-1.797-1.28-1.803-.739-.005-1.336-.617-1.342-1.377-.007-.934-.892-1.592-1.76-1.311a1.345 1.345 0 01-1.69-.883C18.947.673 17.906.326 17.165.87a1.328 1.328 0 01-1.875-.304 1.332 1.332 0 00-2.175 0A1.328 1.328 0 0111.24.87c-.74-.543-1.782-.196-2.068.688-.233.719-.987 1.114-1.69.883-.866-.283-1.752.377-1.758 1.311-.004.758-.602 1.37-1.343 1.377-.91.006-1.552.914-1.279 1.803.223.723-.16 1.495-.86 1.732-.863.294-1.202 1.361-.671 2.12a1.408 1.408 0 01-.297 1.923 1.407 1.407 0 000 2.23c.595.45.728 1.305.297 1.922-.53.76-.192 1.828.67 2.121.701.24 1.086 1.012.861 1.734-.275.89.368 1.797 1.28 1.804.738.004 1.335.617 1.342 1.376.006.934.892 1.592 1.759 1.312a1.342 1.342 0 011.69.882c.285.884 1.327 1.232 2.067.688a1.329 1.329 0 011.875.304c.54.751 1.635.751 2.175 0a1.328 1.328 0 011.875-.304c.74.544 1.782.196 2.068-.688a1.344 1.344 0 011.692-.882c.867.282 1.752-.378 1.759-1.312.004-.757.601-1.37 1.342-1.376.91-.007 1.553-.915 1.28-1.804-.224-.722.159-1.495.86-1.734.862-.293 1.201-1.361.67-2.12a1.407 1.407 0 01.297-1.923 1.407 1.407 0 000-2.23z" fill="#F2BA49"/><path d="M14.204 25.384c6.228 0 11.277-5.177 11.277-11.563 0-6.386-5.05-11.562-11.277-11.562-6.229 0-11.277 5.176-11.277 11.562 0 6.386 5.049 11.563 11.277 11.563z" fill="#FFD34D"/><path d="M14.204 23.684c-5.304 0-9.62-4.425-9.62-9.863s4.316-9.863 9.62-9.863c5.304 0 9.619 4.425 9.619 9.863s-4.315 9.863-9.62 9.863zm0-18.962c-4.894 0-8.875 4.081-8.875 9.1 0 5.017 3.98 9.098 8.875 9.098 4.893 0 8.874-4.081 8.874-9.099s-3.98-9.099-8.874-9.099z" fill="#F2BA49"/><path d="M19.226 10.887H9.182v.764h10.044v-.764zM19.226 13.437H9.182v.764h10.044v-.764zM19.226 15.99H9.182v.763h10.044v-.764zM1.782 3.432V2.26h-.635v1.173H0v.652h1.147v1.175h.635V4.084h1.145v-.652H1.782z" fill="#F2BA49"/><path d="M29.093 8.098v-.93h-.503v.93h-.906v.516h.906v.93h.503v-.93H30v-.516h-.907zM25.948 26.408a.959.959 0 00.947-.97.959.959 0 00-.947-.971.959.959 0 00-.947.97c0 .537.424.971.947.971zM3.356 25.134c0 .366-.29.666-.65.666a.659.659 0 01-.65-.666c0-.367.29-.667.65-.667.36.002.65.3.65.667z" fill="#FFD34D"/><path d="M2.316 22.22c0 .569-.45 1.03-1.005 1.03a1.019 1.019 0 01-1.006-1.03c0-.57.45-1.032 1.006-1.032.555 0 1.005.462 1.005 1.031zM27.738 5.255a.704.704 0 01-.694.712.704.704 0 01-.694-.712c0-.393.311-.712.694-.712.385.002.694.32.694.712z" fill="#F2BA49"/></svg><svg fill="none" viewBox="0 0 29 40" id="icon-award-regional" xmlns="http://www.w3.org/2000/svg"><path d="M12.822 40l9.917-25.404-11.734-4.61L1.09 35.392l7.905-2.917L12.822 40z" fill="#4A82D4"/><path d="M16.718 40L6.803 14.596l11.733-4.61 9.917 25.405-7.906-2.917L16.718 40z" fill="#599CFF"/><path d="M14.853 29.321C1.538 24.933 2.476 8.118 2.476 8.118c5.36-5.375 12.297-6.09 12.297-6.09s6.936.715 12.293 6.093c0 0 .939 16.812-12.374 21.203h.161v-.003z" fill="#FFD34D"/><path d="M14.773 27.405l-.218-.085C5.185 23.61 4.294 12.483 4.242 9.162l-.005-.271.201-.18c4.107-3.7 8.875-4.665 10.24-4.872l.09-.014.09.014c1.372.217 6.166 1.206 10.244 4.871l.201.181-.004.271c-.024 1.46-.207 4.377-1.162 7.5-1.625 5.318-4.703 8.903-9.149 10.658l-.215.085zM5.433 9.414c.093 3.4 1.093 13.282 9.34 16.71 3.976-1.645 6.746-4.945 8.232-9.811.855-2.8 1.061-5.432 1.102-6.899-3.778-3.285-8.254-4.205-9.342-4.386-1.083.176-5.53 1.07-9.331 4.386z" fill="#F2BA49"/><path d="M14.773 20.307c-3.47 0-6.292-2.832-6.292-6.312 0-3.48 2.822-6.312 6.292-6.312 3.469 0 6.291 2.832 6.291 6.312 0 3.48-2.825 6.312-6.291 6.312zm0-12.134c-3.2 0-5.804 2.613-5.804 5.822 0 3.21 2.604 5.822 5.804 5.822 3.199 0 5.803-2.613 5.803-5.822-.003-3.21-2.604-5.822-5.803-5.822z" fill="#F2BA49"/><path d="M18.057 12.12h-6.569v.489h6.569v-.49zM18.057 13.75h-6.569v.49h6.569v-.49zM18.057 15.381h-6.569v.49h6.569v-.49zM1.315 7.317a.83.83 0 00.83-.832.83.83 0 00-.83-.832.83.83 0 00-.83.832c0 .46.372.832.83.832zM24.268 1.833h-.856V.977h-.471v.856h-.853v.473h.853v.856h.471v-.856h.856v-.473z" fill="#F2BA49"/><path d="M3.168 21.236c0 .514-.414.93-.926.93a.928.928 0 01-.927-.93.928.928 0 111.853 0zM2.18 17.623h-.853v-.856H.853v.856H0v.475h.853v.856h.474v-.856h.853v-.475zM29 16.196a.568.568 0 11-1.137 0 .568.568 0 111.137 0z" fill="#FFD34D"/><path d="M27.863 21.904a1.034 1.034 0 11-2.067 0 1.034 1.034 0 112.067 0z" fill="#F2BA49"/><path d="M11.979.984a.491.491 0 10-.002-.982.491.491 0 00.002.982z" fill="#FFD34D"/></svg><svg fill="none" viewBox="0 0 21 21" id="icon-load" xmlns="http://www.w3.org/2000/svg"><path d="M1.746 14.137v2.323c0 .269-.011.564-.343.569-.336.004-.398-.28-.399-.576-.002-1.076-.007-2.153 0-3.228.002-.495.145-.652.6-.656 1.006-.008 2.011-.001 3.015.001.08 0 .163.005.24.025.207.056.334.2.315.432-.018.22-.166.325-.361.329-.562.011-1.123.016-1.684.016-.228 0-.531-.071-.651.095-.14.196.089.444.186.654 1.564 3.367 4.892 5.43 8.372 5.042 3.542-.394 5.984-2.439 7.324-5.98.03-.08.054-.162.081-.244.09-.269.272-.355.509-.26.234.095.26.301.189.536a10.27 10.27 0 01-1.422 2.88C14.6 20.532 8.492 21.31 4.468 17.799c-1.156-1.01-2.014-2.252-2.722-3.662zM19.248 6.77V4.648c0-.172-.012-.35.085-.503.09-.142.217-.219.38-.184.188.04.272.188.275.377.01.505.008 1.01.009 1.518 0 .665-.008 1.33.003 1.994.006.396-.142.587-.524.584-1.035-.008-2.07 0-3.105-.005-.248-.001-.53-.022-.528-.378.002-.359.27-.423.547-.423.618-.002 1.237-.012 1.854.004.31.008.42-.045.264-.406-1.27-2.902-3.364-4.7-6.283-5.282-2.873-.573-5.407.303-7.531 2.446a8.356 8.356 0 00-1.953 3.15 5.037 5.037 0 01-.255.636c-.09.177-.243.28-.44.196-.172-.072-.231-.234-.218-.422.007-.1.032-.199.06-.295 1.024-3.487 4.509-6.411 7.876-6.63 4.236-.275 7.34 1.607 9.329 5.632.024.048.055.091.083.137.023-.01.048-.018.072-.026z" fill="#fff"/><path d="M1.746 14.137v2.323c0 .269-.011.564-.343.569-.336.004-.398-.28-.399-.576-.002-1.076-.007-2.153 0-3.228.002-.495.145-.652.6-.656 1.006-.008 2.011-.001 3.015.001.08 0 .163.005.24.025.207.056.334.2.315.432-.018.22-.166.325-.361.329-.562.011-1.123.016-1.684.016-.228 0-.531-.071-.651.095-.14.196.089.444.186.654 1.564 3.367 4.892 5.43 8.372 5.042 3.542-.394 5.984-2.439 7.324-5.98.03-.08.054-.162.081-.244.09-.269.272-.355.509-.26.234.095.26.301.189.536a10.27 10.27 0 01-1.422 2.88C14.6 20.532 8.492 21.31 4.468 17.799c-1.156-1.01-2.014-2.252-2.722-3.662zM19.248 6.77V4.648c0-.172-.012-.35.085-.503.09-.142.217-.219.38-.184.188.04.272.188.275.377.01.505.008 1.01.009 1.518 0 .665-.008 1.33.003 1.994.006.396-.142.587-.524.584-1.035-.008-2.07 0-3.105-.005-.248-.001-.53-.022-.528-.378.002-.359.27-.423.547-.423.618-.002 1.237-.012 1.854.004.31.008.42-.045.264-.406-1.27-2.902-3.364-4.7-6.283-5.282-2.873-.573-5.407.303-7.531 2.446a8.356 8.356 0 00-1.953 3.15 5.037 5.037 0 01-.255.636c-.09.177-.243.28-.44.196-.172-.072-.231-.234-.218-.422.007-.1.032-.199.06-.295 1.024-3.487 4.509-6.411 7.876-6.63 4.236-.275 7.34 1.607 9.329 5.632.024.048.055.091.083.137.023-.01.048-.018.072-.026z" stroke="#fff" stroke-width=".7"/></svg></svg>